<svg width="1512" height="368" viewBox="0 0 1512 368" fill="none" xmlns="http://www.w3.org/2000/svg">
<g opacity="0.2">
<path d="M505.86 268.021C506.42 268.581 507.353 268.581 507.913 268.021C508.379 267.555 508.379 266.621 507.913 266.061C507.353 265.501 506.42 265.501 505.86 266.061C505.3 266.621 505.3 267.555 505.86 268.021Z" fill="#B0BADB"/>
<path d="M465.643 259.994C466.203 260.554 467.136 260.554 467.696 259.994C468.256 259.527 468.256 258.594 467.696 258.034C467.136 257.474 466.203 257.474 465.643 258.034C465.083 258.594 465.083 259.527 465.643 259.994Z" fill="#B0BADB"/>
<path d="M483.745 282.583C484.119 282.957 484.772 282.957 485.145 282.583C485.518 282.21 485.518 281.556 485.145 281.183C484.772 280.81 484.119 280.81 483.745 281.183C483.372 281.556 483.372 282.21 483.745 282.583Z" fill="#B0BADB"/>
<path d="M461.351 301.906C461.724 302.28 462.284 302.28 462.751 301.906C463.124 301.533 463.124 300.88 462.751 300.506C462.284 300.133 461.724 300.133 461.351 300.506C460.884 300.88 460.884 301.533 461.351 301.906Z" fill="#B0BADB"/>
<path d="M477.12 219.108C477.307 219.295 477.587 219.295 477.774 219.108C477.96 218.921 477.96 218.641 477.774 218.455C477.587 218.268 477.307 218.268 477.12 218.455C476.934 218.641 476.934 218.921 477.12 219.108Z" fill="#B0BADB"/>
<path d="M491.397 222.562C491.583 222.749 491.863 222.749 492.05 222.562C492.237 222.375 492.237 222.095 492.05 221.909C491.863 221.722 491.583 221.722 491.397 221.909C491.21 222.095 491.21 222.375 491.397 222.562Z" fill="#B0BADB"/>
<path d="M517.524 281.277C517.71 281.464 517.99 281.464 518.177 281.277C518.364 281.09 518.364 280.81 518.177 280.624C517.99 280.437 517.71 280.437 517.524 280.624C517.337 280.81 517.337 281.09 517.524 281.277Z" fill="#B0BADB"/>
<path d="M512.112 244.591C512.298 244.778 512.578 244.778 512.765 244.591C512.952 244.405 512.952 244.125 512.765 243.938C512.578 243.751 512.298 243.751 512.112 243.938C511.925 244.125 511.925 244.405 512.112 244.591Z" fill="#B0BADB"/>
<path d="M500.355 201.279C500.541 201.466 500.821 201.466 501.008 201.279C501.194 201.092 501.194 200.812 501.008 200.626C500.821 200.439 500.541 200.439 500.355 200.626C500.168 200.812 500.168 201.092 500.355 201.279Z" fill="#B0BADB"/>
<path d="M518.55 248.793C518.737 248.979 519.017 248.979 519.203 248.793C519.39 248.606 519.39 248.326 519.203 248.139C519.017 247.952 518.737 247.952 518.55 248.139C518.364 248.326 518.364 248.606 518.55 248.793Z" fill="#B0BADB"/>
<path d="M481.599 316.469C482.532 317.402 484.119 317.402 485.145 316.469C486.078 315.442 486.078 313.948 485.145 312.922C484.119 311.988 482.532 311.988 481.599 312.922C480.573 313.948 480.573 315.442 481.599 316.469Z" fill="#B0BADB"/>
<path d="M210.252 197.171C211.278 198.198 212.865 198.198 213.798 197.171C214.731 196.238 214.731 194.651 213.798 193.624C212.865 192.691 211.278 192.691 210.252 193.624C209.319 194.651 209.319 196.238 210.252 197.171Z" fill="#B0BADB"/>
<path d="M10.7541 307.227C11.6872 308.254 13.2735 308.254 14.2066 307.227C15.233 306.293 15.233 304.707 14.2066 303.773C13.2735 302.746 11.6872 302.746 10.7541 303.773C9.72765 304.707 9.72765 306.293 10.7541 307.227Z" fill="#B0BADB"/>
<path d="M134.95 274.742C135.884 275.676 137.47 275.676 138.496 274.742C139.429 273.809 139.429 272.222 138.496 271.195C137.47 270.262 135.884 270.262 134.95 271.195C133.924 272.222 133.924 273.809 134.95 274.742Z" fill="#B0BADB"/>
<path d="M532.174 352.594C533.107 353.621 534.693 353.621 535.719 352.594C536.652 351.661 536.652 350.074 535.719 349.14C534.693 348.114 533.107 348.114 532.174 349.14C531.147 350.074 531.147 351.661 532.174 352.594Z" fill="#B0BADB"/>
<path d="M418.615 235.817C419.641 236.844 421.227 236.844 422.16 235.817C423.187 234.883 423.187 233.296 422.16 232.27C421.227 231.336 419.641 231.336 418.615 232.27C417.681 233.296 417.681 234.883 418.615 235.817Z" fill="#B0BADB"/>
<path d="M465.83 346.713C466.576 347.366 467.696 347.366 468.349 346.713C469.002 346.06 469.002 344.939 468.349 344.193C467.696 343.539 466.576 343.539 465.83 344.193C465.177 344.939 465.177 346.06 465.83 346.713Z" fill="white"/>
<path d="M652.917 267.928C653.571 268.581 654.69 268.581 655.437 267.928C656.09 267.181 656.09 266.061 655.437 265.408C654.69 264.754 653.571 264.754 652.917 265.408C652.264 266.061 652.264 267.181 652.917 267.928Z" fill="#B0BADB"/>
<path d="M607.382 99.811C608.035 100.558 609.155 100.558 609.901 99.811C610.554 99.1576 610.554 98.0374 609.901 97.2906C609.155 96.6372 608.035 96.6372 607.382 97.2906C606.729 98.0374 606.729 99.1576 607.382 99.811Z" fill="#B0BADB"/>
<path d="M638.828 254.206C639.481 254.86 640.6 254.86 641.254 254.206C642 253.459 642 252.339 641.254 251.686C640.6 250.939 639.481 250.939 638.828 251.686C638.081 252.339 638.081 253.459 638.828 254.206Z" fill="#B0BADB"/>
<path d="M497.835 277.263C498.582 277.916 499.701 277.916 500.355 277.263C501.101 276.609 501.101 275.489 500.355 274.742C499.701 274.089 498.582 274.089 497.835 274.742C497.182 275.489 497.182 276.609 497.835 277.263Z" fill="#B0BADB"/>
<path d="M492.703 253.179C493.17 253.646 494.01 253.646 494.476 253.179C495.036 252.713 495.036 251.872 494.476 251.312C494.01 250.846 493.17 250.846 492.703 251.312C492.143 251.872 492.143 252.713 492.703 253.179Z" fill="#B0BADB"/>
<path d="M503.061 227.79C503.527 228.256 504.367 228.256 504.834 227.79C505.393 227.23 505.393 226.483 504.834 225.923C504.367 225.456 503.527 225.456 503.061 225.923C502.501 226.483 502.501 227.23 503.061 227.79Z" fill="#B0BADB"/>
<path d="M472.548 311.614C472.828 311.988 473.388 311.988 473.668 311.614C474.041 311.334 474.041 310.774 473.668 310.494C473.388 310.121 472.828 310.121 472.548 310.494C472.175 310.774 472.175 311.334 472.548 311.614Z" fill="#B0BADB"/>
<path d="M501.194 272.782C501.568 273.062 502.034 273.062 502.408 272.782C502.687 272.409 502.687 271.849 502.408 271.569C502.034 271.195 501.568 271.195 501.194 271.569C500.915 271.849 500.915 272.409 501.194 272.782Z" fill="#B0BADB"/>
<path d="M552.422 280.156C552.795 280.436 553.355 280.436 553.635 280.156C554.008 279.783 554.008 279.223 553.635 278.943C553.355 278.569 552.795 278.569 552.422 278.943C552.142 279.223 552.142 279.783 552.422 280.156Z" fill="#B0BADB"/>
<path d="M184.685 116.614C184.965 116.987 185.525 116.987 185.805 116.614C186.178 116.333 186.178 115.773 185.805 115.493C185.525 115.12 184.965 115.12 184.685 115.493C184.312 115.773 184.312 116.333 184.685 116.614Z" fill="#B0BADB"/>
<path d="M628.19 307.414C628.563 307.788 629.03 307.788 629.403 307.414C629.683 307.134 629.683 306.574 629.403 306.201C629.03 305.921 628.563 305.921 628.19 306.201C627.91 306.574 627.91 307.134 628.19 307.414Z" fill="#B0BADB"/>
<path d="M1003.21 307.414C1003.49 307.788 1004.05 307.788 1004.42 307.414C1004.7 307.134 1004.7 306.574 1004.42 306.201C1004.05 305.921 1003.49 305.921 1003.21 306.201C1002.83 306.574 1002.83 307.134 1003.21 307.414Z" fill="#B0BADB"/>
<path d="M230.874 220.508C231.247 220.881 231.713 220.881 232.087 220.508C232.367 220.228 232.367 219.668 232.087 219.388C231.713 219.015 231.247 219.015 230.874 219.388C230.594 219.668 230.594 220.228 230.874 220.508Z" fill="#B0BADB"/>
<path d="M503.341 291.172C503.714 291.452 504.18 291.452 504.554 291.172C504.834 290.798 504.834 290.332 504.554 289.958C504.18 289.678 503.714 289.678 503.341 289.958C503.061 290.332 503.061 290.798 503.341 291.172Z" fill="#B0BADB"/>
<path d="M491.77 283.984C491.957 284.077 492.237 284.077 492.33 283.984C492.517 283.797 492.517 283.517 492.33 283.33C492.237 283.144 491.957 283.144 491.77 283.33C491.583 283.517 491.583 283.797 491.77 283.984Z" fill="#B0BADB"/>
<path d="M524.242 243.192C524.429 243.285 524.709 243.285 524.895 243.192C524.989 243.005 524.989 242.725 524.895 242.538C524.709 242.352 524.429 242.352 524.242 242.538C524.149 242.725 524.149 243.005 524.242 243.192Z" fill="#B0BADB"/>
<path d="M524.709 213.974C524.802 214.067 525.082 214.067 525.269 213.974C525.455 213.787 525.455 213.507 525.269 213.321C525.082 213.227 524.802 213.227 524.709 213.321C524.522 213.507 524.522 213.787 524.709 213.974Z" fill="#B0BADB"/>
<path d="M508.846 213.507C508.939 213.694 509.219 213.694 509.406 213.507C509.592 213.321 509.592 213.134 509.406 212.947C509.219 212.761 508.939 212.761 508.846 212.947C508.659 213.134 508.659 213.321 508.846 213.507Z" fill="#B0BADB"/>
<path d="M508.379 219.014C508.566 219.201 508.846 219.201 508.939 219.014C509.126 218.828 509.126 218.548 508.939 218.361C508.846 218.268 508.566 218.268 508.379 218.361C508.193 218.548 508.193 218.828 508.379 219.014Z" fill="#B0BADB"/>
<path d="M501.008 284.358C501.194 284.451 501.381 284.451 501.568 284.358C501.754 284.171 501.754 283.891 501.568 283.704C501.381 283.611 501.194 283.611 501.008 283.704C500.821 283.891 500.821 284.171 501.008 284.358Z" fill="#B0BADB"/>
<path d="M489.251 276.983C489.531 277.356 490.091 277.356 490.37 276.983C490.744 276.703 490.744 276.143 490.37 275.862C490.091 275.489 489.531 275.489 489.251 275.862C488.877 276.143 488.877 276.703 489.251 276.983Z" fill="#B0BADB"/>
<path d="M515.658 249.445C515.937 249.725 516.497 249.725 516.871 249.445C517.151 249.072 517.151 248.512 516.871 248.232C516.497 247.952 515.937 247.952 515.658 248.232C515.284 248.512 515.284 249.072 515.658 249.445Z" fill="#B0BADB"/>
<path d="M221.263 155.538C221.636 155.912 222.102 155.912 222.476 155.538C222.756 155.258 222.756 154.698 222.476 154.418C222.102 154.045 221.636 154.045 221.263 154.418C220.983 154.698 220.983 155.258 221.263 155.538Z" fill="#B0BADB"/>
<path d="M200.454 78.9006C200.828 79.274 201.294 79.274 201.667 78.9006C201.947 78.6206 201.947 78.0605 201.667 77.7805C201.294 77.4071 200.828 77.4071 200.454 77.7805C200.175 78.0605 200.175 78.6206 200.454 78.9006Z" fill="#B0BADB"/>
<path d="M480.293 219.668C480.573 220.042 481.133 220.042 481.413 219.668C481.786 219.388 481.786 218.828 481.413 218.548C481.133 218.175 480.573 218.175 480.293 218.548C479.92 218.828 479.92 219.388 480.293 219.668Z" fill="#B0BADB"/>
<path d="M232.74 163.007C233.113 163.287 233.673 163.287 233.953 163.007C234.233 162.633 234.233 162.167 233.953 161.793C233.673 161.513 233.113 161.513 232.74 161.793C232.46 162.167 232.46 162.633 232.74 163.007Z" fill="#B0BADB"/>
<path d="M247.763 248.792C248.696 249.726 250.282 249.726 251.309 248.792C252.242 247.765 252.242 246.178 251.309 245.245C250.282 244.218 248.696 244.218 247.763 245.245C246.736 246.178 246.736 247.765 247.763 248.792Z" fill="#B0BADB"/>
<path d="M208.572 274.462C209.226 275.116 210.345 275.116 210.999 274.462C211.745 273.715 211.745 272.688 210.999 271.942C210.345 271.288 209.226 271.288 208.572 271.942C207.826 272.688 207.826 273.715 208.572 274.462Z" fill="#B0BADB"/>
<path d="M222.102 168.234C222.476 168.514 223.036 168.514 223.316 168.234C223.595 167.861 223.595 167.394 223.316 167.021C223.036 166.741 222.476 166.741 222.102 167.021C221.823 167.394 221.823 167.861 222.102 168.234Z" fill="#B0BADB"/>
<path d="M268.385 272.129C268.664 272.409 269.224 272.409 269.504 272.129C269.878 271.755 269.878 271.289 269.504 270.915C269.224 270.635 268.664 270.635 268.385 270.915C268.011 271.289 268.011 271.755 268.385 272.129Z" fill="#B0BADB"/>
<path d="M190.75 313.948C191.03 314.322 191.59 314.322 191.87 313.948C192.243 313.668 192.243 313.108 191.87 312.828C191.59 312.455 191.03 312.455 190.75 312.828C190.377 313.108 190.377 313.668 190.75 313.948Z" fill="#B0BADB"/>
<path d="M0.209949 332.898C0.583191 333.271 1.04974 333.271 1.42298 332.898C1.70291 332.618 1.70291 332.058 1.42298 331.778C1.04974 331.404 0.583191 331.404 0.209949 331.778C-0.0699829 332.058 -0.0699829 332.618 0.209949 332.898Z" fill="#B0BADB"/>
<path d="M258.774 207.159C259.054 207.439 259.613 207.439 259.893 207.159C260.267 206.786 260.267 206.319 259.893 205.946C259.613 205.666 259.054 205.666 258.774 205.946C258.4 206.319 258.4 206.786 258.774 207.159Z" fill="#B0BADB"/>
<path d="M237.965 130.521C238.245 130.801 238.805 130.801 239.085 130.521C239.458 130.148 239.458 129.681 239.085 129.308C238.805 129.028 238.245 129.028 237.965 129.308C237.592 129.681 237.592 130.148 237.965 130.521Z" fill="#B0BADB"/>
<path d="M270.251 214.533C270.624 214.907 271.091 214.907 271.464 214.533C271.744 214.253 271.744 213.693 271.464 213.413C271.091 213.04 270.624 213.04 270.251 213.413C269.971 213.693 269.971 214.253 270.251 214.533Z" fill="#B0BADB"/>
<path d="M555.688 226.203C555.688 225.176 554.848 224.429 553.915 224.429C552.982 224.429 552.142 225.176 552.142 226.203C552.142 227.136 552.982 227.883 553.915 227.883C554.848 227.883 555.688 227.136 555.688 226.203Z" fill="#B0BADB"/>
<path d="M265.958 74.794C266.892 75.7275 268.478 75.7275 269.411 74.794C270.437 73.7672 270.437 72.1803 269.411 71.2469C268.478 70.3134 266.892 70.3134 265.958 71.2469C264.932 72.1803 264.932 73.7672 265.958 74.794Z" fill="#B0BADB"/>
<path d="M620.539 287.438C621.472 288.465 623.058 288.465 624.084 287.438C625.018 286.504 625.018 284.918 624.084 283.984C623.058 282.957 621.472 282.957 620.539 283.984C619.606 284.918 619.606 286.504 620.539 287.438Z" fill="#B0BADB"/>
<path d="M234.326 39.602C235.259 40.6288 236.846 40.6288 237.872 39.602C238.805 38.6685 238.805 37.0816 237.872 36.0548C236.846 35.1213 235.259 35.1213 234.326 36.0548C233.3 37.0816 233.3 38.6685 234.326 39.602Z" fill="#B0BADB"/>
<path d="M250.189 105.038C250.842 105.692 251.962 105.692 252.708 105.038C253.362 104.385 253.362 103.265 252.708 102.518C251.962 101.864 250.842 101.864 250.189 102.518C249.443 103.265 249.443 104.385 250.189 105.038Z" fill="#B0BADB"/>
<path d="M282.195 35.5881C282.941 36.2415 284.061 36.2415 284.714 35.5881C285.367 34.8413 285.367 33.7211 284.714 33.0677C284.061 32.4143 282.941 32.4143 282.195 33.0677C281.541 33.7211 281.541 34.8413 282.195 35.5881Z" fill="#B0BADB"/>
<path d="M201.574 80.2075C202.321 80.9543 203.44 80.9543 204.094 80.2075C204.84 79.5541 204.84 78.4339 204.094 77.6871C203.44 77.0337 202.321 77.0337 201.574 77.6871C200.921 78.4339 200.921 79.5541 201.574 80.2075Z" fill="#B0BADB"/>
<path d="M456.779 29.2404C457.432 29.8938 458.551 29.8938 459.205 29.2404C459.951 28.4936 459.951 27.3735 459.205 26.72C458.551 26.0666 457.432 26.0666 456.779 26.72C456.032 27.3735 456.032 28.4936 456.779 29.2404Z" fill="#B0BADB"/>
<path d="M256.814 69.9397C257.187 70.3131 257.747 70.3131 258.027 69.9397C258.307 69.6596 258.307 69.0996 258.027 68.8195C257.747 68.4461 257.187 68.4461 256.814 68.8195C256.534 69.0996 256.534 69.6596 256.814 69.9397Z" fill="#B0BADB"/>
<path d="M285.554 31.0139C285.834 31.3873 286.393 31.3873 286.767 31.0139C287.047 30.7339 287.047 30.1738 286.767 29.8938C286.393 29.5204 285.834 29.5204 285.554 29.8938C285.18 30.1738 285.18 30.7339 285.554 31.0139Z" fill="#B0BADB"/>
<path d="M298.804 45.4833C299.084 45.7634 299.644 45.7634 299.923 45.4833C300.297 45.1099 300.297 44.6432 299.923 44.2698C299.644 43.9898 299.084 43.9898 298.804 44.2698C298.43 44.6432 298.43 45.1099 298.804 45.4833Z" fill="#B0BADB"/>
<path d="M287.7 49.497C287.98 49.777 288.54 49.777 288.913 49.497C289.193 49.1236 289.193 48.6569 288.913 48.2835C288.54 48.0034 287.98 48.0034 287.7 48.2835C287.327 48.6569 287.327 49.1236 287.7 49.497Z" fill="#B0BADB"/>
<path d="M213.611 37.175C213.984 37.5484 214.544 37.5484 214.824 37.175C215.197 36.895 215.197 36.3349 214.824 36.0549C214.544 35.6815 213.984 35.6815 213.611 36.0549C213.331 36.3349 213.331 36.895 213.611 37.175Z" fill="#B0BADB"/>
<path d="M276.129 42.2154C276.316 42.4021 276.503 42.4021 276.689 42.2154C276.876 42.1221 276.876 41.8421 276.689 41.6554C276.503 41.4687 276.316 41.4687 276.129 41.6554C275.943 41.8421 275.943 42.1221 276.129 42.2154Z" fill="#B0BADB"/>
<path d="M650.678 156.939C650.865 157.126 651.145 157.126 651.238 156.939C651.424 156.752 651.424 156.566 651.238 156.379C651.145 156.192 650.865 156.192 650.678 156.379C650.491 156.566 650.491 156.752 650.678 156.939Z" fill="#B0BADB"/>
<path d="M285.367 42.6829C285.46 42.7763 285.74 42.7763 285.927 42.6829C286.114 42.4962 286.114 42.2162 285.927 42.0295C285.74 41.9362 285.46 41.9362 285.367 42.0295C285.18 42.2162 285.18 42.4962 285.367 42.6829Z" fill="#B0BADB"/>
<path d="M273.61 35.3079C273.89 35.6812 274.45 35.6812 274.73 35.3079C275.103 35.0278 275.103 34.4677 274.73 34.1877C274.45 33.8143 273.89 33.8143 273.61 34.1877C273.237 34.4677 273.237 35.0278 273.61 35.3079Z" fill="#B0BADB"/>
<path d="M527.788 281.09C528.161 281.37 528.721 281.37 529.001 281.09C529.374 280.716 529.374 280.156 529.001 279.876C528.721 279.503 528.161 279.503 527.788 279.876C527.508 280.156 527.508 280.716 527.788 281.09Z" fill="#B0BADB"/>
<path d="M300.577 34.6548C301.323 35.4015 302.443 35.4015 303.096 34.6548C303.843 34.0013 303.843 32.8812 303.096 32.2278C302.443 31.481 301.323 31.481 300.577 32.2278C299.924 32.8812 299.924 34.0013 300.577 34.6548Z" fill="#B0BADB"/>
<path d="M220.423 60.8847C220.796 61.1647 221.263 61.1647 221.636 60.8847C221.916 60.5113 221.916 60.0446 221.636 59.6712C221.263 59.3912 220.796 59.3912 220.423 59.6712C220.143 60.0446 220.143 60.5113 220.423 60.8847Z" fill="#B0BADB"/>
<path d="M245.617 64.4322C245.803 64.6189 246.083 64.6189 246.177 64.4322C246.363 64.2456 246.363 63.9655 246.177 63.8722C246.083 63.6855 245.803 63.6855 245.617 63.8722C245.43 63.9655 245.43 64.2456 245.617 64.4322Z" fill="#B0BADB"/>
<path d="M536.093 214.254C536.466 214.628 536.932 214.628 537.306 214.254C537.586 213.974 537.586 213.414 537.306 213.134C536.932 212.761 536.466 212.761 536.093 213.134C535.813 213.414 535.813 213.974 536.093 214.254Z" fill="#B0BADB"/>
<path d="M599.544 280.81C600.29 281.463 601.41 281.463 602.063 280.81C602.81 280.063 602.81 278.943 602.063 278.289C601.41 277.543 600.29 277.543 599.544 278.289C598.891 278.943 598.891 280.063 599.544 280.81Z" fill="#B0BADB"/>
<path d="M655.25 127.255C655.623 127.535 656.09 127.535 656.463 127.255C656.743 126.881 656.743 126.415 656.463 126.041C656.09 125.761 655.623 125.761 655.25 126.041C654.97 126.415 654.97 126.881 655.25 127.255Z" fill="#B0BADB"/>
<path d="M555.501 255.887C555.781 256.167 556.341 256.167 556.621 255.887C556.994 255.513 556.994 255.047 556.621 254.673C556.341 254.393 555.781 254.393 555.501 254.673C555.128 255.047 555.128 255.513 555.501 255.887Z" fill="#B0BADB"/>
<path d="M543.931 248.699C544.024 248.792 544.304 248.792 544.491 248.699C544.677 248.512 544.677 248.232 544.491 248.045C544.304 247.952 544.024 247.952 543.931 248.045C543.744 248.232 543.744 248.512 543.931 248.699Z" fill="#B0BADB"/>
<path d="M553.075 249.073C553.262 249.166 553.542 249.166 553.728 249.073C553.822 248.886 553.822 248.606 553.728 248.419C553.542 248.326 553.262 248.326 553.075 248.419C552.982 248.606 552.982 248.886 553.075 249.073Z" fill="#B0BADB"/>
<path d="M541.318 241.697C541.691 242.071 542.158 242.071 542.531 241.697C542.811 241.417 542.811 240.857 542.531 240.577C542.158 240.204 541.691 240.204 541.318 240.577C541.038 240.857 541.038 241.417 541.318 241.697Z" fill="#B0BADB"/>
<path d="M203.347 27.467C204.094 28.1204 205.213 28.1204 205.866 27.467C206.52 26.7202 206.52 25.6001 205.866 24.9466C205.213 24.2932 204.094 24.2932 203.347 24.9466C202.694 25.6001 202.694 26.7202 203.347 27.467Z" fill="#B0BADB"/>
<path d="M233.02 33.1611C233.3 33.4411 233.86 33.4411 234.14 33.1611C234.513 32.7877 234.513 32.3209 234.14 31.9475C233.86 31.6675 233.3 31.6675 233.02 31.9475C232.647 32.3209 232.647 32.7877 233.02 33.1611Z" fill="#B0BADB"/>
<path d="M495.503 213.787C495.876 214.161 496.342 214.161 496.716 213.787C496.996 213.507 496.996 212.947 496.716 212.667C496.342 212.294 495.876 212.294 495.503 212.667C495.223 212.947 495.223 213.507 495.503 213.787Z" fill="#B0BADB"/>
<path d="M462.284 240.297C462.564 240.67 463.124 240.67 463.404 240.297C463.777 240.017 463.777 239.457 463.404 239.084C463.124 238.804 462.564 238.804 462.284 239.084C461.911 239.457 461.911 240.017 462.284 240.297Z" fill="#B0BADB"/>
<path d="M826.288 115.68C827.222 116.707 828.808 116.707 829.834 115.68C830.767 114.747 830.767 113.16 829.834 112.133C828.808 111.199 827.222 111.199 826.288 112.133C825.262 113.16 825.262 114.747 826.288 115.68Z" fill="#B0BADB"/>
<path d="M684.083 208.839C685.016 209.866 686.603 209.866 687.629 208.839C688.562 207.906 688.562 206.319 687.629 205.385C686.603 204.359 685.016 204.359 684.083 205.385C683.057 206.319 683.057 207.906 684.083 208.839Z" fill="#B0BADB"/>
<path d="M876.863 151.899C877.796 152.832 879.382 152.832 880.409 151.899C881.342 150.872 881.342 149.285 880.409 148.351C879.382 147.325 877.796 147.325 876.863 148.351C875.836 149.285 875.836 150.872 876.863 151.899Z" fill="#B0BADB"/>
<path d="M810.519 145.924C811.172 146.671 812.292 146.671 813.038 145.924C813.692 145.271 813.692 144.151 813.038 143.497C812.292 142.75 811.172 142.75 810.519 143.497C809.866 144.151 809.866 145.271 810.519 145.924Z" fill="#B0BADB"/>
<path d="M908.868 191.757C909.522 192.41 910.641 192.41 911.388 191.757C912.041 191.104 912.041 189.983 911.388 189.237C910.641 188.583 909.522 188.583 908.868 189.237C908.122 189.983 908.122 191.104 908.868 191.757Z" fill="#B0BADB"/>
<path d="M894.685 178.035C895.432 178.689 896.551 178.689 897.205 178.035C897.858 177.382 897.858 176.262 897.205 175.515C896.551 174.862 895.432 174.862 894.685 175.515C894.032 176.262 894.032 177.382 894.685 178.035Z" fill="#B0BADB"/>
<path d="M842.524 76.4741C843.271 77.2209 844.391 77.2209 845.044 76.4741C845.79 75.8207 845.79 74.7005 845.044 73.9537C844.391 73.3003 843.271 73.3003 842.524 73.9537C841.871 74.7005 841.871 75.8207 842.524 76.4741Z" fill="#B0BADB"/>
<path d="M817.237 110.919C817.517 111.199 818.077 111.199 818.357 110.919C818.73 110.545 818.73 109.985 818.357 109.705C818.077 109.332 817.517 109.332 817.237 109.705C816.864 109.985 816.864 110.545 817.237 110.919Z" fill="#B0BADB"/>
<path d="M845.884 71.9931C846.257 72.2731 846.724 72.2731 847.097 71.9931C847.377 71.6197 847.377 71.153 847.097 70.7796C846.724 70.4996 846.257 70.4996 845.884 70.7796C845.604 71.153 845.604 71.6197 845.884 71.9931Z" fill="#B0BADB"/>
<path d="M897.111 79.3681C897.484 79.6481 897.951 79.6481 898.324 79.3681C898.604 78.9947 898.604 78.528 898.324 78.1546C897.951 77.8745 897.484 77.8745 897.111 78.1546C896.831 78.528 896.831 78.9947 897.111 79.3681Z" fill="#B0BADB"/>
<path d="M922.492 85.5286C922.772 85.9019 923.331 85.9019 923.611 85.5286C923.985 85.2485 923.985 84.6884 923.611 84.4084C923.331 84.035 922.772 84.035 922.492 84.4084C922.118 84.6884 922.118 85.2485 922.492 85.5286Z" fill="#B0BADB"/>
<path d="M859.134 86.3684C859.414 86.7418 859.974 86.7418 860.254 86.3684C860.627 86.0884 860.627 85.5283 860.254 85.1549C859.974 84.8748 859.414 84.8748 859.134 85.1549C858.761 85.5283 858.761 86.0884 859.134 86.3684Z" fill="#B0BADB"/>
<path d="M704.705 232.269C704.985 232.55 705.545 232.55 705.825 232.269C706.198 231.896 706.198 231.429 705.825 231.056C705.545 230.776 704.985 230.776 704.705 231.056C704.332 231.429 704.332 231.896 704.705 232.269Z" fill="#B0BADB"/>
<path d="M848.03 90.383C848.403 90.7564 848.87 90.7564 849.243 90.383C849.523 90.103 849.523 89.5429 849.243 89.1695C848.87 88.8895 848.403 88.8895 848.03 89.1695C847.75 89.5429 847.75 90.103 848.03 90.383Z" fill="#B0BADB"/>
<path d="M836.459 83.1949C836.646 83.3816 836.926 83.3816 837.019 83.1949C837.206 83.0082 837.206 82.7282 837.019 82.5415C836.926 82.4482 836.646 82.4482 836.459 82.5415C836.273 82.7282 836.273 83.0082 836.459 83.1949Z" fill="#B0BADB"/>
<path d="M845.697 83.568C845.884 83.7547 846.07 83.7547 846.257 83.568C846.444 83.3813 846.444 83.1012 846.257 83.0079C846.07 82.8212 845.884 82.8212 845.697 83.0079C845.51 83.1012 845.51 83.3813 845.697 83.568Z" fill="#B0BADB"/>
<path d="M833.94 76.287C834.22 76.5671 834.78 76.5671 835.06 76.287C835.433 75.9137 835.433 75.3536 835.06 75.0735C834.78 74.7935 834.22 74.7935 833.94 75.0735C833.567 75.3536 833.567 75.9137 833.94 76.287Z" fill="#B0BADB"/>
<path d="M665.794 118.014C666.168 118.294 666.634 118.294 667.007 118.014C667.287 117.64 667.287 117.173 667.007 116.8C666.634 116.52 666.168 116.52 665.794 116.8C665.514 117.173 665.514 117.64 665.794 118.014Z" fill="#B0BADB"/>
<path d="M677.365 125.388C677.645 125.761 678.205 125.761 678.485 125.388C678.858 125.108 678.858 124.548 678.485 124.268C678.205 123.894 677.645 123.894 677.365 124.268C676.992 124.548 676.992 125.108 677.365 125.388Z" fill="#B0BADB"/>
<path d="M991.448 102.518C991.448 101.211 990.329 100.091 988.929 100.091C987.529 100.091 986.409 101.211 986.409 102.518C986.409 103.918 987.529 105.038 988.929 105.038C990.329 105.038 991.448 103.918 991.448 102.518Z" fill="#B0BADB"/>
<path d="M988.929 149.751C988.929 148.444 987.809 147.324 986.41 147.324C985.103 147.324 983.983 148.444 983.983 149.751C983.983 151.151 985.103 152.271 986.41 152.271C987.809 152.271 988.929 151.151 988.929 149.751Z" fill="#B0BADB"/>
<path d="M1023.92 92.3432C1023.92 91.3164 1023.17 90.5696 1022.15 90.5696C1021.21 90.5696 1020.47 91.3164 1020.47 92.3432C1020.47 93.2767 1021.21 94.0234 1022.15 94.0234C1023.17 94.0234 1023.92 93.2767 1023.92 92.3432Z" fill="#B0BADB"/>
<path d="M658.983 112.319C658.983 111.292 658.143 110.546 657.21 110.546C656.183 110.546 655.437 111.292 655.437 112.319C655.437 113.253 656.183 114.093 657.21 114.093C658.143 114.093 658.983 113.253 658.983 112.319Z" fill="#B0BADB"/>
<path d="M1039.41 219.108C1039.41 218.081 1038.66 217.335 1037.64 217.335C1036.7 217.335 1035.86 218.081 1035.86 219.108C1035.86 220.042 1036.7 220.882 1037.64 220.882C1038.66 220.882 1039.41 220.042 1039.41 219.108Z" fill="#B0BADB"/>
<path d="M1040.72 144.244C1040.72 143.217 1039.97 142.47 1038.94 142.47C1038.01 142.47 1037.26 143.217 1037.26 144.244C1037.26 145.177 1038.01 146.018 1038.94 146.018C1039.97 146.018 1040.72 145.177 1040.72 144.244Z" fill="#B0BADB"/>
<path d="M674.845 182.236C674.845 181.583 674.286 180.929 673.539 180.929C672.886 180.929 672.326 181.583 672.326 182.236C672.326 182.983 672.886 183.543 673.539 183.543C674.286 183.543 674.845 182.983 674.845 182.236Z" fill="#B0BADB"/>
<path d="M994.434 112.413C994.434 111.946 994.061 111.573 993.594 111.573C993.128 111.573 992.755 111.946 992.755 112.413C992.755 112.88 993.128 113.253 993.594 113.253C994.061 113.253 994.434 112.88 994.434 112.413Z" fill="#B0BADB"/>
<path d="M653.384 113.159C653.384 112.693 653.011 112.319 652.544 112.319C652.078 112.319 651.704 112.693 651.704 113.159C651.704 113.533 652.078 113.906 652.544 113.906C653.011 113.906 653.384 113.533 653.384 113.159Z" fill="#B0BADB"/>
<path d="M654.224 93.5564C654.224 93.0896 653.851 92.7163 653.384 92.7163C652.917 92.7163 652.544 93.0896 652.544 93.5564C652.544 94.0231 652.917 94.3965 653.384 94.3965C653.851 94.3965 654.224 94.0231 654.224 93.5564Z" fill="#B0BADB"/>
<path d="M664.954 98.5974C664.954 98.1306 664.581 97.7572 664.115 97.7572C663.648 97.7572 663.275 98.1306 663.275 98.5974C663.275 99.0641 663.648 99.4375 664.115 99.4375C664.581 99.4375 664.954 99.0641 664.954 98.5974Z" fill="#B0BADB"/>
<path d="M854.188 300.226C854.188 299.76 853.815 299.386 853.349 299.386C852.975 299.386 852.602 299.76 852.602 300.226C852.602 300.693 852.975 301.066 853.349 301.066C853.815 301.066 854.188 300.693 854.188 300.226Z" fill="#B0BADB"/>
<path d="M1001.81 166.087C1001.81 165.62 1001.43 165.247 1000.97 165.247C1000.5 165.247 1000.13 165.62 1000.13 166.087C1000.13 166.553 1000.5 166.927 1000.97 166.927C1001.43 166.927 1001.81 166.553 1001.81 166.087Z" fill="#B0BADB"/>
<path d="M668.034 111.853C668.034 111.666 667.847 111.479 667.567 111.479C667.381 111.479 667.194 111.666 667.194 111.853C667.194 112.133 667.381 112.319 667.567 112.319C667.847 112.319 668.034 112.133 668.034 111.853Z" fill="#B0BADB"/>
<path d="M661.782 105.038C661.782 104.851 661.595 104.665 661.315 104.665C661.129 104.665 660.942 104.851 660.942 105.038C660.942 105.318 661.129 105.505 661.315 105.505C661.595 105.505 661.782 105.318 661.782 105.038Z" fill="#B0BADB"/>
<path d="M664.954 118.573C664.954 118.106 664.581 117.733 664.115 117.733C663.648 117.733 663.275 118.106 663.275 118.573C663.275 119.04 663.648 119.413 664.115 119.413C664.581 119.413 664.954 119.04 664.954 118.573Z" fill="#B0BADB"/>
<path d="M935.928 225.362C935.928 224.895 935.555 224.522 935.089 224.522C934.622 224.522 934.249 224.895 934.249 225.362C934.249 225.829 934.622 226.202 935.089 226.202C935.555 226.202 935.928 225.829 935.928 225.362Z" fill="#B0BADB"/>
<path d="M687.256 212.853C687.256 212.387 686.882 212.013 686.416 212.013C685.949 212.013 685.576 212.387 685.576 212.853C685.576 213.32 685.949 213.693 686.416 213.693C686.882 213.693 687.256 213.32 687.256 212.853Z" fill="#B0BADB"/>
<path d="M1038.94 295.186C1039.97 296.119 1041.56 296.119 1042.49 295.186C1043.52 294.159 1043.52 292.572 1042.49 291.638C1041.56 290.612 1039.97 290.612 1038.94 291.638C1038.01 292.572 1038.01 294.159 1038.94 295.186Z" fill="white"/>
<path d="M1111.17 202.212C1112.1 203.145 1113.69 203.145 1114.71 202.212C1115.64 201.185 1115.64 199.598 1114.71 198.665C1113.69 197.638 1112.1 197.638 1111.17 198.665C1110.14 199.598 1110.14 201.185 1111.17 202.212Z" fill="#B0BADB"/>
<path d="M1078.41 242.818C1079.16 243.471 1080.28 243.471 1080.93 242.818C1081.68 242.071 1081.68 240.951 1080.93 240.297C1080.28 239.644 1079.16 239.644 1078.41 240.297C1077.76 240.951 1077.76 242.071 1078.41 242.818Z" fill="#B0BADB"/>
<path d="M1142.89 301.626C1143.26 302 1143.82 302 1144.1 301.626C1144.48 301.346 1144.48 300.786 1144.1 300.506C1143.82 300.133 1143.26 300.133 1142.89 300.506C1142.61 300.786 1142.61 301.346 1142.89 301.626Z" fill="#B0BADB"/>
<path d="M1045.66 274.463C1045.85 274.649 1046.13 274.649 1046.22 274.463C1046.41 274.369 1046.41 274.089 1046.22 273.902C1046.13 273.716 1045.85 273.716 1045.66 273.902C1045.48 274.089 1045.48 274.369 1045.66 274.463Z" fill="#B0BADB"/>
<path d="M1011.6 273.996C1011.88 274.276 1012.44 274.276 1012.72 273.996C1013.1 273.623 1013.1 273.156 1012.72 272.783C1012.44 272.502 1011.88 272.502 1011.6 272.783C1011.23 273.156 1011.23 273.623 1011.6 273.996Z" fill="#B0BADB"/>
<path d="M1070.02 221.441C1070.39 221.721 1070.86 221.721 1071.23 221.441C1071.51 221.068 1071.51 220.601 1071.23 220.228C1070.86 219.948 1070.39 219.948 1070.02 220.228C1069.74 220.601 1069.74 221.068 1070.02 221.441Z" fill="#B0BADB"/>
<path d="M1000.41 229.282C1000.69 229.656 1001.25 229.656 1001.62 229.282C1001.9 229.002 1001.9 228.442 1001.62 228.162C1001.25 227.789 1000.69 227.789 1000.41 228.162C1000.03 228.442 1000.03 229.002 1000.41 229.282Z" fill="#B0BADB"/>
<path d="M1028.03 126.695C1028.21 126.882 1028.49 126.882 1028.59 126.695C1028.77 126.602 1028.77 126.322 1028.59 126.135C1028.49 125.948 1028.21 125.948 1028.03 126.135C1027.84 126.322 1027.84 126.602 1028.03 126.695Z" fill="#B0BADB"/>
<path d="M1019.81 207.159C1020.19 207.533 1020.65 207.533 1021.03 207.159C1021.31 206.879 1021.31 206.319 1021.03 206.039C1020.65 205.666 1020.19 205.666 1019.81 206.039C1019.53 206.319 1019.53 206.879 1019.81 207.159Z" fill="#B0BADB"/>
<path d="M1023.55 306.293C1024.29 307.04 1025.41 307.04 1026.07 306.293C1026.72 305.64 1026.72 304.52 1026.07 303.773C1025.41 303.12 1024.29 303.12 1023.55 303.773C1022.89 304.52 1022.89 305.64 1023.55 306.293Z" fill="#B0BADB"/>
<path d="M606.355 8.23777C607.102 8.98455 608.222 8.98455 608.875 8.23777C609.528 7.58434 609.528 6.46421 608.875 5.81078C608.222 5.064 607.102 5.064 606.355 5.81078C605.702 6.46421 605.702 7.58434 606.355 8.23777Z" fill="#B0BADB"/>
<path d="M1080.28 256.26C1080.56 256.54 1081.12 256.54 1081.4 256.26C1081.77 255.886 1081.77 255.42 1081.4 255.046C1081.12 254.766 1080.56 254.766 1080.28 255.046C1079.91 255.42 1079.91 255.886 1080.28 256.26Z" fill="#B0BADB"/>
<path d="M929.21 266.809C929.49 267.089 930.05 267.089 930.33 266.809C930.703 266.435 930.703 265.968 930.33 265.595C930.05 265.315 929.49 265.315 929.21 265.595C928.837 265.968 928.837 266.435 929.21 266.809Z" fill="#B0BADB"/>
<path d="M1027.65 241.605C1027.75 241.698 1028.03 241.698 1028.21 241.605C1028.4 241.418 1028.4 241.138 1028.21 240.951C1028.03 240.858 1027.75 240.858 1027.65 240.951C1027.47 241.138 1027.47 241.418 1027.65 241.605Z" fill="#B0BADB"/>
<path d="M1036.8 241.978C1036.98 242.165 1037.26 242.165 1037.45 241.978C1037.54 241.791 1037.54 241.511 1037.45 241.325C1037.26 241.231 1036.98 241.231 1036.8 241.325C1036.7 241.511 1036.7 241.791 1036.8 241.978Z" fill="#B0BADB"/>
<path d="M1025.04 234.604C1025.41 234.977 1025.88 234.977 1026.25 234.604C1026.53 234.324 1026.53 233.764 1026.25 233.484C1025.88 233.11 1025.41 233.11 1025.04 233.484C1024.76 233.764 1024.76 234.324 1025.04 234.604Z" fill="#B0BADB"/>
<path d="M851.016 222.188C851.016 221.255 850.269 220.415 849.243 220.415C848.31 220.415 847.47 221.255 847.47 222.188C847.47 223.215 848.31 223.962 849.243 223.962C850.269 223.962 851.016 223.215 851.016 222.188Z" fill="#B0BADB"/>
<path d="M850.643 233.67C851.576 234.603 853.162 234.603 854.095 233.67C855.121 232.643 855.121 231.056 854.095 230.123C853.162 229.096 851.576 229.096 850.643 230.123C849.616 231.056 849.616 232.643 850.643 233.67Z" fill="#B0BADB"/>
<path d="M890.113 245.898C890.766 246.645 891.886 246.645 892.539 245.898C893.285 245.244 893.285 244.124 892.539 243.471C891.886 242.724 890.766 242.724 890.113 243.471C889.366 244.124 889.366 245.244 890.113 245.898Z" fill="#B0BADB"/>
<path d="M857.268 277.636C857.454 277.823 857.734 277.823 857.827 277.636C858.014 277.45 858.014 277.263 857.827 277.076C857.734 276.89 857.454 276.89 857.268 277.076C857.081 277.263 857.081 277.45 857.268 277.636Z" fill="#B0BADB"/>
<path d="M823.209 277.076C823.489 277.45 824.049 277.45 824.329 277.076C824.702 276.796 824.702 276.236 824.329 275.956C824.049 275.583 823.489 275.583 823.209 275.956C822.836 276.236 822.836 276.796 823.209 277.076Z" fill="#B0BADB"/>
<path d="M812.012 232.456C812.292 232.83 812.852 232.83 813.225 232.456C813.505 232.176 813.505 231.616 813.225 231.243C812.852 230.963 812.292 230.963 812.012 231.243C811.732 231.616 811.732 232.176 812.012 232.456Z" fill="#B0BADB"/>
<path d="M831.421 210.333C831.794 210.707 832.26 210.707 832.634 210.333C832.914 210.053 832.914 209.493 832.634 209.213C832.26 208.84 831.794 208.84 831.421 209.213C831.141 209.493 831.141 210.053 831.421 210.333Z" fill="#B0BADB"/>
<path d="M845.324 238.057C845.977 238.71 847.097 238.71 847.843 238.057C848.496 237.31 848.496 236.19 847.843 235.536C847.097 234.883 845.977 234.883 845.324 235.536C844.671 236.19 844.671 237.31 845.324 238.057Z" fill="#B0BADB"/>
<path d="M861.84 247.952C862.213 248.232 862.773 248.232 863.053 247.952C863.426 247.579 863.426 247.112 863.053 246.739C862.773 246.459 862.213 246.459 861.84 246.739C861.56 247.112 861.56 247.579 861.84 247.952Z" fill="#B0BADB"/>
<path d="M850.829 251.966C851.109 252.246 851.669 252.246 851.949 251.966C852.322 251.592 852.322 251.126 851.949 250.752C851.669 250.472 851.109 250.472 850.829 250.752C850.456 251.126 850.456 251.592 850.829 251.966Z" fill="#B0BADB"/>
<path d="M839.259 244.685C839.352 244.872 839.632 244.872 839.819 244.685C840.005 244.592 840.005 244.312 839.819 244.125C839.632 243.938 839.352 243.938 839.259 244.125C839.072 244.312 839.072 244.592 839.259 244.685Z" fill="#B0BADB"/>
<path d="M848.496 245.152C848.59 245.245 848.87 245.245 849.056 245.152C849.243 244.965 849.243 244.685 849.056 244.498C848.87 244.312 848.59 244.312 848.496 244.498C848.31 244.685 848.31 244.965 848.496 245.152Z" fill="#B0BADB"/>
<path d="M836.646 237.778C837.019 238.151 837.486 238.151 837.859 237.778C838.139 237.498 838.139 236.937 837.859 236.657C837.486 236.284 837.019 236.284 836.646 236.657C836.366 236.937 836.366 237.498 836.646 237.778Z" fill="#B0BADB"/>
<path d="M1077.85 136.216C1078.51 136.869 1079.63 136.869 1080.37 136.216C1081.03 135.563 1081.03 134.442 1080.37 133.696C1079.63 133.042 1078.51 133.042 1077.85 133.696C1077.11 134.442 1077.11 135.563 1077.85 136.216Z" fill="#B0BADB"/>
<path d="M1080.19 189.984C1080.93 190.731 1082.05 190.731 1082.71 189.984C1083.45 189.33 1083.45 188.21 1082.71 187.557C1082.05 186.81 1080.93 186.81 1080.19 187.557C1079.53 188.21 1079.53 189.33 1080.19 189.984Z" fill="#B0BADB"/>
<path d="M1072.63 112.133C1073.09 112.693 1073.93 112.693 1074.4 112.133C1074.96 111.666 1074.96 110.826 1074.4 110.266C1073.93 109.799 1073.09 109.799 1072.63 110.266C1072.07 110.826 1072.07 111.666 1072.63 112.133Z" fill="#B0BADB"/>
<path d="M1081.21 131.735C1081.49 132.015 1082.05 132.015 1082.33 131.735C1082.71 131.362 1082.71 130.895 1082.33 130.522C1082.05 130.242 1081.49 130.242 1081.21 130.522C1080.84 130.895 1080.84 131.362 1081.21 131.735Z" fill="#B0BADB"/>
<path d="M1094.37 146.11C1094.74 146.39 1095.21 146.39 1095.58 146.11C1095.86 145.737 1095.86 145.27 1095.58 144.897C1095.21 144.617 1094.74 144.617 1094.37 144.897C1094.09 145.27 1094.09 145.737 1094.37 146.11Z" fill="#B0BADB"/>
<path d="M1132.07 196.984C1132.35 197.264 1132.91 197.264 1133.19 196.984C1133.56 196.611 1133.56 196.144 1133.19 195.771C1132.91 195.491 1132.35 195.491 1132.07 195.771C1131.69 196.144 1131.69 196.611 1132.07 196.984Z" fill="#B0BADB"/>
<path d="M1083.36 150.125C1083.64 150.405 1084.2 150.405 1084.48 150.125C1084.85 149.752 1084.85 149.285 1084.48 148.911C1084.2 148.631 1083.64 148.631 1083.36 148.911C1082.99 149.285 1082.99 149.752 1083.36 150.125Z" fill="#B0BADB"/>
<path d="M1071.7 142.937C1071.88 143.03 1072.16 143.03 1072.35 142.937C1072.54 142.75 1072.54 142.47 1072.35 142.283C1072.16 142.19 1071.88 142.19 1071.7 142.283C1071.6 142.47 1071.6 142.75 1071.7 142.937Z" fill="#B0BADB"/>
<path d="M1055.83 108.679C1056.02 108.772 1056.21 108.772 1056.39 108.679C1056.58 108.492 1056.58 108.212 1056.39 108.026C1056.21 107.932 1056.02 107.932 1055.83 108.026C1055.65 108.212 1055.65 108.492 1055.83 108.679Z" fill="#B0BADB"/>
<path d="M1104.26 102.144C1104.35 102.237 1104.63 102.237 1104.82 102.144C1105.01 101.957 1105.01 101.677 1104.82 101.49C1104.63 101.397 1104.35 101.397 1104.26 101.49C1104.07 101.677 1104.07 101.957 1104.26 102.144Z" fill="#B0BADB"/>
<path d="M1080.93 143.31C1081.12 143.403 1081.4 143.403 1081.59 143.31C1081.68 143.123 1081.68 142.843 1081.59 142.656C1081.4 142.563 1081.12 142.563 1080.93 142.656C1080.84 142.843 1080.84 143.123 1080.93 143.31Z" fill="#B0BADB"/>
<path d="M1069.18 135.936C1069.55 136.309 1070.02 136.309 1070.39 135.936C1070.67 135.656 1070.67 135.096 1070.39 134.816C1070.02 134.442 1069.55 134.442 1069.18 134.816C1068.9 135.096 1068.9 135.656 1069.18 135.936Z" fill="#B0BADB"/>
<path d="M1012.44 136.496C1012.72 136.776 1013.28 136.776 1013.56 136.496C1013.94 136.123 1013.94 135.656 1013.56 135.283C1013.28 135.002 1012.72 135.002 1012.44 135.283C1012.07 135.656 1012.07 136.123 1012.44 136.496Z" fill="#B0BADB"/>
<path d="M1095.58 108.398C1095.96 108.678 1096.42 108.678 1096.8 108.398C1097.08 108.025 1097.08 107.558 1096.8 107.185C1096.42 106.905 1095.96 106.905 1095.58 107.185C1095.3 107.558 1095.3 108.025 1095.58 108.398Z" fill="#B0BADB"/>
<path d="M989.115 59.5786C989.769 60.3254 990.888 60.3254 991.635 59.5786C992.288 58.9252 992.288 57.805 991.635 57.0582C990.888 56.4048 989.769 56.4048 989.115 57.0582C988.462 57.805 988.462 58.9252 989.115 59.5786Z" fill="#B0BADB"/>
<path d="M907.749 66.486C907.935 66.6726 908.215 66.6726 908.309 66.486C908.495 66.2993 908.495 66.0192 908.309 65.9259C908.215 65.7392 907.935 65.7392 907.749 65.9259C907.562 66.0192 907.562 66.2993 907.749 66.486Z" fill="#B0BADB"/>
<path d="M1272.31 284.358C1273.06 285.011 1274.18 285.011 1274.83 284.358C1275.49 283.611 1275.49 282.491 1274.83 281.837C1274.18 281.09 1273.06 281.09 1272.31 281.837C1271.66 282.491 1271.66 283.611 1272.31 284.358Z" fill="#B0BADB"/>
<path d="M1258.22 270.541C1258.88 271.288 1260 271.288 1260.74 270.541C1261.4 269.888 1261.4 268.768 1260.74 268.114C1260 267.368 1258.88 267.368 1258.22 268.114C1257.48 268.768 1257.48 269.888 1258.22 270.541Z" fill="#B0BADB"/>
<path d="M1260.65 171.874C1260.93 172.248 1261.49 172.248 1261.77 171.874C1262.14 171.594 1262.14 171.034 1261.77 170.754C1261.49 170.381 1260.93 170.381 1260.65 170.754C1260.28 171.034 1260.28 171.594 1260.65 171.874Z" fill="#B0BADB"/>
<path d="M1285.94 178.129C1286.22 178.409 1286.78 178.409 1287.15 178.129C1287.43 177.755 1287.43 177.195 1287.15 176.915C1286.78 176.542 1286.22 176.542 1285.94 176.915C1285.66 177.195 1285.66 177.755 1285.94 178.129Z" fill="#B0BADB"/>
<path d="M1354.89 195.117C1354.89 193.717 1353.77 192.597 1352.47 192.597C1351.07 192.597 1349.95 193.717 1349.95 195.117C1349.95 196.518 1351.07 197.638 1352.47 197.638C1353.77 197.638 1354.89 196.518 1354.89 195.117Z" fill="white"/>
<path d="M1352.47 242.352C1352.47 240.951 1351.35 239.831 1349.95 239.831C1348.55 239.831 1347.43 240.951 1347.43 242.352C1347.43 243.752 1348.55 244.872 1349.95 244.872C1351.35 244.872 1352.47 243.752 1352.47 242.352Z" fill="#B0BADB"/>
<path d="M1387.46 184.849C1387.46 183.916 1386.62 183.076 1385.69 183.076C1384.66 183.076 1383.91 183.916 1383.91 184.849C1383.91 185.783 1384.66 186.623 1385.69 186.623C1386.62 186.623 1387.46 185.783 1387.46 184.849Z" fill="#B0BADB"/>
<path d="M1402.95 311.614C1402.95 310.681 1402.11 309.841 1401.18 309.841C1400.15 309.841 1399.4 310.681 1399.4 311.614C1399.4 312.641 1400.15 313.388 1401.18 313.388C1402.11 313.388 1402.95 312.641 1402.95 311.614Z" fill="#B0BADB"/>
<path d="M1404.25 236.751C1404.25 235.817 1403.41 234.977 1402.48 234.977C1401.55 234.977 1400.71 235.817 1400.71 236.751C1400.71 237.684 1401.55 238.524 1402.48 238.524C1403.41 238.524 1404.25 237.684 1404.25 236.751Z" fill="#B0BADB"/>
<path d="M1357.97 204.919C1357.97 204.452 1357.6 204.079 1357.13 204.079C1356.67 204.079 1356.29 204.452 1356.29 204.919C1356.29 205.385 1356.67 205.759 1357.13 205.759C1357.6 205.759 1357.97 205.385 1357.97 204.919Z" fill="#B0BADB"/>
<path d="M1365.34 258.687C1365.34 258.22 1364.97 257.847 1364.5 257.847C1364.04 257.847 1363.66 258.22 1363.66 258.687C1363.66 259.154 1364.04 259.527 1364.5 259.527C1364.97 259.527 1365.34 259.154 1365.34 258.687Z" fill="#B0BADB"/>
<path d="M1299.37 317.962C1299.37 317.495 1299 317.122 1298.53 317.122C1298.07 317.122 1297.69 317.495 1297.69 317.962C1297.69 318.428 1298.07 318.802 1298.53 318.802C1299 318.802 1299.37 318.428 1299.37 317.962Z" fill="#B0BADB"/>
<path d="M1402.48 323.002C1403.41 324.029 1405 324.029 1406.03 323.002C1406.96 322.069 1406.96 320.482 1406.03 319.549C1405 318.522 1403.41 318.522 1402.48 319.549C1401.55 320.482 1401.55 322.069 1402.48 323.002Z" fill="#B0BADB"/>
<path d="M1474.61 294.719C1475.64 295.746 1477.22 295.746 1478.16 294.719C1479.18 293.786 1479.18 292.199 1478.16 291.172C1477.22 290.239 1475.64 290.239 1474.61 291.172C1473.68 292.199 1473.68 293.786 1474.61 294.719Z" fill="#B0BADB"/>
<path d="M37.6274 238.711C38.5605 239.644 40.1468 239.644 41.1732 238.711C42.1063 237.778 42.1063 236.191 41.1732 235.164C40.1468 234.23 38.5605 234.23 37.6274 235.164C36.6943 236.191 36.6943 237.778 37.6274 238.711Z" fill="#B0BADB"/>
<path d="M1441.95 335.325C1442.6 336.071 1443.72 336.071 1444.47 335.325C1445.12 334.671 1445.12 333.551 1444.47 332.804C1443.72 332.151 1442.6 332.151 1441.95 332.804C1441.3 333.551 1441.3 334.671 1441.95 335.325Z" fill="#B0BADB"/>
<path d="M1453.99 292.291C1454.27 292.665 1454.83 292.665 1455.2 292.291C1455.48 292.011 1455.48 291.451 1455.2 291.171C1454.83 290.798 1454.27 290.798 1453.99 291.171C1453.62 291.451 1453.62 292.011 1453.99 292.291Z" fill="#B0BADB"/>
<path d="M1409.2 367.062C1409.29 367.249 1409.57 367.249 1409.76 367.062C1409.95 366.875 1409.95 366.595 1409.76 366.502C1409.57 366.315 1409.29 366.315 1409.2 366.502C1409.01 366.595 1409.01 366.875 1409.2 367.062Z" fill="#B0BADB"/>
<path d="M1375.05 366.502C1375.42 366.876 1375.89 366.876 1376.26 366.502C1376.54 366.222 1376.54 365.662 1376.26 365.382C1375.89 365.009 1375.42 365.009 1375.05 365.382C1374.77 365.662 1374.77 366.222 1375.05 366.502Z" fill="#B0BADB"/>
<path d="M1460.8 316.002C1461.08 316.282 1461.64 316.282 1461.92 316.002C1462.29 315.628 1462.29 315.162 1461.92 314.788C1461.64 314.508 1461.08 314.508 1460.8 314.788C1460.43 315.162 1460.43 315.628 1460.8 316.002Z" fill="#B0BADB"/>
<path d="M1363.85 321.883C1364.22 322.163 1364.78 322.163 1365.06 321.883C1365.34 321.509 1365.34 321.043 1365.06 320.669C1364.78 320.389 1364.22 320.389 1363.85 320.669C1363.57 321.043 1363.57 321.509 1363.85 321.883Z" fill="#B0BADB"/>
<path d="M1387.92 116.986C1388.2 117.266 1388.76 117.266 1389.04 116.986C1389.42 116.613 1389.42 116.053 1389.04 115.773C1388.76 115.399 1388.2 115.399 1387.92 115.773C1387.55 116.053 1387.55 116.613 1387.92 116.986Z" fill="#B0BADB"/>
<path d="M1391.56 219.294C1391.66 219.388 1391.94 219.388 1392.12 219.294C1392.31 219.108 1392.31 218.828 1392.12 218.641C1391.94 218.547 1391.66 218.547 1391.56 218.641C1391.38 218.828 1391.38 219.108 1391.56 219.294Z" fill="#B0BADB"/>
<path d="M1383.35 299.76C1383.63 300.04 1384.19 300.04 1384.47 299.76C1384.85 299.386 1384.85 298.92 1384.47 298.546C1384.19 298.266 1383.63 298.266 1383.35 298.546C1382.98 298.92 1382.98 299.386 1383.35 299.76Z" fill="#B0BADB"/>
<path d="M1397.16 327.39C1397.91 328.137 1399.03 328.137 1399.68 327.39C1400.43 326.737 1400.43 325.617 1399.68 324.963C1399.03 324.216 1397.91 324.216 1397.16 324.963C1396.51 325.617 1396.51 326.737 1397.16 327.39Z" fill="#B0BADB"/>
<path d="M1413.77 337.284C1414.05 337.658 1414.61 337.658 1414.89 337.284C1415.26 337.004 1415.26 336.444 1414.89 336.164C1414.61 335.791 1414.05 335.791 1413.77 336.164C1413.4 336.444 1413.4 337.004 1413.77 337.284Z" fill="#B0BADB"/>
<path d="M1402.67 341.299C1403.04 341.672 1403.51 341.672 1403.88 341.299C1404.16 341.019 1404.16 340.459 1403.88 340.179C1403.51 339.806 1403.04 339.806 1402.67 340.179C1402.39 340.459 1402.39 341.019 1402.67 341.299Z" fill="#B0BADB"/>
<path d="M1391.1 334.111C1391.28 334.298 1391.56 334.298 1391.66 334.111C1391.84 333.924 1391.84 333.738 1391.66 333.551C1391.56 333.364 1391.28 333.364 1391.1 333.551C1390.91 333.738 1390.91 333.924 1391.1 334.111Z" fill="#B0BADB"/>
<path d="M1400.34 334.484C1400.52 334.671 1400.71 334.671 1400.89 334.484C1401.08 334.297 1401.08 334.111 1400.89 333.924C1400.71 333.737 1400.52 333.737 1400.34 333.924C1400.15 334.111 1400.15 334.297 1400.34 334.484Z" fill="#B0BADB"/>
<path d="M1388.58 327.203C1388.86 327.483 1389.42 327.483 1389.7 327.203C1390.07 326.83 1390.07 326.363 1389.7 325.99C1389.42 325.71 1388.86 325.71 1388.58 325.99C1388.2 326.363 1388.2 326.83 1388.58 327.203Z" fill="#B0BADB"/>
<path d="M1253.56 338.498C1254.21 339.152 1255.33 339.152 1256.08 338.498C1256.73 337.845 1256.73 336.725 1256.08 335.978C1255.33 335.324 1254.21 335.324 1253.56 335.978C1252.9 336.725 1252.9 337.845 1253.56 338.498Z" fill="#B0BADB"/>
<path d="M1441.3 228.722C1442.05 229.469 1443.16 229.469 1443.82 228.722C1444.47 228.069 1444.47 226.949 1443.82 226.295C1443.16 225.548 1442.05 225.548 1441.3 226.295C1440.65 226.949 1440.65 228.069 1441.3 228.722Z" fill="#B0BADB"/>
<path d="M1443.72 282.583C1444.38 283.237 1445.5 283.237 1446.24 282.583C1446.9 281.836 1446.9 280.81 1446.24 280.063C1445.5 279.409 1444.38 279.409 1443.72 280.063C1442.98 280.81 1442.98 281.836 1443.72 282.583Z" fill="#B0BADB"/>
<path d="M1436.07 204.733C1436.63 205.2 1437.47 205.2 1437.94 204.733C1438.41 204.173 1438.41 203.333 1437.94 202.866C1437.47 202.306 1436.63 202.306 1436.07 202.866C1435.61 203.333 1435.61 204.173 1436.07 204.733Z" fill="#B0BADB"/>
<path d="M1444.66 224.242C1445.03 224.616 1445.5 224.616 1445.87 224.242C1446.15 223.962 1446.15 223.402 1445.87 223.029C1445.5 222.749 1445.03 222.749 1444.66 223.029C1444.38 223.402 1444.38 223.962 1444.66 224.242Z" fill="#B0BADB"/>
<path d="M1457.91 238.617C1458.19 238.991 1458.75 238.991 1459.03 238.617C1459.4 238.337 1459.4 237.777 1459.03 237.497C1458.75 237.124 1458.19 237.124 1457.91 237.497C1457.53 237.777 1457.53 238.337 1457.91 238.617Z" fill="#B0BADB"/>
<path d="M1509.98 296.026C1510.26 296.399 1510.81 296.399 1511.09 296.026C1511.47 295.746 1511.47 295.186 1511.09 294.905C1510.81 294.532 1510.26 294.532 1509.98 294.905C1509.6 295.186 1509.6 295.746 1509.98 296.026Z" fill="#B0BADB"/>
<path d="M1473.3 288.278C1473.68 288.558 1474.14 288.558 1474.52 288.278C1474.8 287.905 1474.8 287.438 1474.52 287.065C1474.14 286.785 1473.68 286.785 1473.3 287.065C1473.02 287.438 1473.02 287.905 1473.3 288.278Z" fill="#B0BADB"/>
<path d="M1446.8 242.631C1447.08 243.004 1447.64 243.004 1448.02 242.631C1448.3 242.351 1448.3 241.791 1448.02 241.511C1447.64 241.138 1447.08 241.138 1446.8 241.511C1446.52 241.791 1446.52 242.351 1446.8 242.631Z" fill="#B0BADB"/>
<path d="M1509.14 204.732C1509.42 205.012 1509.97 205.012 1510.25 204.732C1510.63 204.359 1510.63 203.799 1510.25 203.519C1509.97 203.145 1509.42 203.145 1509.14 203.519C1508.76 203.799 1508.76 204.359 1509.14 204.732Z" fill="#B0BADB"/>
<path d="M1435.23 235.443C1435.42 235.63 1435.7 235.63 1435.79 235.443C1435.98 235.256 1435.98 235.07 1435.79 234.883C1435.7 234.696 1435.42 234.696 1435.23 234.883C1435.05 235.07 1435.05 235.256 1435.23 235.443Z" fill="#B0BADB"/>
<path d="M1419.28 201.185C1419.46 201.372 1419.74 201.372 1419.93 201.185C1420.02 200.998 1420.02 200.812 1419.93 200.625C1419.74 200.438 1419.46 200.438 1419.28 200.625C1419.18 200.812 1419.18 200.998 1419.28 201.185Z" fill="#B0BADB"/>
<path d="M1467.71 194.651C1467.89 194.838 1468.17 194.838 1468.27 194.651C1468.45 194.464 1468.45 194.278 1468.27 194.091C1468.17 193.904 1467.89 193.904 1467.71 194.091C1467.52 194.278 1467.52 194.464 1467.71 194.651Z" fill="#B0BADB"/>
<path d="M1444.47 235.817C1444.56 236.004 1444.84 236.004 1445.03 235.817C1445.22 235.63 1445.22 235.444 1445.03 235.257C1444.84 235.07 1444.56 235.07 1444.47 235.257C1444.28 235.444 1444.28 235.63 1444.47 235.817Z" fill="#B0BADB"/>
<path d="M1432.71 228.536C1432.99 228.816 1433.55 228.816 1433.83 228.536C1434.21 228.163 1434.21 227.696 1433.83 227.323C1433.55 227.043 1432.99 227.043 1432.71 227.323C1432.34 227.696 1432.34 228.163 1432.71 228.536Z" fill="#B0BADB"/>
<path d="M1375.89 229.002C1376.17 229.376 1376.73 229.376 1377.1 229.002C1377.38 228.722 1377.38 228.162 1377.1 227.882C1376.73 227.509 1376.17 227.509 1375.89 227.882C1375.61 228.162 1375.61 228.722 1375.89 229.002Z" fill="#B0BADB"/>
<path d="M1459.12 200.906C1459.4 201.279 1459.96 201.279 1460.24 200.906C1460.61 200.625 1460.61 200.065 1460.24 199.785C1459.96 199.412 1459.4 199.412 1459.12 199.785C1458.75 200.065 1458.75 200.625 1459.12 200.906Z" fill="#B0BADB"/>
<path d="M1352.56 152.178C1353.31 152.831 1354.43 152.831 1355.08 152.178C1355.73 151.431 1355.73 150.311 1355.08 149.658C1354.43 149.004 1353.31 149.004 1352.56 149.658C1351.91 150.311 1351.91 151.431 1352.56 152.178Z" fill="#B0BADB"/>
<path d="M1271.19 158.993C1271.38 159.179 1271.66 159.179 1271.85 158.993C1272.03 158.899 1272.03 158.619 1271.85 158.433C1271.66 158.246 1271.38 158.246 1271.19 158.433C1271.1 158.619 1271.1 158.899 1271.19 158.993Z" fill="#B0BADB"/>
<path d="M47.7984 113.813C48.5448 114.56 49.6646 114.56 50.3177 113.813C50.9709 113.16 50.9709 112.039 50.3177 111.386C49.6646 110.639 48.5448 110.639 47.7984 111.386C47.1452 112.039 47.1452 113.16 47.7984 113.813Z" fill="#B0BADB"/>
<path d="M33.7084 100.09C34.3616 100.837 35.4813 100.837 36.1345 100.09C36.881 99.4369 36.881 98.3167 36.1345 97.6633C35.4813 96.9165 34.3616 96.9165 33.7084 97.6633C32.9619 98.3167 32.9619 99.4369 33.7084 100.09Z" fill="#B0BADB"/>
<path d="M36.1345 1.42308C36.4145 1.79647 36.9743 1.79647 37.2543 1.42308C37.6275 1.14304 37.6275 0.582975 37.2543 0.209588C36.9743 -0.0704523 36.4145 -0.0704523 36.1345 0.209588C35.7613 0.582975 35.7613 1.14304 36.1345 1.42308Z" fill="#B0BADB"/>
<path d="M61.4217 7.58422C61.7016 7.9576 62.2615 7.9576 62.6347 7.58422C62.9146 7.30418 62.9146 6.74409 62.6347 6.46404C62.2615 6.09066 61.7016 6.09066 61.4217 6.46404C61.0484 6.74409 61.0484 7.30418 61.4217 7.58422Z" fill="#B0BADB"/>
<path d="M130.378 24.6667C130.378 23.2665 129.258 22.1464 127.859 22.1464C126.552 22.1464 125.433 23.2665 125.433 24.6667C125.433 25.9736 126.552 27.0938 127.859 27.0938C129.258 27.0938 130.378 25.9736 130.378 24.6667Z" fill="#B0BADB"/>
<path d="M127.859 71.9002C127.859 70.5 126.739 69.3798 125.433 69.3798C124.033 69.3798 122.913 70.5 122.913 71.9002C122.913 73.207 124.033 74.3271 125.433 74.3271C126.739 74.3271 127.859 73.207 127.859 71.9002Z" fill="#B0BADB"/>
<path d="M162.944 14.3983C162.944 13.3714 162.104 12.6247 161.171 12.6247C160.144 12.6247 159.398 13.3714 159.398 14.3983C159.398 15.3317 160.144 16.1719 161.171 16.1719C162.104 16.1719 162.944 15.3317 162.944 14.3983Z" fill="#B0BADB"/>
<path d="M178.34 141.163C178.34 140.136 177.593 139.389 176.66 139.389C175.634 139.389 174.887 140.136 174.887 141.163C174.887 142.096 175.634 142.937 176.66 142.937C177.593 142.937 178.34 142.096 178.34 141.163Z" fill="#B0BADB"/>
<path d="M179.74 66.2997C179.74 65.2728 178.9 64.526 177.967 64.526C176.94 64.526 176.194 65.2728 176.194 66.2997C176.194 67.2331 176.94 68.0732 177.967 68.0732C178.9 68.0732 179.74 67.2331 179.74 66.2997Z" fill="#B0BADB"/>
<path d="M133.364 34.4675C133.364 34.0008 132.991 33.6274 132.524 33.6274C132.151 33.6274 131.778 34.0008 131.778 34.4675C131.778 34.9342 132.151 35.3076 132.524 35.3076C132.991 35.3076 133.364 34.9342 133.364 34.4675Z" fill="#B0BADB"/>
<path d="M140.829 88.2357C140.829 87.7689 140.456 87.3955 139.989 87.3955C139.523 87.3955 139.149 87.7689 139.149 88.2357C139.149 88.609 139.523 88.9824 139.989 88.9824C140.456 88.9824 140.829 88.609 140.829 88.2357Z" fill="#B0BADB"/>
<path d="M74.8584 147.51C74.8584 147.044 74.4852 146.67 74.0186 146.67C73.5521 146.67 73.1788 147.044 73.1788 147.51C73.1788 147.977 73.5521 148.351 74.0186 148.351C74.4852 148.351 74.8584 147.977 74.8584 147.51Z" fill="#B0BADB"/>
<path d="M177.967 152.551C178.9 153.578 180.486 153.578 181.512 152.551C182.445 151.618 182.445 150.031 181.512 149.004C180.486 148.071 178.9 148.071 177.967 149.004C176.94 150.031 176.94 151.618 177.967 152.551Z" fill="#B0BADB"/>
<path d="M250.096 124.268C251.122 125.201 252.708 125.201 253.642 124.268C254.575 123.241 254.575 121.747 253.642 120.721C252.708 119.787 251.122 119.787 250.096 120.721C249.163 121.747 249.163 123.241 250.096 124.268Z" fill="#B0BADB"/>
<path d="M217.437 164.873C218.09 165.527 219.21 165.527 219.956 164.873C220.609 164.22 220.609 163.1 219.956 162.353C219.21 161.699 218.09 161.699 217.437 162.353C216.69 163.1 216.69 164.22 217.437 164.873Z" fill="#B0BADB"/>
<path d="M229.474 121.841C229.754 122.121 230.314 122.121 230.594 121.841C230.967 121.467 230.967 121.001 230.594 120.627C230.314 120.347 229.754 120.347 229.474 120.627C229.101 121.001 229.101 121.467 229.474 121.841Z" fill="#B0BADB"/>
<path d="M184.592 196.612C184.778 196.705 185.058 196.705 185.245 196.612C185.338 196.425 185.338 196.145 185.245 195.958C185.058 195.865 184.778 195.865 184.592 195.958C184.498 196.145 184.498 196.425 184.592 196.612Z" fill="#B0BADB"/>
<path d="M150.533 196.051C150.813 196.331 151.373 196.331 151.746 196.051C152.026 195.677 152.026 195.211 151.746 194.837C151.373 194.557 150.813 194.557 150.533 194.837C150.16 195.211 150.16 195.677 150.533 196.051Z" fill="#B0BADB"/>
<path d="M236.192 145.551C236.566 145.831 237.125 145.831 237.405 145.551C237.779 145.177 237.779 144.711 237.405 144.337C237.125 144.057 236.566 144.057 236.192 144.337C235.912 144.711 235.912 145.177 236.192 145.551Z" fill="#B0BADB"/>
<path d="M139.336 151.432C139.709 151.712 140.176 151.712 140.549 151.432C140.829 151.058 140.829 150.498 140.549 150.218C140.176 149.845 139.709 149.845 139.336 150.218C139.056 150.498 139.056 151.058 139.336 151.432Z" fill="#B0BADB"/>
<path d="M166.956 48.8431C167.143 48.9364 167.423 48.9364 167.609 48.8431C167.796 48.6564 167.796 48.3763 167.609 48.1896C167.423 48.0029 167.143 48.0029 166.956 48.1896C166.863 48.3763 166.863 48.6564 166.956 48.8431Z" fill="#B0BADB"/>
<path d="M158.838 129.309C159.118 129.589 159.678 129.589 159.958 129.309C160.331 128.935 160.331 128.375 159.958 128.095C159.678 127.815 159.118 127.815 158.838 128.095C158.465 128.375 158.465 128.935 158.838 129.309Z" fill="#B0BADB"/>
<path d="M172.648 156.939C173.394 157.686 174.514 157.686 175.167 156.939C175.82 156.286 175.82 155.165 175.167 154.512C174.514 153.765 173.394 153.765 172.648 154.512C171.995 155.165 171.995 156.286 172.648 156.939Z" fill="#B0BADB"/>
<path d="M189.257 166.833C189.537 167.207 190.097 167.207 190.377 166.833C190.75 166.553 190.75 165.993 190.377 165.713C190.097 165.34 189.537 165.34 189.257 165.713C188.884 165.993 188.884 166.553 189.257 166.833Z" fill="#B0BADB"/>
<path d="M178.153 170.848C178.526 171.221 178.993 171.221 179.366 170.848C179.646 170.568 179.646 170.008 179.366 169.728C178.993 169.354 178.526 169.354 178.153 169.728C177.873 170.008 177.873 170.568 178.153 170.848Z" fill="#B0BADB"/>
<path d="M166.583 163.66C166.769 163.846 167.049 163.846 167.143 163.66C167.329 163.473 167.329 163.193 167.143 163.1C167.049 162.913 166.769 162.913 166.583 163.1C166.396 163.193 166.396 163.473 166.583 163.66Z" fill="#B0BADB"/>
<path d="M175.82 164.033C176.007 164.22 176.194 164.22 176.38 164.033C176.567 163.846 176.567 163.566 176.38 163.473C176.194 163.286 176.007 163.286 175.82 163.473C175.634 163.566 175.634 163.846 175.82 164.033Z" fill="#B0BADB"/>
<path d="M164.063 156.752C164.343 157.032 164.903 157.032 165.183 156.752C165.556 156.378 165.556 155.912 165.183 155.538C164.903 155.258 164.343 155.258 164.063 155.538C163.69 155.912 163.69 156.378 164.063 156.752Z" fill="#B0BADB"/>
<path d="M29.0429 168.047C29.6961 168.7 30.8158 168.7 31.5623 168.047C32.2155 167.3 32.2155 166.18 31.5623 165.527C30.8158 164.873 29.6961 164.873 29.0429 165.527C28.2964 166.18 28.2964 167.3 29.0429 168.047Z" fill="#B0BADB"/>
<path d="M54.1434 246.085C54.8899 246.739 56.0097 246.739 56.6628 246.085C57.4093 245.338 57.4093 244.218 56.6628 243.565C56.0097 242.911 54.8899 242.911 54.1434 243.565C53.4903 244.218 53.4903 245.338 54.1434 246.085Z" fill="#B0BADB"/>
<path d="M885.261 313.108C885.914 313.855 887.034 313.855 887.687 313.108C888.433 312.454 888.433 311.334 887.687 310.588C887.034 309.934 885.914 309.934 885.261 310.588C884.514 311.334 884.514 312.454 885.261 313.108Z" fill="#B0BADB"/>
<path d="M216.784 58.271C217.53 59.0177 218.65 59.0177 219.303 58.271C219.956 57.6175 219.956 56.4974 219.303 55.7506C218.65 55.0972 217.53 55.0972 216.784 55.7506C216.131 56.4974 216.131 57.6175 216.784 58.271Z" fill="#B0BADB"/>
<path d="M219.21 112.132C219.863 112.785 220.983 112.785 221.636 112.132C222.382 111.385 222.382 110.265 221.636 109.612C220.983 108.958 219.863 108.958 219.21 109.612C218.463 110.265 218.463 111.385 219.21 112.132Z" fill="white"/>
<path d="M211.558 34.1883C212.118 34.7484 212.865 34.7484 213.425 34.1883C213.891 33.7216 213.891 32.8815 213.425 32.4148C212.865 31.8547 212.118 31.8547 211.558 32.4148C211.092 32.8815 211.092 33.7216 211.558 34.1883Z" fill="#B0BADB"/>
<path d="M220.143 53.7909C220.423 54.071 220.983 54.071 221.356 53.7909C221.636 53.4176 221.636 52.9508 221.356 52.5774C220.983 52.2974 220.423 52.2974 220.143 52.5774C219.77 52.9508 219.77 53.4176 220.143 53.7909Z" fill="#B0BADB"/>
<path d="M233.393 68.1662C233.673 68.5396 234.233 68.5396 234.513 68.1662C234.886 67.8862 234.886 67.3261 234.513 66.9527C234.233 66.6727 233.673 66.6727 233.393 66.9527C233.02 67.3261 233.02 67.8862 233.393 68.1662Z" fill="#B0BADB"/>
<path d="M248.789 117.827C249.069 118.107 249.629 118.107 250.002 117.827C250.282 117.454 250.282 116.987 250.002 116.614C249.629 116.334 249.069 116.334 248.789 116.614C248.509 116.987 248.509 117.454 248.789 117.827Z" fill="#B0BADB"/>
<path d="M222.289 72.1799C222.569 72.5533 223.129 72.5533 223.502 72.1799C223.782 71.8999 223.782 71.3398 223.502 71.0597C223.129 70.6864 222.569 70.6864 222.289 71.0597C221.916 71.3398 221.916 71.8999 222.289 72.1799Z" fill="#B0BADB"/>
</g>
</svg>
