<svg width="1156" height="368" viewBox="0 0 1156 368" fill="none" xmlns="http://www.w3.org/2000/svg">
<g opacity="0.2">
<path d="M149.86 268.819C150.42 269.379 151.353 269.379 151.913 268.819C152.379 268.352 152.379 267.419 151.913 266.859C151.353 266.299 150.42 266.299 149.86 266.859C149.3 267.419 149.3 268.352 149.86 268.819Z" fill="#B0BADB"/>
<path d="M109.643 260.792C110.203 261.352 111.136 261.352 111.696 260.792C112.256 260.325 112.256 259.392 111.696 258.832C111.136 258.271 110.203 258.271 109.643 258.832C109.083 259.392 109.083 260.325 109.643 260.792Z" fill="#B0BADB"/>
<path d="M127.745 283.381C128.119 283.754 128.772 283.754 129.145 283.381C129.518 283.008 129.518 282.354 129.145 281.981C128.772 281.608 128.119 281.608 127.745 281.981C127.372 282.354 127.372 283.008 127.745 283.381Z" fill="#B0BADB"/>
<path d="M105.351 302.704C105.724 303.078 106.284 303.078 106.751 302.704C107.124 302.331 107.124 301.678 106.751 301.304C106.284 300.931 105.724 300.931 105.351 301.304C104.884 301.678 104.884 302.331 105.351 302.704Z" fill="#B0BADB"/>
<path d="M121.12 219.906C121.307 220.093 121.587 220.093 121.774 219.906C121.96 219.719 121.96 219.439 121.774 219.252C121.587 219.066 121.307 219.066 121.12 219.252C120.934 219.439 120.934 219.719 121.12 219.906Z" fill="#B0BADB"/>
<path d="M135.397 223.36C135.583 223.547 135.863 223.547 136.05 223.36C136.237 223.173 136.237 222.893 136.05 222.707C135.863 222.52 135.583 222.52 135.397 222.707C135.21 222.893 135.21 223.173 135.397 223.36Z" fill="#B0BADB"/>
<path d="M161.524 282.075C161.71 282.262 161.99 282.262 162.177 282.075C162.364 281.888 162.364 281.608 162.177 281.421C161.99 281.235 161.71 281.235 161.524 281.421C161.337 281.608 161.337 281.888 161.524 282.075Z" fill="#B0BADB"/>
<path d="M156.112 245.389C156.298 245.576 156.578 245.576 156.765 245.389C156.952 245.203 156.952 244.923 156.765 244.736C156.578 244.549 156.298 244.549 156.112 244.736C155.925 244.923 155.925 245.203 156.112 245.389Z" fill="#B0BADB"/>
<path d="M144.355 202.077C144.541 202.263 144.821 202.263 145.008 202.077C145.194 201.89 145.194 201.61 145.008 201.423C144.821 201.237 144.541 201.237 144.355 201.423C144.168 201.61 144.168 201.89 144.355 202.077Z" fill="#B0BADB"/>
<path d="M162.55 249.59C162.737 249.777 163.017 249.777 163.203 249.59C163.39 249.404 163.39 249.124 163.203 248.937C163.017 248.75 162.737 248.75 162.55 248.937C162.364 249.124 162.364 249.404 162.55 249.59Z" fill="#B0BADB"/>
<path d="M125.599 317.267C126.532 318.2 128.119 318.2 129.145 317.267C130.078 316.24 130.078 314.746 129.145 313.72C128.119 312.786 126.532 312.786 125.599 313.72C124.573 314.746 124.573 316.24 125.599 317.267Z" fill="#B0BADB"/>
<path d="M176.174 353.392C177.107 354.419 178.693 354.419 179.719 353.392C180.652 352.459 180.652 350.872 179.719 349.938C178.693 348.911 177.107 348.911 176.174 349.938C175.147 350.872 175.147 352.459 176.174 353.392Z" fill="#B0BADB"/>
<path d="M62.6146 236.615C63.641 237.641 65.2273 237.641 66.1604 236.615C67.1868 235.681 67.1868 234.094 66.1604 233.067C65.2273 232.134 63.641 232.134 62.6146 233.067C61.6815 234.094 61.6815 235.681 62.6146 236.615Z" fill="#B0BADB"/>
<path d="M109.83 347.511C110.576 348.164 111.696 348.164 112.349 347.511C113.002 346.857 113.002 345.737 112.349 344.991C111.696 344.337 110.576 344.337 109.83 344.991C109.177 345.737 109.177 346.857 109.83 347.511Z" fill="white"/>
<path d="M296.917 268.726C297.571 269.379 298.69 269.379 299.437 268.726C300.09 267.979 300.09 266.859 299.437 266.205C298.69 265.552 297.571 265.552 296.917 266.205C296.264 266.859 296.264 267.979 296.917 268.726Z" fill="#B0BADB"/>
<path d="M251.382 100.609C252.035 101.356 253.155 101.356 253.901 100.609C254.554 99.9554 254.554 98.8353 253.901 98.0885C253.155 97.4351 252.035 97.4351 251.382 98.0885C250.729 98.8353 250.729 99.9554 251.382 100.609Z" fill="#B0BADB"/>
<path d="M282.828 255.004C283.481 255.657 284.6 255.657 285.254 255.004C286 254.257 286 253.137 285.254 252.484C284.6 251.737 283.481 251.737 282.828 252.484C282.081 253.137 282.081 254.257 282.828 255.004Z" fill="#B0BADB"/>
<path d="M141.835 278.061C142.582 278.714 143.701 278.714 144.355 278.061C145.101 277.407 145.101 276.287 144.355 275.54C143.701 274.887 142.582 274.887 141.835 275.54C141.182 276.287 141.182 277.407 141.835 278.061Z" fill="#B0BADB"/>
<path d="M136.703 253.977C137.17 254.444 138.01 254.444 138.476 253.977C139.036 253.51 139.036 252.67 138.476 252.11C138.01 251.643 137.17 251.643 136.703 252.11C136.143 252.67 136.143 253.51 136.703 253.977Z" fill="#B0BADB"/>
<path d="M147.061 228.587C147.527 229.054 148.367 229.054 148.834 228.587C149.393 228.027 149.393 227.281 148.834 226.721C148.367 226.254 147.527 226.254 147.061 226.721C146.501 227.281 146.501 228.027 147.061 228.587Z" fill="#B0BADB"/>
<path d="M116.548 312.412C116.828 312.786 117.388 312.786 117.668 312.412C118.041 312.132 118.041 311.572 117.668 311.292C117.388 310.919 116.828 310.919 116.548 311.292C116.175 311.572 116.175 312.132 116.548 312.412Z" fill="#B0BADB"/>
<path d="M145.194 273.58C145.568 273.86 146.034 273.86 146.408 273.58C146.687 273.207 146.687 272.647 146.408 272.367C146.034 271.993 145.568 271.993 145.194 272.367C144.915 272.647 144.915 273.207 145.194 273.58Z" fill="#B0BADB"/>
<path d="M196.422 280.954C196.795 281.234 197.355 281.234 197.635 280.954C198.008 280.581 198.008 280.021 197.635 279.741C197.355 279.367 196.795 279.367 196.422 279.741C196.142 280.021 196.142 280.581 196.422 280.954Z" fill="#B0BADB"/>
<path d="M272.19 308.212C272.563 308.586 273.03 308.586 273.403 308.212C273.683 307.932 273.683 307.372 273.403 306.999C273.03 306.719 272.563 306.719 272.19 306.999C271.91 307.372 271.91 307.932 272.19 308.212Z" fill="#B0BADB"/>
<path d="M647.205 308.212C647.485 308.586 648.045 308.586 648.418 308.212C648.698 307.932 648.698 307.372 648.418 306.999C648.045 306.719 647.485 306.719 647.205 306.999C646.832 307.372 646.832 307.932 647.205 308.212Z" fill="#B0BADB"/>
<path d="M147.341 291.97C147.714 292.25 148.18 292.25 148.554 291.97C148.834 291.596 148.834 291.13 148.554 290.756C148.18 290.476 147.714 290.476 147.341 290.756C147.061 291.13 147.061 291.596 147.341 291.97Z" fill="#B0BADB"/>
<path d="M135.77 284.782C135.957 284.875 136.237 284.875 136.33 284.782C136.517 284.595 136.517 284.315 136.33 284.128C136.237 283.941 135.957 283.941 135.77 284.128C135.583 284.315 135.583 284.595 135.77 284.782Z" fill="#B0BADB"/>
<path d="M168.242 243.99C168.429 244.083 168.709 244.083 168.895 243.99C168.989 243.803 168.989 243.523 168.895 243.336C168.709 243.149 168.429 243.149 168.242 243.336C168.149 243.523 168.149 243.803 168.242 243.99Z" fill="#B0BADB"/>
<path d="M168.709 214.772C168.802 214.865 169.082 214.865 169.269 214.772C169.455 214.585 169.455 214.305 169.269 214.118C169.082 214.025 168.802 214.025 168.709 214.118C168.522 214.305 168.522 214.585 168.709 214.772Z" fill="#B0BADB"/>
<path d="M152.846 214.305C152.939 214.492 153.219 214.492 153.406 214.305C153.592 214.119 153.592 213.932 153.406 213.745C153.219 213.559 152.939 213.559 152.846 213.745C152.659 213.932 152.659 214.119 152.846 214.305Z" fill="#B0BADB"/>
<path d="M152.379 219.812C152.566 219.999 152.846 219.999 152.939 219.812C153.126 219.625 153.126 219.345 152.939 219.159C152.846 219.065 152.566 219.065 152.379 219.159C152.193 219.345 152.193 219.625 152.379 219.812Z" fill="#B0BADB"/>
<path d="M145.008 285.156C145.194 285.249 145.381 285.249 145.568 285.156C145.754 284.969 145.754 284.689 145.568 284.502C145.381 284.409 145.194 284.409 145.008 284.502C144.821 284.689 144.821 284.969 145.008 285.156Z" fill="#B0BADB"/>
<path d="M133.251 277.781C133.531 278.154 134.091 278.154 134.37 277.781C134.744 277.5 134.744 276.94 134.37 276.66C134.091 276.287 133.531 276.287 133.251 276.66C132.877 276.94 132.877 277.5 133.251 277.781Z" fill="#B0BADB"/>
<path d="M159.658 250.243C159.937 250.523 160.497 250.523 160.871 250.243C161.151 249.87 161.151 249.31 160.871 249.03C160.497 248.75 159.937 248.75 159.658 249.03C159.284 249.31 159.284 249.87 159.658 250.243Z" fill="#B0BADB"/>
<path d="M124.293 220.466C124.573 220.839 125.133 220.839 125.413 220.466C125.786 220.186 125.786 219.626 125.413 219.346C125.133 218.972 124.573 218.972 124.293 219.346C123.92 219.626 123.92 220.186 124.293 220.466Z" fill="#B0BADB"/>
<path d="M199.688 227C199.688 225.974 198.848 225.227 197.915 225.227C196.982 225.227 196.142 225.974 196.142 227C196.142 227.934 196.982 228.681 197.915 228.681C198.848 228.681 199.688 227.934 199.688 227Z" fill="#B0BADB"/>
<path d="M264.539 288.236C265.472 289.263 267.058 289.263 268.084 288.236C269.018 287.302 269.018 285.715 268.084 284.782C267.058 283.755 265.472 283.755 264.539 284.782C263.606 285.715 263.606 287.302 264.539 288.236Z" fill="#B0BADB"/>
<path d="M100.779 30.0382C101.432 30.6917 102.551 30.6917 103.205 30.0382C103.951 29.2915 103.951 28.1713 103.205 27.5179C102.551 26.8644 101.432 26.8644 100.779 27.5179C100.032 28.1713 100.032 29.2915 100.779 30.0382Z" fill="#B0BADB"/>
<path d="M294.678 157.737C294.865 157.924 295.145 157.924 295.238 157.737C295.424 157.55 295.424 157.364 295.238 157.177C295.145 156.99 294.865 156.99 294.678 157.177C294.491 157.364 294.491 157.55 294.678 157.737Z" fill="#B0BADB"/>
<path d="M171.788 281.888C172.161 282.168 172.721 282.168 173.001 281.888C173.374 281.514 173.374 280.954 173.001 280.674C172.721 280.301 172.161 280.301 171.788 280.674C171.508 280.954 171.508 281.514 171.788 281.888Z" fill="#B0BADB"/>
<path d="M180.093 215.052C180.466 215.425 180.932 215.425 181.306 215.052C181.586 214.772 181.586 214.212 181.306 213.932C180.932 213.558 180.466 213.558 180.093 213.932C179.813 214.212 179.813 214.772 180.093 215.052Z" fill="#B0BADB"/>
<path d="M243.544 281.608C244.29 282.261 245.41 282.261 246.063 281.608C246.81 280.861 246.81 279.741 246.063 279.087C245.41 278.34 244.29 278.34 243.544 279.087C242.891 279.741 242.891 280.861 243.544 281.608Z" fill="#B0BADB"/>
<path d="M299.25 128.053C299.623 128.333 300.09 128.333 300.463 128.053C300.743 127.679 300.743 127.213 300.463 126.839C300.09 126.559 299.623 126.559 299.25 126.839C298.97 127.213 298.97 127.679 299.25 128.053Z" fill="#B0BADB"/>
<path d="M199.501 256.685C199.781 256.965 200.341 256.965 200.621 256.685C200.994 256.311 200.994 255.844 200.621 255.471C200.341 255.191 199.781 255.191 199.501 255.471C199.128 255.844 199.128 256.311 199.501 256.685Z" fill="#B0BADB"/>
<path d="M187.931 249.496C188.024 249.59 188.304 249.59 188.491 249.496C188.677 249.31 188.677 249.03 188.491 248.843C188.304 248.75 188.024 248.75 187.931 248.843C187.744 249.03 187.744 249.31 187.931 249.496Z" fill="#B0BADB"/>
<path d="M197.075 249.87C197.262 249.964 197.542 249.964 197.728 249.87C197.822 249.684 197.822 249.404 197.728 249.217C197.542 249.124 197.262 249.124 197.075 249.217C196.982 249.404 196.982 249.684 197.075 249.87Z" fill="#B0BADB"/>
<path d="M185.318 242.495C185.691 242.869 186.158 242.869 186.531 242.495C186.811 242.215 186.811 241.655 186.531 241.375C186.158 241.002 185.691 241.002 185.318 241.375C185.038 241.655 185.038 242.215 185.318 242.495Z" fill="#B0BADB"/>
<path d="M139.503 214.585C139.876 214.959 140.342 214.959 140.716 214.585C140.996 214.305 140.996 213.745 140.716 213.465C140.342 213.092 139.876 213.092 139.503 213.465C139.223 213.745 139.223 214.305 139.503 214.585Z" fill="#B0BADB"/>
<path d="M106.284 241.095C106.564 241.468 107.124 241.468 107.404 241.095C107.777 240.815 107.777 240.255 107.404 239.881C107.124 239.601 106.564 239.601 106.284 239.881C105.911 240.255 105.911 240.815 106.284 241.095Z" fill="#B0BADB"/>
<path d="M470.288 116.478C471.222 117.505 472.808 117.505 473.834 116.478C474.767 115.544 474.767 113.958 473.834 112.931C472.808 111.997 471.222 111.997 470.288 112.931C469.262 113.958 469.262 115.544 470.288 116.478Z" fill="#B0BADB"/>
<path d="M328.083 209.637C329.016 210.664 330.603 210.664 331.629 209.637C332.562 208.704 332.562 207.117 331.629 206.183C330.603 205.156 329.016 205.156 328.083 206.183C327.057 207.117 327.057 208.704 328.083 209.637Z" fill="#B0BADB"/>
<path d="M520.863 152.696C521.796 153.63 523.382 153.63 524.409 152.696C525.342 151.67 525.342 150.083 524.409 149.149C523.382 148.122 521.796 148.122 520.863 149.149C519.836 150.083 519.836 151.67 520.863 152.696Z" fill="#B0BADB"/>
<path d="M454.519 146.722C455.172 147.469 456.292 147.469 457.038 146.722C457.692 146.069 457.692 144.949 457.038 144.295C456.292 143.548 455.172 143.548 454.519 144.295C453.866 144.949 453.866 146.069 454.519 146.722Z" fill="#B0BADB"/>
<path d="M552.868 192.555C553.522 193.208 554.641 193.208 555.388 192.555C556.041 191.901 556.041 190.781 555.388 190.034C554.641 189.381 553.522 189.381 552.868 190.034C552.122 190.781 552.122 191.901 552.868 192.555Z" fill="#B0BADB"/>
<path d="M538.685 178.833C539.432 179.487 540.551 179.487 541.205 178.833C541.858 178.18 541.858 177.06 541.205 176.313C540.551 175.659 539.432 175.659 538.685 176.313C538.032 177.06 538.032 178.18 538.685 178.833Z" fill="#B0BADB"/>
<path d="M486.524 77.272C487.271 78.0187 488.391 78.0187 489.044 77.272C489.79 76.6185 489.79 75.4984 489.044 74.7516C488.391 74.0981 487.271 74.0981 486.524 74.7516C485.871 75.4984 485.871 76.6185 486.524 77.272Z" fill="#B0BADB"/>
<path d="M461.237 111.717C461.517 111.997 462.077 111.997 462.357 111.717C462.73 111.343 462.73 110.783 462.357 110.503C462.077 110.13 461.517 110.13 461.237 110.503C460.864 110.783 460.864 111.343 461.237 111.717Z" fill="#B0BADB"/>
<path d="M489.884 72.7909C490.257 73.071 490.724 73.071 491.097 72.7909C491.377 72.4176 491.377 71.9508 491.097 71.5774C490.724 71.2974 490.257 71.2974 489.884 71.5774C489.604 71.9508 489.604 72.4176 489.884 72.7909Z" fill="#B0BADB"/>
<path d="M541.111 80.1659C541.484 80.446 541.951 80.446 542.324 80.1659C542.604 79.7926 542.604 79.3258 542.324 78.9524C541.951 78.6724 541.484 78.6724 541.111 78.9524C540.831 79.3258 540.831 79.7926 541.111 80.1659Z" fill="#B0BADB"/>
<path d="M566.492 86.3264C566.772 86.6998 567.331 86.6998 567.611 86.3264C567.985 86.0464 567.985 85.4863 567.611 85.2063C567.331 84.8329 566.772 84.8329 566.492 85.2063C566.118 85.4863 566.118 86.0464 566.492 86.3264Z" fill="#B0BADB"/>
<path d="M503.134 87.1662C503.414 87.5396 503.974 87.5396 504.254 87.1662C504.627 86.8862 504.627 86.3261 504.254 85.9527C503.974 85.6727 503.414 85.6727 503.134 85.9527C502.761 86.3261 502.761 86.8862 503.134 87.1662Z" fill="#B0BADB"/>
<path d="M348.705 233.067C348.985 233.347 349.545 233.347 349.825 233.067C350.198 232.694 350.198 232.227 349.825 231.854C349.545 231.574 348.985 231.574 348.705 231.854C348.332 232.227 348.332 232.694 348.705 233.067Z" fill="#B0BADB"/>
<path d="M492.03 91.1809C492.403 91.5543 492.87 91.5543 493.243 91.1809C493.523 90.9009 493.523 90.3408 493.243 89.9674C492.87 89.6874 492.403 89.6874 492.03 89.9674C491.75 90.3408 491.75 90.9009 492.03 91.1809Z" fill="#B0BADB"/>
<path d="M480.459 83.9928C480.646 84.1795 480.926 84.1795 481.019 83.9928C481.206 83.8061 481.206 83.5261 481.019 83.3394C480.926 83.246 480.646 83.246 480.459 83.3394C480.273 83.5261 480.273 83.8061 480.459 83.9928Z" fill="#B0BADB"/>
<path d="M489.697 84.3658C489.884 84.5525 490.07 84.5525 490.257 84.3658C490.444 84.1791 490.444 83.8991 490.257 83.8058C490.07 83.6191 489.884 83.6191 489.697 83.8058C489.51 83.8991 489.51 84.1791 489.697 84.3658Z" fill="#B0BADB"/>
<path d="M477.94 77.0849C478.22 77.3649 478.78 77.3649 479.06 77.0849C479.433 76.7115 479.433 76.1514 479.06 75.8714C478.78 75.5914 478.22 75.5914 477.94 75.8714C477.567 76.1514 477.567 76.7115 477.94 77.0849Z" fill="#B0BADB"/>
<path d="M309.794 118.811C310.168 119.091 310.634 119.091 311.007 118.811C311.287 118.438 311.287 117.971 311.007 117.598C310.634 117.318 310.168 117.318 309.794 117.598C309.514 117.971 309.514 118.438 309.794 118.811Z" fill="#B0BADB"/>
<path d="M321.365 126.186C321.645 126.559 322.205 126.559 322.485 126.186C322.858 125.906 322.858 125.346 322.485 125.066C322.205 124.692 321.645 124.692 321.365 125.066C320.992 125.346 320.992 125.906 321.365 126.186Z" fill="#B0BADB"/>
<path d="M635.448 103.316C635.448 102.009 634.329 100.889 632.929 100.889C631.529 100.889 630.409 102.009 630.409 103.316C630.409 104.716 631.529 105.836 632.929 105.836C634.329 105.836 635.448 104.716 635.448 103.316Z" fill="#B0BADB"/>
<path d="M632.929 150.549C632.929 149.242 631.809 148.122 630.41 148.122C629.103 148.122 627.983 149.242 627.983 150.549C627.983 151.949 629.103 153.069 630.41 153.069C631.809 153.069 632.929 151.949 632.929 150.549Z" fill="#B0BADB"/>
<path d="M667.92 93.1411C667.92 92.1142 667.174 91.3675 666.147 91.3675C665.214 91.3675 664.468 92.1142 664.468 93.1411C664.468 94.0745 665.214 94.8213 666.147 94.8213C667.174 94.8213 667.92 94.0745 667.92 93.1411Z" fill="#B0BADB"/>
<path d="M302.983 113.117C302.983 112.09 302.143 111.343 301.21 111.343C300.183 111.343 299.437 112.09 299.437 113.117C299.437 114.051 300.183 114.891 301.21 114.891C302.143 114.891 302.983 114.051 302.983 113.117Z" fill="#B0BADB"/>
<path d="M683.41 219.906C683.41 218.879 682.663 218.133 681.637 218.133C680.704 218.133 679.864 218.879 679.864 219.906C679.864 220.84 680.704 221.68 681.637 221.68C682.663 221.68 683.41 220.84 683.41 219.906Z" fill="#B0BADB"/>
<path d="M684.716 145.042C684.716 144.015 683.97 143.268 682.943 143.268C682.01 143.268 681.264 144.015 681.264 145.042C681.264 145.975 682.01 146.815 682.943 146.815C683.97 146.815 684.716 145.975 684.716 145.042Z" fill="#B0BADB"/>
<path d="M318.845 183.034C318.845 182.381 318.286 181.727 317.539 181.727C316.886 181.727 316.326 182.381 316.326 183.034C316.326 183.781 316.886 184.341 317.539 184.341C318.286 184.341 318.845 183.781 318.845 183.034Z" fill="#B0BADB"/>
<path d="M638.434 113.211C638.434 112.744 638.061 112.371 637.594 112.371C637.128 112.371 636.755 112.744 636.755 113.211C636.755 113.677 637.128 114.051 637.594 114.051C638.061 114.051 638.434 113.677 638.434 113.211Z" fill="#B0BADB"/>
<path d="M297.384 113.957C297.384 113.491 297.011 113.117 296.544 113.117C296.078 113.117 295.704 113.491 295.704 113.957C295.704 114.331 296.078 114.704 296.544 114.704C297.011 114.704 297.384 114.331 297.384 113.957Z" fill="#B0BADB"/>
<path d="M298.224 94.3542C298.224 93.8875 297.851 93.5141 297.384 93.5141C296.917 93.5141 296.544 93.8875 296.544 94.3542C296.544 94.821 296.917 95.1943 297.384 95.1943C297.851 95.1943 298.224 94.821 298.224 94.3542Z" fill="#B0BADB"/>
<path d="M308.954 99.3952C308.954 98.9285 308.581 98.5551 308.115 98.5551C307.648 98.5551 307.275 98.9285 307.275 99.3952C307.275 99.8619 307.648 100.235 308.115 100.235C308.581 100.235 308.954 99.8619 308.954 99.3952Z" fill="#B0BADB"/>
<path d="M498.188 301.024C498.188 300.557 497.815 300.184 497.349 300.184C496.975 300.184 496.602 300.557 496.602 301.024C496.602 301.491 496.975 301.864 497.349 301.864C497.815 301.864 498.188 301.491 498.188 301.024Z" fill="#B0BADB"/>
<path d="M645.806 166.884C645.806 166.418 645.432 166.044 644.966 166.044C644.499 166.044 644.126 166.418 644.126 166.884C644.126 167.351 644.499 167.725 644.966 167.725C645.432 167.725 645.806 167.351 645.806 166.884Z" fill="#B0BADB"/>
<path d="M312.034 112.65C312.034 112.464 311.847 112.277 311.567 112.277C311.381 112.277 311.194 112.464 311.194 112.65C311.194 112.93 311.381 113.117 311.567 113.117C311.847 113.117 312.034 112.93 312.034 112.65Z" fill="#B0BADB"/>
<path d="M305.782 105.836C305.782 105.649 305.595 105.463 305.315 105.463C305.129 105.463 304.942 105.649 304.942 105.836C304.942 106.116 305.129 106.303 305.315 106.303C305.595 106.303 305.782 106.116 305.782 105.836Z" fill="#B0BADB"/>
<path d="M308.954 119.371C308.954 118.904 308.581 118.531 308.115 118.531C307.648 118.531 307.275 118.904 307.275 119.371C307.275 119.838 307.648 120.211 308.115 120.211C308.581 120.211 308.954 119.838 308.954 119.371Z" fill="#B0BADB"/>
<path d="M579.928 226.16C579.928 225.693 579.555 225.32 579.089 225.32C578.622 225.32 578.249 225.693 578.249 226.16C578.249 226.627 578.622 227 579.089 227C579.555 227 579.928 226.627 579.928 226.16Z" fill="#B0BADB"/>
<path d="M331.256 213.651C331.256 213.184 330.882 212.811 330.416 212.811C329.949 212.811 329.576 213.184 329.576 213.651C329.576 214.118 329.949 214.491 330.416 214.491C330.882 214.491 331.256 214.118 331.256 213.651Z" fill="#B0BADB"/>
<path d="M682.943 295.983C683.97 296.917 685.556 296.917 686.489 295.983C687.516 294.957 687.516 293.37 686.489 292.436C685.556 291.41 683.97 291.41 682.943 292.436C682.01 293.37 682.01 294.957 682.943 295.983Z" fill="white"/>
<path d="M755.166 203.01C756.099 203.943 757.685 203.943 758.712 203.01C759.645 201.983 759.645 200.396 758.712 199.463C757.685 198.436 756.099 198.436 755.166 199.463C754.139 200.396 754.139 201.983 755.166 203.01Z" fill="#B0BADB"/>
<path d="M722.414 243.615C723.16 244.269 724.28 244.269 724.933 243.615C725.68 242.869 725.68 241.748 724.933 241.095C724.28 240.442 723.16 240.442 722.414 241.095C721.761 241.748 721.761 242.869 722.414 243.615Z" fill="#B0BADB"/>
<path d="M786.891 302.424C787.265 302.797 787.824 302.797 788.104 302.424C788.478 302.144 788.478 301.584 788.104 301.304C787.824 300.931 787.265 300.931 786.891 301.304C786.611 301.584 786.611 302.144 786.891 302.424Z" fill="#B0BADB"/>
<path d="M689.662 275.26C689.848 275.447 690.128 275.447 690.222 275.26C690.408 275.167 690.408 274.887 690.222 274.7C690.128 274.514 689.848 274.514 689.662 274.7C689.475 274.887 689.475 275.167 689.662 275.26Z" fill="#B0BADB"/>
<path d="M655.603 274.794C655.883 275.074 656.443 275.074 656.723 274.794C657.096 274.42 657.096 273.954 656.723 273.58C656.443 273.3 655.883 273.3 655.603 273.58C655.23 273.954 655.23 274.42 655.603 274.794Z" fill="#B0BADB"/>
<path d="M714.016 222.239C714.389 222.519 714.855 222.519 715.229 222.239C715.509 221.866 715.509 221.399 715.229 221.026C714.855 220.746 714.389 220.746 714.016 221.026C713.736 221.399 713.736 221.866 714.016 222.239Z" fill="#B0BADB"/>
<path d="M644.406 230.08C644.686 230.454 645.246 230.454 645.619 230.08C645.899 229.8 645.899 229.24 645.619 228.96C645.246 228.587 644.686 228.587 644.406 228.96C644.033 229.24 644.033 229.8 644.406 230.08Z" fill="#B0BADB"/>
<path d="M672.026 127.493C672.213 127.679 672.492 127.679 672.586 127.493C672.772 127.399 672.772 127.119 672.586 126.933C672.492 126.746 672.213 126.746 672.026 126.933C671.839 127.119 671.839 127.399 672.026 127.493Z" fill="#B0BADB"/>
<path d="M663.815 207.957C664.188 208.331 664.654 208.331 665.028 207.957C665.308 207.677 665.308 207.117 665.028 206.837C664.654 206.464 664.188 206.464 663.815 206.837C663.535 207.117 663.535 207.677 663.815 207.957Z" fill="#B0BADB"/>
<path d="M667.547 307.091C668.293 307.838 669.413 307.838 670.066 307.091C670.72 306.438 670.72 305.318 670.066 304.571C669.413 303.917 668.293 303.917 667.547 304.571C666.894 305.318 666.894 306.438 667.547 307.091Z" fill="#B0BADB"/>
<path d="M250.355 9.03562C251.102 9.7824 252.222 9.7824 252.875 9.03562C253.528 8.38219 253.528 7.26206 252.875 6.60863C252.222 5.86186 251.102 5.86186 250.355 6.60863C249.702 7.26206 249.702 8.38219 250.355 9.03562Z" fill="#B0BADB"/>
<path d="M724.28 257.058C724.56 257.338 725.12 257.338 725.4 257.058C725.773 256.684 725.773 256.217 725.4 255.844C725.12 255.564 724.56 255.564 724.28 255.844C723.907 256.217 723.907 256.684 724.28 257.058Z" fill="#B0BADB"/>
<path d="M573.21 267.606C573.49 267.886 574.05 267.886 574.33 267.606C574.703 267.233 574.703 266.766 574.33 266.393C574.05 266.113 573.49 266.113 573.21 266.393C572.837 266.766 572.837 267.233 573.21 267.606Z" fill="#B0BADB"/>
<path d="M671.653 242.403C671.746 242.496 672.026 242.496 672.213 242.403C672.399 242.216 672.399 241.936 672.213 241.749C672.026 241.656 671.746 241.656 671.653 241.749C671.466 241.936 671.466 242.216 671.653 242.403Z" fill="#B0BADB"/>
<path d="M680.797 242.776C680.984 242.963 681.264 242.963 681.45 242.776C681.544 242.589 681.544 242.309 681.45 242.123C681.264 242.029 680.984 242.029 680.797 242.123C680.704 242.309 680.704 242.589 680.797 242.776Z" fill="#B0BADB"/>
<path d="M669.04 235.402C669.413 235.775 669.88 235.775 670.253 235.402C670.533 235.122 670.533 234.561 670.253 234.281C669.88 233.908 669.413 233.908 669.04 234.281C668.76 234.561 668.76 235.122 669.04 235.402Z" fill="#B0BADB"/>
<path d="M495.016 222.986C495.016 222.053 494.269 221.213 493.243 221.213C492.31 221.213 491.47 222.053 491.47 222.986C491.47 224.013 492.31 224.76 493.243 224.76C494.269 224.76 495.016 224.013 495.016 222.986Z" fill="#B0BADB"/>
<path d="M494.643 234.468C495.576 235.401 497.162 235.401 498.095 234.468C499.121 233.441 499.121 231.854 498.095 230.921C497.162 229.894 495.576 229.894 494.643 230.921C493.616 231.854 493.616 233.441 494.643 234.468Z" fill="#B0BADB"/>
<path d="M534.113 246.696C534.766 247.443 535.886 247.443 536.539 246.696C537.285 246.042 537.285 244.922 536.539 244.269C535.886 243.522 534.766 243.522 534.113 244.269C533.366 244.922 533.366 246.042 534.113 246.696Z" fill="#B0BADB"/>
<path d="M501.268 278.434C501.454 278.621 501.734 278.621 501.827 278.434C502.014 278.248 502.014 278.061 501.827 277.874C501.734 277.687 501.454 277.687 501.268 277.874C501.081 278.061 501.081 278.248 501.268 278.434Z" fill="#B0BADB"/>
<path d="M467.209 277.874C467.489 278.248 468.049 278.248 468.329 277.874C468.702 277.594 468.702 277.034 468.329 276.754C468.049 276.381 467.489 276.381 467.209 276.754C466.836 277.034 466.836 277.594 467.209 277.874Z" fill="#B0BADB"/>
<path d="M456.012 233.254C456.292 233.628 456.852 233.628 457.225 233.254C457.505 232.974 457.505 232.414 457.225 232.041C456.852 231.761 456.292 231.761 456.012 232.041C455.732 232.414 455.732 232.974 456.012 233.254Z" fill="#B0BADB"/>
<path d="M475.421 211.131C475.794 211.504 476.26 211.504 476.634 211.131C476.914 210.851 476.914 210.291 476.634 210.011C476.26 209.638 475.794 209.638 475.421 210.011C475.141 210.291 475.141 210.851 475.421 211.131Z" fill="#B0BADB"/>
<path d="M489.324 238.855C489.977 239.508 491.097 239.508 491.843 238.855C492.496 238.108 492.496 236.988 491.843 236.334C491.097 235.681 489.977 235.681 489.324 236.334C488.671 236.988 488.671 238.108 489.324 238.855Z" fill="#B0BADB"/>
<path d="M505.84 248.75C506.213 249.03 506.773 249.03 507.053 248.75C507.426 248.377 507.426 247.91 507.053 247.536C506.773 247.256 506.213 247.256 505.84 247.536C505.56 247.91 505.56 248.377 505.84 248.75Z" fill="#B0BADB"/>
<path d="M494.829 252.764C495.109 253.044 495.669 253.044 495.949 252.764C496.322 252.39 496.322 251.923 495.949 251.55C495.669 251.27 495.109 251.27 494.829 251.55C494.456 251.923 494.456 252.39 494.829 252.764Z" fill="#B0BADB"/>
<path d="M483.259 245.483C483.352 245.67 483.632 245.67 483.819 245.483C484.005 245.39 484.005 245.11 483.819 244.923C483.632 244.736 483.352 244.736 483.259 244.923C483.072 245.11 483.072 245.39 483.259 245.483Z" fill="#B0BADB"/>
<path d="M492.496 245.95C492.59 246.043 492.87 246.043 493.056 245.95C493.243 245.763 493.243 245.483 493.056 245.296C492.87 245.109 492.59 245.109 492.496 245.296C492.31 245.483 492.31 245.763 492.496 245.95Z" fill="#B0BADB"/>
<path d="M480.646 238.575C481.019 238.949 481.486 238.949 481.859 238.575C482.139 238.295 482.139 237.735 481.859 237.455C481.486 237.082 481.019 237.082 480.646 237.455C480.366 237.735 480.366 238.295 480.646 238.575Z" fill="#B0BADB"/>
<path d="M721.854 137.014C722.507 137.667 723.627 137.667 724.373 137.014C725.027 136.36 725.027 135.24 724.373 134.493C723.627 133.84 722.507 133.84 721.854 134.493C721.108 135.24 721.108 136.36 721.854 137.014Z" fill="#B0BADB"/>
<path d="M724.187 190.782C724.933 191.528 726.053 191.528 726.706 190.782C727.452 190.128 727.452 189.008 726.706 188.355C726.053 187.608 724.933 187.608 724.187 188.355C723.533 189.008 723.533 190.128 724.187 190.782Z" fill="#B0BADB"/>
<path d="M716.628 112.931C717.095 113.491 717.935 113.491 718.401 112.931C718.961 112.464 718.961 111.624 718.401 111.064C717.935 110.597 717.095 110.597 716.628 111.064C716.069 111.624 716.069 112.464 716.628 112.931Z" fill="#B0BADB"/>
<path d="M725.213 132.533C725.493 132.813 726.053 132.813 726.333 132.533C726.706 132.16 726.706 131.693 726.333 131.32C726.053 131.04 725.493 131.04 725.213 131.32C724.84 131.693 724.84 132.16 725.213 132.533Z" fill="#B0BADB"/>
<path d="M738.37 146.908C738.743 147.188 739.21 147.188 739.583 146.908C739.863 146.535 739.863 146.068 739.583 145.695C739.21 145.415 738.743 145.415 738.37 145.695C738.09 146.068 738.09 146.535 738.37 146.908Z" fill="#B0BADB"/>
<path d="M776.067 197.782C776.347 198.062 776.907 198.062 777.187 197.782C777.56 197.409 777.56 196.942 777.187 196.569C776.907 196.289 776.347 196.289 776.067 196.569C775.694 196.942 775.694 197.409 776.067 197.782Z" fill="#B0BADB"/>
<path d="M727.359 150.923C727.639 151.203 728.199 151.203 728.479 150.923C728.852 150.549 728.852 150.083 728.479 149.709C728.199 149.429 727.639 149.429 727.359 149.709C726.986 150.083 726.986 150.549 727.359 150.923Z" fill="#B0BADB"/>
<path d="M715.695 143.735C715.882 143.828 716.162 143.828 716.348 143.735C716.535 143.548 716.535 143.268 716.348 143.081C716.162 142.988 715.882 142.988 715.695 143.081C715.602 143.268 715.602 143.548 715.695 143.735Z" fill="#B0BADB"/>
<path d="M699.833 109.477C700.019 109.57 700.206 109.57 700.393 109.477C700.579 109.29 700.579 109.01 700.393 108.823C700.206 108.73 700.019 108.73 699.833 108.823C699.646 109.01 699.646 109.29 699.833 109.477Z" fill="#B0BADB"/>
<path d="M748.261 102.942C748.354 103.035 748.634 103.035 748.82 102.942C749.007 102.755 749.007 102.475 748.82 102.288C748.634 102.195 748.354 102.195 748.261 102.288C748.074 102.475 748.074 102.755 748.261 102.942Z" fill="#B0BADB"/>
<path d="M724.933 144.108C725.12 144.201 725.4 144.201 725.587 144.108C725.68 143.921 725.68 143.641 725.587 143.454C725.4 143.361 725.12 143.361 724.933 143.454C724.84 143.641 724.84 143.921 724.933 144.108Z" fill="#B0BADB"/>
<path d="M713.176 136.734C713.549 137.107 714.016 137.107 714.389 136.734C714.669 136.454 714.669 135.894 714.389 135.613C714.016 135.24 713.549 135.24 713.176 135.613C712.896 135.894 712.896 136.454 713.176 136.734Z" fill="#B0BADB"/>
<path d="M656.443 137.294C656.723 137.574 657.283 137.574 657.563 137.294C657.936 136.92 657.936 136.454 657.563 136.08C657.283 135.8 656.723 135.8 656.443 136.08C656.07 136.454 656.07 136.92 656.443 137.294Z" fill="#B0BADB"/>
<path d="M739.583 109.196C739.956 109.476 740.423 109.476 740.796 109.196C741.076 108.823 741.076 108.356 740.796 107.983C740.423 107.703 739.956 107.703 739.583 107.983C739.303 108.356 739.303 108.823 739.583 109.196Z" fill="#B0BADB"/>
<path d="M633.115 60.3764C633.769 61.1232 634.888 61.1232 635.635 60.3764C636.288 59.723 636.288 58.6028 635.635 57.8561C634.888 57.2026 633.769 57.2026 633.115 57.8561C632.462 58.6028 632.462 59.723 633.115 60.3764Z" fill="#B0BADB"/>
<path d="M551.749 67.2838C551.935 67.4705 552.215 67.4705 552.309 67.2838C552.495 67.0971 552.495 66.8171 552.309 66.7237C552.215 66.537 551.935 66.537 551.749 66.7237C551.562 66.8171 551.562 67.0971 551.749 67.2838Z" fill="#B0BADB"/>
<path d="M916.313 285.155C917.06 285.809 918.179 285.809 918.833 285.155C919.486 284.409 919.486 283.289 918.833 282.635C918.179 281.888 917.06 281.888 916.313 282.635C915.66 283.289 915.66 284.409 916.313 285.155Z" fill="#B0BADB"/>
<path d="M902.223 271.339C902.876 272.086 903.996 272.086 904.743 271.339C905.396 270.686 905.396 269.566 904.743 268.912C903.996 268.166 902.876 268.166 902.223 268.912C901.477 269.566 901.477 270.686 902.223 271.339Z" fill="#B0BADB"/>
<path d="M904.649 172.672C904.929 173.045 905.489 173.045 905.769 172.672C906.142 172.392 906.142 171.832 905.769 171.552C905.489 171.179 904.929 171.179 904.649 171.552C904.276 171.832 904.276 172.392 904.649 172.672Z" fill="#B0BADB"/>
<path d="M929.937 178.927C930.216 179.207 930.776 179.207 931.149 178.927C931.429 178.553 931.429 177.993 931.149 177.713C930.776 177.34 930.216 177.34 929.937 177.713C929.657 177.993 929.657 178.553 929.937 178.927Z" fill="#B0BADB"/>
<path d="M998.893 195.915C998.893 194.515 997.773 193.395 996.467 193.395C995.067 193.395 993.948 194.515 993.948 195.915C993.948 197.315 995.067 198.436 996.467 198.436C997.773 198.436 998.893 197.315 998.893 195.915Z" fill="white"/>
<path d="M996.467 243.15C996.467 241.749 995.347 240.629 993.947 240.629C992.548 240.629 991.428 241.749 991.428 243.15C991.428 244.55 992.548 245.67 993.947 245.67C995.347 245.67 996.467 244.55 996.467 243.15Z" fill="#B0BADB"/>
<path d="M1031.46 185.647C1031.46 184.714 1030.62 183.874 1029.69 183.874C1028.66 183.874 1027.91 184.714 1027.91 185.647C1027.91 186.581 1028.66 187.421 1029.69 187.421C1030.62 187.421 1031.46 186.581 1031.46 185.647Z" fill="#B0BADB"/>
<path d="M1046.95 312.412C1046.95 311.478 1046.11 310.638 1045.18 310.638C1044.15 310.638 1043.4 311.478 1043.4 312.412C1043.4 313.439 1044.15 314.186 1045.18 314.186C1046.11 314.186 1046.95 313.439 1046.95 312.412Z" fill="#B0BADB"/>
<path d="M1048.25 237.549C1048.25 236.615 1047.41 235.775 1046.48 235.775C1045.55 235.775 1044.71 236.615 1044.71 237.549C1044.71 238.482 1045.55 239.322 1046.48 239.322C1047.41 239.322 1048.25 238.482 1048.25 237.549Z" fill="#B0BADB"/>
<path d="M1001.97 205.717C1001.97 205.25 1001.6 204.876 1001.13 204.876C1000.67 204.876 1000.29 205.25 1000.29 205.717C1000.29 206.183 1000.67 206.557 1001.13 206.557C1001.6 206.557 1001.97 206.183 1001.97 205.717Z" fill="#B0BADB"/>
<path d="M1009.34 259.485C1009.34 259.018 1008.97 258.645 1008.5 258.645C1008.04 258.645 1007.66 259.018 1007.66 259.485C1007.66 259.952 1008.04 260.325 1008.5 260.325C1008.97 260.325 1009.34 259.952 1009.34 259.485Z" fill="#B0BADB"/>
<path d="M943.373 318.759C943.373 318.293 943 317.919 942.533 317.919C942.067 317.919 941.694 318.293 941.694 318.759C941.694 319.226 942.067 319.6 942.533 319.6C943 319.6 943.373 319.226 943.373 318.759Z" fill="#B0BADB"/>
<path d="M1046.48 323.8C1047.41 324.827 1049 324.827 1050.03 323.8C1050.96 322.867 1050.96 321.28 1050.03 320.346C1049 319.32 1047.41 319.32 1046.48 320.346C1045.55 321.28 1045.55 322.867 1046.48 323.8Z" fill="#B0BADB"/>
<path d="M1118.61 295.517C1119.64 296.544 1121.22 296.544 1122.16 295.517C1123.18 294.584 1123.18 292.997 1122.16 291.97C1121.22 291.036 1119.64 291.036 1118.61 291.97C1117.68 292.997 1117.68 294.584 1118.61 295.517Z" fill="#B0BADB"/>
<path d="M1085.95 336.123C1086.6 336.869 1087.72 336.869 1088.47 336.123C1089.12 335.469 1089.12 334.349 1088.47 333.602C1087.72 332.949 1086.6 332.949 1085.95 333.602C1085.3 334.349 1085.3 335.469 1085.95 336.123Z" fill="#B0BADB"/>
<path d="M1097.99 293.089C1098.27 293.462 1098.83 293.462 1099.2 293.089C1099.48 292.809 1099.48 292.249 1099.2 291.969C1098.83 291.596 1098.27 291.596 1097.99 291.969C1097.62 292.249 1097.62 292.809 1097.99 293.089Z" fill="#B0BADB"/>
<path d="M1053.2 367.86C1053.29 368.047 1053.57 368.047 1053.76 367.86C1053.95 367.673 1053.95 367.393 1053.76 367.3C1053.57 367.113 1053.29 367.113 1053.2 367.3C1053.01 367.393 1053.01 367.673 1053.2 367.86Z" fill="#B0BADB"/>
<path d="M1019.05 367.3C1019.42 367.673 1019.89 367.673 1020.26 367.3C1020.54 367.02 1020.54 366.46 1020.26 366.18C1019.89 365.806 1019.42 365.806 1019.05 366.18C1018.77 366.46 1018.77 367.02 1019.05 367.3Z" fill="#B0BADB"/>
<path d="M1104.8 316.8C1105.08 317.08 1105.64 317.08 1105.92 316.8C1106.29 316.426 1106.29 315.96 1105.92 315.586C1105.64 315.306 1105.08 315.306 1104.8 315.586C1104.43 315.96 1104.43 316.426 1104.8 316.8Z" fill="#B0BADB"/>
<path d="M1007.85 322.681C1008.22 322.961 1008.78 322.961 1009.06 322.681C1009.34 322.307 1009.34 321.84 1009.06 321.467C1008.78 321.187 1008.22 321.187 1007.85 321.467C1007.57 321.84 1007.57 322.307 1007.85 322.681Z" fill="#B0BADB"/>
<path d="M1031.92 117.784C1032.2 118.064 1032.76 118.064 1033.04 117.784C1033.42 117.411 1033.42 116.851 1033.04 116.571C1032.76 116.197 1032.2 116.197 1031.92 116.571C1031.55 116.851 1031.55 117.411 1031.92 117.784Z" fill="#B0BADB"/>
<path d="M1035.56 220.092C1035.66 220.185 1035.94 220.185 1036.12 220.092C1036.31 219.905 1036.31 219.625 1036.12 219.439C1035.94 219.345 1035.66 219.345 1035.56 219.439C1035.38 219.625 1035.38 219.905 1035.56 220.092Z" fill="#B0BADB"/>
<path d="M1027.35 300.558C1027.63 300.838 1028.19 300.838 1028.47 300.558C1028.85 300.184 1028.85 299.717 1028.47 299.344C1028.19 299.064 1027.63 299.064 1027.35 299.344C1026.98 299.717 1026.98 300.184 1027.35 300.558Z" fill="#B0BADB"/>
<path d="M1041.16 328.188C1041.91 328.935 1043.03 328.935 1043.68 328.188C1044.43 327.535 1044.43 326.414 1043.68 325.761C1043.03 325.014 1041.91 325.014 1041.16 325.761C1040.51 326.414 1040.51 327.535 1041.16 328.188Z" fill="#B0BADB"/>
<path d="M1057.77 338.082C1058.05 338.456 1058.61 338.456 1058.89 338.082C1059.26 337.802 1059.26 337.242 1058.89 336.962C1058.61 336.589 1058.05 336.589 1057.77 336.962C1057.4 337.242 1057.4 337.802 1057.77 338.082Z" fill="#B0BADB"/>
<path d="M1046.67 342.097C1047.04 342.47 1047.51 342.47 1047.88 342.097C1048.16 341.817 1048.16 341.257 1047.88 340.977C1047.51 340.603 1047.04 340.603 1046.67 340.977C1046.39 341.257 1046.39 341.817 1046.67 342.097Z" fill="#B0BADB"/>
<path d="M1035.1 334.909C1035.28 335.096 1035.56 335.096 1035.66 334.909C1035.84 334.722 1035.84 334.535 1035.66 334.349C1035.56 334.162 1035.28 334.162 1035.1 334.349C1034.91 334.535 1034.91 334.722 1035.1 334.909Z" fill="#B0BADB"/>
<path d="M1044.34 335.282C1044.52 335.469 1044.71 335.469 1044.89 335.282C1045.08 335.095 1045.08 334.908 1044.89 334.722C1044.71 334.535 1044.52 334.535 1044.34 334.722C1044.15 334.908 1044.15 335.095 1044.34 335.282Z" fill="#B0BADB"/>
<path d="M1032.58 328.001C1032.86 328.281 1033.42 328.281 1033.7 328.001C1034.07 327.628 1034.07 327.161 1033.7 326.787C1033.42 326.507 1032.86 326.507 1032.58 326.787C1032.2 327.161 1032.2 327.628 1032.58 328.001Z" fill="#B0BADB"/>
<path d="M897.558 339.296C898.211 339.949 899.33 339.949 900.077 339.296C900.73 338.643 900.73 337.522 900.077 336.776C899.33 336.122 898.211 336.122 897.558 336.776C896.904 337.522 896.904 338.643 897.558 339.296Z" fill="#B0BADB"/>
<path d="M1085.3 229.52C1086.05 230.267 1087.16 230.267 1087.82 229.52C1088.47 228.867 1088.47 227.746 1087.82 227.093C1087.16 226.346 1086.05 226.346 1085.3 227.093C1084.65 227.746 1084.65 228.867 1085.3 229.52Z" fill="#B0BADB"/>
<path d="M1087.72 283.381C1088.38 284.034 1089.5 284.034 1090.24 283.381C1090.9 282.634 1090.9 281.607 1090.24 280.861C1089.5 280.207 1088.38 280.207 1087.72 280.861C1086.98 281.607 1086.98 282.634 1087.72 283.381Z" fill="#B0BADB"/>
<path d="M1080.07 205.531C1080.63 205.998 1081.47 205.998 1081.94 205.531C1082.41 204.971 1082.41 204.131 1081.94 203.664C1081.47 203.104 1080.63 203.104 1080.07 203.664C1079.61 204.131 1079.61 204.971 1080.07 205.531Z" fill="#B0BADB"/>
<path d="M1088.66 225.04C1089.03 225.414 1089.5 225.414 1089.87 225.04C1090.15 224.76 1090.15 224.2 1089.87 223.827C1089.5 223.547 1089.03 223.547 1088.66 223.827C1088.38 224.2 1088.38 224.76 1088.66 225.04Z" fill="#B0BADB"/>
<path d="M1101.91 239.415C1102.19 239.789 1102.75 239.789 1103.03 239.415C1103.4 239.135 1103.4 238.575 1103.03 238.295C1102.75 237.922 1102.19 237.922 1101.91 238.295C1101.53 238.575 1101.53 239.135 1101.91 239.415Z" fill="#B0BADB"/>
<path d="M1153.98 296.823C1154.26 297.197 1154.81 297.197 1155.09 296.823C1155.47 296.543 1155.47 295.983 1155.09 295.703C1154.81 295.33 1154.26 295.33 1153.98 295.703C1153.6 295.983 1153.6 296.543 1153.98 296.823Z" fill="#B0BADB"/>
<path d="M1117.3 289.076C1117.68 289.356 1118.14 289.356 1118.52 289.076C1118.8 288.703 1118.8 288.236 1118.52 287.863C1118.14 287.583 1117.68 287.583 1117.3 287.863C1117.02 288.236 1117.02 288.703 1117.3 289.076Z" fill="#B0BADB"/>
<path d="M1090.8 243.429C1091.08 243.802 1091.64 243.802 1092.02 243.429C1092.3 243.149 1092.3 242.589 1092.02 242.309C1091.64 241.935 1091.08 241.935 1090.8 242.309C1090.52 242.589 1090.52 243.149 1090.8 243.429Z" fill="#B0BADB"/>
<path d="M1153.14 205.53C1153.42 205.81 1153.97 205.81 1154.25 205.53C1154.63 205.157 1154.63 204.597 1154.25 204.317C1153.97 203.943 1153.42 203.943 1153.14 204.317C1152.76 204.597 1152.76 205.157 1153.14 205.53Z" fill="#B0BADB"/>
<path d="M1079.23 236.241C1079.42 236.428 1079.7 236.428 1079.79 236.241C1079.98 236.054 1079.98 235.867 1079.79 235.681C1079.7 235.494 1079.42 235.494 1079.23 235.681C1079.05 235.867 1079.05 236.054 1079.23 236.241Z" fill="#B0BADB"/>
<path d="M1063.28 201.983C1063.46 202.17 1063.74 202.17 1063.93 201.983C1064.02 201.796 1064.02 201.61 1063.93 201.423C1063.74 201.236 1063.46 201.236 1063.28 201.423C1063.18 201.61 1063.18 201.796 1063.28 201.983Z" fill="#B0BADB"/>
<path d="M1111.71 195.449C1111.89 195.636 1112.17 195.636 1112.27 195.449C1112.45 195.262 1112.45 195.075 1112.27 194.889C1112.17 194.702 1111.89 194.702 1111.71 194.889C1111.52 195.075 1111.52 195.262 1111.71 195.449Z" fill="#B0BADB"/>
<path d="M1088.47 236.615C1088.56 236.802 1088.84 236.802 1089.03 236.615C1089.22 236.428 1089.22 236.241 1089.03 236.055C1088.84 235.868 1088.56 235.868 1088.47 236.055C1088.28 236.241 1088.28 236.428 1088.47 236.615Z" fill="#B0BADB"/>
<path d="M1076.71 229.334C1076.99 229.614 1077.55 229.614 1077.83 229.334C1078.21 228.961 1078.21 228.494 1077.83 228.12C1077.55 227.84 1076.99 227.84 1076.71 228.12C1076.34 228.494 1076.34 228.961 1076.71 229.334Z" fill="#B0BADB"/>
<path d="M1019.89 229.8C1020.17 230.173 1020.73 230.173 1021.1 229.8C1021.38 229.52 1021.38 228.96 1021.1 228.68C1020.73 228.306 1020.17 228.306 1019.89 228.68C1019.61 228.96 1019.61 229.52 1019.89 229.8Z" fill="#B0BADB"/>
<path d="M1103.12 201.703C1103.4 202.077 1103.96 202.077 1104.24 201.703C1104.61 201.423 1104.61 200.863 1104.24 200.583C1103.96 200.21 1103.4 200.21 1103.12 200.583C1102.75 200.863 1102.75 201.423 1103.12 201.703Z" fill="#B0BADB"/>
<path d="M996.56 152.976C997.307 153.629 998.426 153.629 999.08 152.976C999.733 152.229 999.733 151.109 999.08 150.455C998.426 149.802 997.307 149.802 996.56 150.455C995.907 151.109 995.907 152.229 996.56 152.976Z" fill="#B0BADB"/>
<path d="M915.193 159.791C915.38 159.977 915.66 159.977 915.846 159.791C916.033 159.697 916.033 159.417 915.846 159.231C915.66 159.044 915.38 159.044 915.193 159.231C915.1 159.417 915.1 159.697 915.193 159.791Z" fill="#B0BADB"/>
<path d="M529.261 313.906C529.914 314.653 531.034 314.653 531.687 313.906C532.433 313.252 532.433 312.132 531.687 311.385C531.034 310.732 529.914 310.732 529.261 311.385C528.514 312.132 528.514 313.252 529.261 313.906Z" fill="#B0BADB"/>
</g>
</svg>
