<svg width="1363" height="367" viewBox="0 0 1363 367" fill="none" xmlns="http://www.w3.org/2000/svg">
<g opacity="0.2">
<path d="M505.735 267.874C506.294 268.434 507.228 268.434 507.787 267.874C508.254 267.408 508.254 266.475 507.787 265.915C507.228 265.355 506.294 265.355 505.735 265.915C505.175 266.475 505.175 267.408 505.735 267.874Z" fill="#B0BADB"/>
<path d="M465.528 259.851C466.088 260.41 467.021 260.41 467.581 259.851C468.14 259.384 468.14 258.451 467.581 257.891C467.021 257.332 466.088 257.332 465.528 257.891C464.968 258.451 464.968 259.384 465.528 259.851Z" fill="#B0BADB"/>
<path d="M483.626 282.428C483.999 282.801 484.652 282.801 485.025 282.428C485.398 282.055 485.398 281.402 485.025 281.029C484.652 280.656 483.999 280.656 483.626 281.029C483.252 281.402 483.252 282.055 483.626 282.428Z" fill="#B0BADB"/>
<path d="M461.237 301.741C461.61 302.114 462.17 302.114 462.636 301.741C463.009 301.367 463.009 300.714 462.636 300.341C462.17 299.968 461.61 299.968 461.237 300.341C460.77 300.714 460.77 301.367 461.237 301.741Z" fill="#B0BADB"/>
<path d="M477.002 218.988C477.189 219.175 477.469 219.175 477.655 218.988C477.842 218.801 477.842 218.521 477.655 218.334C477.469 218.148 477.189 218.148 477.002 218.334C476.815 218.521 476.815 218.801 477.002 218.988Z" fill="#B0BADB"/>
<path d="M491.275 222.44C491.462 222.627 491.742 222.627 491.928 222.44C492.115 222.253 492.115 221.973 491.928 221.787C491.742 221.6 491.462 221.6 491.275 221.787C491.088 221.973 491.088 222.253 491.275 222.44Z" fill="#B0BADB"/>
<path d="M517.395 281.122C517.582 281.308 517.862 281.308 518.049 281.122C518.235 280.935 518.235 280.655 518.049 280.468C517.862 280.282 517.582 280.282 517.395 280.468C517.209 280.655 517.209 280.935 517.395 281.122Z" fill="#B0BADB"/>
<path d="M511.985 244.457C512.171 244.643 512.451 244.643 512.638 244.457C512.825 244.27 512.825 243.99 512.638 243.803C512.451 243.617 512.171 243.617 511.985 243.803C511.798 243.99 511.798 244.27 511.985 244.457Z" fill="#B0BADB"/>
<path d="M500.231 201.169C500.417 201.355 500.697 201.355 500.884 201.169C501.07 200.982 501.07 200.702 500.884 200.515C500.697 200.328 500.417 200.328 500.231 200.515C500.044 200.702 500.044 200.982 500.231 201.169Z" fill="#B0BADB"/>
<path d="M518.422 248.656C518.608 248.843 518.888 248.843 519.075 248.656C519.261 248.469 519.261 248.189 519.075 248.002C518.888 247.816 518.608 247.816 518.422 248.002C518.235 248.189 518.235 248.469 518.422 248.656Z" fill="#B0BADB"/>
<path d="M481.48 316.294C482.413 317.227 483.999 317.227 485.025 316.294C485.958 315.268 485.958 313.775 485.025 312.749C483.999 311.816 482.413 311.816 481.48 312.749C480.454 313.775 480.454 315.268 481.48 316.294Z" fill="#B0BADB"/>
<path d="M210.2 197.063C211.226 198.09 212.812 198.09 213.745 197.063C214.678 196.13 214.678 194.544 213.745 193.518C212.812 192.585 211.226 192.585 210.2 193.518C209.267 194.544 209.267 196.13 210.2 197.063Z" fill="#B0BADB"/>
<path d="M10.7514 307.057C11.6842 308.084 13.2701 308.084 14.203 307.057C15.2292 306.125 15.2292 304.538 14.203 303.606C13.2701 302.579 11.6842 302.579 10.7514 303.606C9.72521 304.538 9.72521 306.125 10.7514 307.057Z" fill="#B0BADB"/>
<path d="M134.917 274.591C135.85 275.524 137.436 275.524 138.462 274.591C139.395 273.658 139.395 272.072 138.462 271.046C137.436 270.113 135.85 270.113 134.917 271.046C133.891 272.072 133.891 273.658 134.917 274.591Z" fill="#B0BADB"/>
<path d="M532.042 352.4C532.974 353.426 534.56 353.426 535.587 352.4C536.519 351.467 536.519 349.881 535.587 348.948C534.56 347.922 532.974 347.922 532.042 348.948C531.015 349.881 531.015 351.467 532.042 352.4Z" fill="#B0BADB"/>
<path d="M418.511 235.687C419.537 236.714 421.123 236.714 422.056 235.687C423.082 234.754 423.082 233.168 422.056 232.142C421.123 231.209 419.537 231.209 418.511 232.142C417.578 233.168 417.578 234.754 418.511 235.687Z" fill="#B0BADB"/>
<path d="M465.714 346.522C466.461 347.175 467.581 347.175 468.234 346.522C468.887 345.869 468.887 344.749 468.234 344.003C467.581 343.35 466.461 343.35 465.714 344.003C465.061 344.749 465.061 345.869 465.714 346.522Z" fill="white"/>
<path d="M652.756 267.781C653.409 268.434 654.528 268.434 655.275 267.781C655.928 267.034 655.928 265.915 655.275 265.262C654.528 264.609 653.409 264.609 652.756 265.262C652.102 265.915 652.102 267.034 652.756 267.781Z" fill="#B0BADB"/>
<path d="M607.231 99.7566C607.885 100.503 609.004 100.503 609.751 99.7566C610.404 99.1036 610.404 97.984 609.751 97.2377C609.004 96.5846 607.885 96.5846 607.231 97.2377C606.578 97.984 606.578 99.1036 607.231 99.7566Z" fill="#B0BADB"/>
<path d="M638.669 254.067C639.322 254.72 640.442 254.72 641.095 254.067C641.842 253.32 641.842 252.201 641.095 251.548C640.442 250.801 639.322 250.801 638.669 251.548C637.923 252.201 637.923 253.32 638.669 254.067Z" fill="#B0BADB"/>
<path d="M497.712 277.111C498.458 277.764 499.578 277.764 500.231 277.111C500.978 276.458 500.978 275.338 500.231 274.592C499.578 273.939 498.458 273.939 497.712 274.592C497.059 275.338 497.059 276.458 497.712 277.111Z" fill="#B0BADB"/>
<path d="M492.581 253.04C493.048 253.506 493.887 253.506 494.354 253.04C494.914 252.573 494.914 251.734 494.354 251.174C493.887 250.707 493.048 250.707 492.581 251.174C492.021 251.734 492.021 252.573 492.581 253.04Z" fill="#B0BADB"/>
<path d="M502.936 227.665C503.403 228.131 504.242 228.131 504.709 227.665C505.269 227.105 505.269 226.359 504.709 225.799C504.242 225.332 503.403 225.332 502.936 225.799C502.376 226.359 502.376 227.105 502.936 227.665Z" fill="#B0BADB"/>
<path d="M472.431 311.443C472.711 311.816 473.271 311.816 473.551 311.443C473.924 311.163 473.924 310.602 473.551 310.322C473.271 309.949 472.711 309.949 472.431 310.322C472.058 310.602 472.058 311.163 472.431 311.443Z" fill="#B0BADB"/>
<path d="M501.07 272.632C501.443 272.912 501.91 272.912 502.283 272.632C502.563 272.258 502.563 271.698 502.283 271.418C501.91 271.045 501.443 271.045 501.07 271.418C500.79 271.698 500.79 272.258 501.07 272.632Z" fill="#B0BADB"/>
<path d="M552.285 280.002C552.658 280.282 553.218 280.282 553.498 280.002C553.871 279.628 553.871 279.068 553.498 278.788C553.218 278.415 552.658 278.415 552.285 278.788C552.005 279.068 552.005 279.628 552.285 280.002Z" fill="#B0BADB"/>
<path d="M184.639 116.549C184.919 116.922 185.479 116.922 185.759 116.549C186.132 116.269 186.132 115.709 185.759 115.429C185.479 115.056 184.919 115.056 184.639 115.429C184.266 115.709 184.266 116.269 184.639 116.549Z" fill="#B0BADB"/>
<path d="M628.034 307.245C628.408 307.619 628.874 307.619 629.247 307.245C629.527 306.965 629.527 306.405 629.247 306.032C628.874 305.752 628.408 305.752 628.034 306.032C627.755 306.405 627.755 306.965 628.034 307.245Z" fill="#B0BADB"/>
<path d="M1002.96 307.245C1003.24 307.619 1003.8 307.619 1004.17 307.245C1004.45 306.965 1004.45 306.405 1004.17 306.032C1003.8 305.752 1003.24 305.752 1002.96 306.032C1002.58 306.405 1002.58 306.965 1002.96 307.245Z" fill="#B0BADB"/>
<path d="M230.817 220.387C231.19 220.76 231.656 220.76 232.03 220.387C232.309 220.107 232.309 219.547 232.03 219.267C231.656 218.893 231.19 218.893 230.817 219.267C230.537 219.547 230.537 220.107 230.817 220.387Z" fill="#B0BADB"/>
<path d="M503.216 291.012C503.589 291.292 504.056 291.292 504.429 291.012C504.709 290.638 504.709 290.172 504.429 289.798C504.056 289.518 503.589 289.518 503.216 289.798C502.936 290.172 502.936 290.638 503.216 291.012Z" fill="#B0BADB"/>
<path d="M491.648 283.827C491.835 283.921 492.115 283.921 492.208 283.827C492.395 283.641 492.395 283.361 492.208 283.174C492.115 282.987 491.835 282.987 491.648 283.174C491.462 283.361 491.462 283.641 491.648 283.827Z" fill="#B0BADB"/>
<path d="M524.112 243.058C524.299 243.151 524.579 243.151 524.765 243.058C524.859 242.871 524.859 242.591 524.765 242.404C524.579 242.218 524.299 242.218 524.112 242.404C524.019 242.591 524.019 242.871 524.112 243.058Z" fill="#B0BADB"/>
<path d="M524.579 213.857C524.672 213.95 524.952 213.95 525.139 213.857C525.325 213.67 525.325 213.39 525.139 213.203C524.952 213.11 524.672 213.11 524.579 213.203C524.392 213.39 524.392 213.67 524.579 213.857Z" fill="#B0BADB"/>
<path d="M508.72 213.39C508.813 213.577 509.093 213.577 509.28 213.39C509.466 213.204 509.466 213.017 509.28 212.83C509.093 212.643 508.813 212.643 508.72 212.83C508.533 213.017 508.533 213.204 508.72 213.39Z" fill="#B0BADB"/>
<path d="M508.253 218.894C508.44 219.081 508.72 219.081 508.813 218.894C509 218.707 509 218.427 508.813 218.241C508.72 218.147 508.44 218.147 508.253 218.241C508.067 218.427 508.067 218.707 508.253 218.894Z" fill="#B0BADB"/>
<path d="M500.884 284.201C501.07 284.295 501.257 284.295 501.443 284.201C501.63 284.015 501.63 283.735 501.443 283.548C501.257 283.455 501.07 283.455 500.884 283.548C500.697 283.735 500.697 284.015 500.884 284.201Z" fill="#B0BADB"/>
<path d="M489.129 276.83C489.409 277.204 489.969 277.204 490.249 276.83C490.622 276.55 490.622 275.99 490.249 275.71C489.969 275.337 489.409 275.337 489.129 275.71C488.756 275.99 488.756 276.55 489.129 276.83Z" fill="#B0BADB"/>
<path d="M515.53 249.308C515.81 249.588 516.37 249.588 516.743 249.308C517.023 248.934 517.023 248.374 516.743 248.094C516.37 247.814 515.81 247.814 515.53 248.094C515.157 248.374 515.157 248.934 515.53 249.308Z" fill="#B0BADB"/>
<path d="M221.208 155.452C221.581 155.826 222.048 155.826 222.421 155.452C222.701 155.172 222.701 154.612 222.421 154.332C222.048 153.959 221.581 153.959 221.208 154.332C220.928 154.612 220.928 155.172 221.208 155.452Z" fill="#B0BADB"/>
<path d="M200.405 78.8577C200.778 79.231 201.245 79.231 201.618 78.8577C201.898 78.5776 201.898 78.0175 201.618 77.7375C201.245 77.3641 200.778 77.3641 200.405 77.7375C200.125 78.0175 200.125 78.5776 200.405 78.8577Z" fill="#B0BADB"/>
<path d="M480.174 219.547C480.454 219.92 481.014 219.92 481.294 219.547C481.667 219.267 481.667 218.707 481.294 218.427C481.014 218.054 480.454 218.054 480.174 218.427C479.801 218.707 479.801 219.267 480.174 219.547Z" fill="#B0BADB"/>
<path d="M232.682 162.917C233.055 163.197 233.615 163.197 233.895 162.917C234.175 162.544 234.175 162.077 233.895 161.703C233.615 161.423 233.055 161.423 232.682 161.703C232.402 162.077 232.402 162.544 232.682 162.917Z" fill="#B0BADB"/>
<path d="M247.701 248.655C248.634 249.588 250.22 249.588 251.246 248.655C252.179 247.629 252.179 246.042 251.246 245.11C250.22 244.083 248.634 244.083 247.701 245.11C246.675 246.042 246.675 247.629 247.701 248.655Z" fill="#B0BADB"/>
<path d="M208.521 274.311C209.174 274.964 210.294 274.964 210.947 274.311C211.693 273.565 211.693 272.538 210.947 271.792C210.294 271.139 209.174 271.139 208.521 271.792C207.774 272.538 207.774 273.565 208.521 274.311Z" fill="#B0BADB"/>
<path d="M222.047 168.142C222.421 168.422 222.981 168.422 223.26 168.142C223.54 167.768 223.54 167.301 223.26 166.928C222.981 166.648 222.421 166.648 222.047 166.928C221.768 167.301 221.768 167.768 222.047 168.142Z" fill="#B0BADB"/>
<path d="M268.318 271.979C268.598 272.259 269.158 272.259 269.438 271.979C269.811 271.606 269.811 271.139 269.438 270.766C269.158 270.486 268.598 270.486 268.318 270.766C267.945 271.139 267.945 271.606 268.318 271.979Z" fill="#B0BADB"/>
<path d="M190.703 313.776C190.983 314.149 191.543 314.149 191.823 313.776C192.196 313.496 192.196 312.936 191.823 312.655C191.543 312.282 190.983 312.282 190.703 312.655C190.33 312.936 190.33 313.496 190.703 313.776Z" fill="#B0BADB"/>
<path d="M0.209949 332.714C0.583191 333.087 1.04974 333.087 1.42298 332.714C1.70291 332.434 1.70291 331.874 1.42298 331.594C1.04974 331.221 0.583191 331.221 0.209949 331.594C-0.0699829 331.874 -0.0699829 332.434 0.209949 332.714Z" fill="#B0BADB"/>
<path d="M258.709 207.045C258.989 207.325 259.549 207.325 259.829 207.045C260.202 206.671 260.202 206.205 259.829 205.831C259.549 205.551 258.989 205.551 258.709 205.831C258.336 206.205 258.336 206.671 258.709 207.045Z" fill="#B0BADB"/>
<path d="M237.906 130.45C238.186 130.73 238.746 130.73 239.026 130.45C239.399 130.077 239.399 129.61 239.026 129.237C238.746 128.957 238.186 128.957 237.906 129.237C237.533 129.61 237.533 130.077 237.906 130.45Z" fill="#B0BADB"/>
<path d="M270.184 214.415C270.557 214.789 271.024 214.789 271.397 214.415C271.677 214.135 271.677 213.575 271.397 213.295C271.024 212.922 270.557 212.922 270.184 213.295C269.904 213.575 269.904 214.135 270.184 214.415Z" fill="#B0BADB"/>
<path d="M555.551 226.079C555.551 225.052 554.711 224.306 553.778 224.306C552.845 224.306 552.005 225.052 552.005 226.079C552.005 227.011 552.845 227.758 553.778 227.758C554.711 227.758 555.551 227.011 555.551 226.079Z" fill="#B0BADB"/>
<path d="M265.893 74.7534C266.825 75.6864 268.411 75.6864 269.344 74.7534C270.37 73.7272 270.37 72.1412 269.344 71.2082C268.411 70.2752 266.825 70.2752 265.893 71.2082C264.866 72.1412 264.866 73.7272 265.893 74.7534Z" fill="#B0BADB"/>
<path d="M620.385 287.28C621.318 288.306 622.904 288.306 623.93 287.28C624.863 286.347 624.863 284.761 623.93 283.828C622.904 282.802 621.318 282.802 620.385 283.828C619.452 284.761 619.452 286.347 620.385 287.28Z" fill="#B0BADB"/>
<path d="M234.268 39.5809C235.201 40.6071 236.787 40.6071 237.813 39.5809C238.746 38.6479 238.746 37.0619 237.813 36.0357C236.787 35.1027 235.201 35.1027 234.268 36.0357C233.242 37.0619 233.242 38.6479 234.268 39.5809Z" fill="#B0BADB"/>
<path d="M250.127 104.981C250.78 105.634 251.9 105.634 252.646 104.981C253.3 104.328 253.3 103.208 252.646 102.462C251.9 101.809 250.78 101.809 250.127 102.462C249.381 103.208 249.381 104.328 250.127 104.981Z" fill="#B0BADB"/>
<path d="M282.125 35.5688C282.871 36.2219 283.991 36.2219 284.644 35.5688C285.297 34.8224 285.297 33.7029 284.644 33.0498C283.991 32.3968 282.871 32.3968 282.125 33.0498C281.472 33.7029 281.472 34.8224 282.125 35.5688Z" fill="#B0BADB"/>
<path d="M201.524 80.1639C202.271 80.9102 203.391 80.9102 204.044 80.1639C204.79 79.5108 204.79 78.3912 204.044 77.6449C203.391 76.9918 202.271 76.9918 201.524 77.6449C200.871 78.3912 200.871 79.5108 201.524 80.1639Z" fill="#B0BADB"/>
<path d="M456.665 29.225C457.319 29.8781 458.438 29.8781 459.092 29.225C459.838 28.4787 459.838 27.3591 459.092 26.7061C458.438 26.053 457.319 26.053 456.665 26.7061C455.919 27.3591 455.919 28.4787 456.665 29.225Z" fill="#B0BADB"/>
<path d="M256.75 69.9016C257.124 70.275 257.683 70.275 257.963 69.9016C258.243 69.6216 258.243 69.0615 257.963 68.7814C257.683 68.408 257.124 68.408 256.75 68.7814C256.47 69.0615 256.47 69.6216 256.75 69.9016Z" fill="#B0BADB"/>
<path d="M285.483 30.9973C285.763 31.3707 286.323 31.3707 286.696 30.9973C286.976 30.7173 286.976 30.1572 286.696 29.8772C286.323 29.5038 285.763 29.5038 285.483 29.8772C285.11 30.1572 285.11 30.7173 285.483 30.9973Z" fill="#B0BADB"/>
<path d="M298.73 45.4589C299.01 45.739 299.57 45.739 299.849 45.4589C300.223 45.0855 300.223 44.6188 299.849 44.2454C299.57 43.9654 299.01 43.9654 298.73 44.2454C298.356 44.6188 298.356 45.0855 298.73 45.4589Z" fill="#B0BADB"/>
<path d="M287.629 49.4697C287.909 49.7497 288.468 49.7497 288.842 49.4697C289.122 49.0963 289.122 48.6295 288.842 48.2561C288.468 47.9761 287.909 47.9761 287.629 48.2561C287.255 48.6295 287.255 49.0963 287.629 49.4697Z" fill="#B0BADB"/>
<path d="M213.558 37.1545C213.932 37.5279 214.491 37.5279 214.771 37.1545C215.145 36.8745 215.145 36.3144 214.771 36.0344C214.491 35.661 213.932 35.661 213.558 36.0344C213.278 36.3144 213.278 36.8745 213.558 37.1545Z" fill="#B0BADB"/>
<path d="M276.061 42.192C276.248 42.3787 276.434 42.3787 276.621 42.192C276.807 42.0987 276.807 41.8186 276.621 41.6319C276.434 41.4452 276.248 41.4452 276.061 41.6319C275.874 41.8186 275.874 42.0987 276.061 42.192Z" fill="#B0BADB"/>
<path d="M650.517 156.853C650.703 157.04 650.983 157.04 651.077 156.853C651.263 156.666 651.263 156.48 651.077 156.293C650.983 156.106 650.703 156.106 650.517 156.293C650.33 156.48 650.33 156.666 650.517 156.853Z" fill="#B0BADB"/>
<path d="M285.296 42.6595C285.39 42.7528 285.67 42.7528 285.856 42.6595C286.043 42.4728 286.043 42.1928 285.856 42.0061C285.67 41.9127 285.39 41.9127 285.296 42.0061C285.11 42.1928 285.11 42.4728 285.296 42.6595Z" fill="#B0BADB"/>
<path d="M273.542 35.2883C273.822 35.6617 274.382 35.6617 274.662 35.2883C275.035 35.0083 275.035 34.4482 274.662 34.1681C274.382 33.7948 273.822 33.7948 273.542 34.1681C273.169 34.4482 273.169 35.0083 273.542 35.2883Z" fill="#B0BADB"/>
<path d="M527.657 280.935C528.03 281.216 528.59 281.216 528.87 280.935C529.243 280.562 529.243 280.002 528.87 279.722C528.59 279.349 528.03 279.349 527.657 279.722C527.377 280.002 527.377 280.562 527.657 280.935Z" fill="#B0BADB"/>
<path d="M300.502 34.6365C301.249 35.3829 302.369 35.3829 303.022 34.6365C303.768 33.9835 303.768 32.8639 303.022 32.2109C302.369 31.4645 301.249 31.4645 300.502 32.2109C299.849 32.8639 299.849 33.9835 300.502 34.6365Z" fill="#B0BADB"/>
<path d="M220.368 60.8515C220.742 61.1315 221.208 61.1315 221.581 60.8515C221.861 60.4781 221.861 60.0114 221.581 59.638C221.208 59.358 220.742 59.358 220.368 59.638C220.088 60.0114 220.088 60.4781 220.368 60.8515Z" fill="#B0BADB"/>
<path d="M245.556 64.3971C245.743 64.5838 246.022 64.5838 246.116 64.3971C246.302 64.2104 246.302 63.9303 246.116 63.837C246.022 63.6503 245.743 63.6503 245.556 63.837C245.369 63.9303 245.369 64.2104 245.556 64.3971Z" fill="#B0BADB"/>
<path d="M535.96 214.136C536.333 214.509 536.8 214.509 537.173 214.136C537.453 213.856 537.453 213.296 537.173 213.016C536.8 212.642 536.333 212.642 535.96 213.016C535.68 213.296 535.68 213.856 535.96 214.136Z" fill="#B0BADB"/>
<path d="M599.395 280.656C600.142 281.309 601.261 281.309 601.915 280.656C602.661 279.909 602.661 278.79 601.915 278.137C601.261 277.39 600.142 277.39 599.395 278.137C598.742 278.79 598.742 279.909 599.395 280.656Z" fill="#B0BADB"/>
<path d="M655.088 127.185C655.461 127.465 655.928 127.465 656.301 127.185C656.581 126.811 656.581 126.344 656.301 125.971C655.928 125.691 655.461 125.691 655.088 125.971C654.808 126.344 654.808 126.811 655.088 127.185Z" fill="#B0BADB"/>
<path d="M555.363 255.746C555.643 256.026 556.203 256.026 556.483 255.746C556.856 255.373 556.856 254.906 556.483 254.533C556.203 254.252 555.643 254.252 555.363 254.533C554.99 254.906 554.99 255.373 555.363 255.746Z" fill="#B0BADB"/>
<path d="M543.796 248.562C543.889 248.655 544.169 248.655 544.356 248.562C544.542 248.375 544.542 248.095 544.356 247.908C544.169 247.815 543.889 247.815 543.796 247.908C543.609 248.095 543.609 248.375 543.796 248.562Z" fill="#B0BADB"/>
<path d="M552.938 248.936C553.125 249.029 553.404 249.029 553.591 248.936C553.684 248.749 553.684 248.469 553.591 248.282C553.404 248.189 553.125 248.189 552.938 248.282C552.845 248.469 552.845 248.749 552.938 248.936Z" fill="#B0BADB"/>
<path d="M541.184 241.565C541.557 241.938 542.024 241.938 542.397 241.565C542.677 241.285 542.677 240.725 542.397 240.445C542.024 240.071 541.557 240.071 541.184 240.445C540.904 240.725 540.904 241.285 541.184 241.565Z" fill="#B0BADB"/>
<path d="M203.297 27.4526C204.043 28.1056 205.163 28.1056 205.816 27.4526C206.469 26.7062 206.469 25.5867 205.816 24.9337C205.163 24.2806 204.043 24.2806 203.297 24.9337C202.644 25.5867 202.644 26.7062 203.297 27.4526Z" fill="#B0BADB"/>
<path d="M232.962 33.1435C233.242 33.4235 233.802 33.4235 234.082 33.1435C234.455 32.7701 234.455 32.3033 234.082 31.93C233.802 31.6499 233.242 31.6499 232.962 31.93C232.589 32.3033 232.589 32.7701 232.962 33.1435Z" fill="#B0BADB"/>
<path d="M495.38 213.67C495.753 214.044 496.22 214.044 496.593 213.67C496.873 213.39 496.873 212.83 496.593 212.55C496.22 212.177 495.753 212.177 495.38 212.55C495.1 212.83 495.1 213.39 495.38 213.67Z" fill="#B0BADB"/>
<path d="M462.169 240.165C462.449 240.539 463.009 240.539 463.289 240.165C463.662 239.885 463.662 239.325 463.289 238.952C463.009 238.672 462.449 238.672 462.169 238.952C461.796 239.325 461.796 239.885 462.169 240.165Z" fill="#B0BADB"/>
<path d="M826.084 115.617C827.016 116.643 828.602 116.643 829.628 115.617C830.561 114.684 830.561 113.098 829.628 112.072C828.602 111.139 827.016 111.139 826.084 112.072C825.057 113.098 825.057 114.684 826.084 115.617Z" fill="#B0BADB"/>
<path d="M683.914 208.724C684.846 209.751 686.432 209.751 687.458 208.724C688.391 207.792 688.391 206.205 687.458 205.273C686.432 204.246 684.846 204.246 683.914 205.273C682.887 206.205 682.887 207.792 683.914 208.724Z" fill="#B0BADB"/>
<path d="M876.645 151.815C877.578 152.748 879.164 152.748 880.19 151.815C881.123 150.789 881.123 149.203 880.19 148.27C879.164 147.243 877.578 147.243 876.645 148.27C875.619 149.203 875.619 150.789 876.645 151.815Z" fill="#B0BADB"/>
<path d="M810.318 145.845C810.971 146.591 812.091 146.591 812.838 145.845C813.491 145.191 813.491 144.072 812.838 143.419C812.091 142.672 810.971 142.672 810.318 143.419C809.665 144.072 809.665 145.191 810.318 145.845Z" fill="#B0BADB"/>
<path d="M908.643 191.652C909.296 192.305 910.416 192.305 911.163 191.652C911.816 190.999 911.816 189.879 911.163 189.133C910.416 188.48 909.296 188.48 908.643 189.133C907.897 189.879 907.897 190.999 908.643 191.652Z" fill="#B0BADB"/>
<path d="M894.463 177.938C895.21 178.591 896.33 178.591 896.983 177.938C897.636 177.285 897.636 176.165 896.983 175.419C896.33 174.766 895.21 174.766 894.463 175.419C893.81 176.165 893.81 177.285 894.463 177.938Z" fill="#B0BADB"/>
<path d="M842.316 76.4324C843.062 77.1788 844.182 77.1788 844.835 76.4324C845.582 75.7793 845.582 74.6598 844.835 73.9134C844.182 73.2604 843.062 73.2604 842.316 73.9134C841.663 74.6598 841.663 75.7793 842.316 76.4324Z" fill="#B0BADB"/>
<path d="M817.035 110.858C817.315 111.138 817.875 111.138 818.155 110.858C818.528 110.485 818.528 109.925 818.155 109.645C817.875 109.271 817.315 109.271 817.035 109.645C816.662 109.925 816.662 110.485 817.035 110.858Z" fill="#B0BADB"/>
<path d="M845.674 71.954C846.047 72.2341 846.514 72.2341 846.887 71.954C847.167 71.5806 847.167 71.1139 846.887 70.7405C846.514 70.4605 846.047 70.4605 845.674 70.7405C845.394 71.1139 845.394 71.5806 845.674 71.954Z" fill="#B0BADB"/>
<path d="M896.889 79.3241C897.262 79.6042 897.729 79.6042 898.102 79.3241C898.382 78.9508 898.382 78.484 898.102 78.1106C897.729 77.8306 897.262 77.8306 896.889 78.1106C896.609 78.484 896.609 78.9508 896.889 79.3241Z" fill="#B0BADB"/>
<path d="M922.263 85.4817C922.543 85.8551 923.103 85.8551 923.383 85.4817C923.756 85.2016 923.756 84.6416 923.383 84.3615C923.103 83.9881 922.543 83.9881 922.263 84.3615C921.89 84.6416 921.89 85.2016 922.263 85.4817Z" fill="#B0BADB"/>
<path d="M858.921 86.3215C859.201 86.6949 859.761 86.6949 860.041 86.3215C860.414 86.0415 860.414 85.4814 860.041 85.108C859.761 84.828 859.201 84.828 858.921 85.108C858.548 85.4814 858.548 86.0415 858.921 86.3215Z" fill="#B0BADB"/>
<path d="M704.53 232.142C704.81 232.422 705.37 232.422 705.65 232.142C706.023 231.768 706.023 231.301 705.65 230.928C705.37 230.648 704.81 230.648 704.53 230.928C704.157 231.301 704.157 231.768 704.53 232.142Z" fill="#B0BADB"/>
<path d="M847.82 90.3332C848.193 90.7066 848.659 90.7066 849.033 90.3332C849.313 90.0532 849.313 89.4931 849.033 89.1197C848.659 88.8397 848.193 88.8397 847.82 89.1197C847.54 89.4931 847.54 90.0532 847.82 90.3332Z" fill="#B0BADB"/>
<path d="M836.252 83.149C836.439 83.3357 836.718 83.3357 836.812 83.149C836.998 82.9623 836.998 82.6823 836.812 82.4956C836.718 82.4023 836.439 82.4023 836.252 82.4956C836.065 82.6823 836.065 82.9623 836.252 83.149Z" fill="#B0BADB"/>
<path d="M845.487 83.5221C845.674 83.7088 845.861 83.7088 846.047 83.5221C846.234 83.3354 846.234 83.0553 846.047 82.962C845.861 82.7753 845.674 82.7753 845.487 82.962C845.301 83.0553 845.301 83.3354 845.487 83.5221Z" fill="#B0BADB"/>
<path d="M833.733 76.245C834.013 76.5251 834.573 76.5251 834.853 76.245C835.226 75.8717 835.226 75.3116 834.853 75.0316C834.573 74.7515 834.013 74.7515 833.733 75.0316C833.36 75.3116 833.36 75.8717 833.733 76.245Z" fill="#B0BADB"/>
<path d="M665.629 117.949C666.003 118.229 666.469 118.229 666.842 117.949C667.122 117.576 667.122 117.109 666.842 116.736C666.469 116.456 666.003 116.456 665.629 116.736C665.349 117.109 665.349 117.576 665.629 117.949Z" fill="#B0BADB"/>
<path d="M677.197 125.319C677.477 125.692 678.037 125.692 678.317 125.319C678.69 125.039 678.69 124.478 678.317 124.198C678.037 123.825 677.477 123.825 677.197 124.198C676.824 124.478 676.824 125.039 677.197 125.319Z" fill="#B0BADB"/>
<path d="M991.202 102.461C991.202 101.155 990.083 100.036 988.684 100.036C987.284 100.036 986.165 101.155 986.165 102.461C986.165 103.861 987.284 104.98 988.684 104.98C990.083 104.98 991.202 103.861 991.202 102.461Z" fill="#B0BADB"/>
<path d="M988.684 149.669C988.684 148.362 987.564 147.243 986.165 147.243C984.859 147.243 983.74 148.362 983.74 149.669C983.74 151.068 984.859 152.188 986.165 152.188C987.564 152.188 988.684 151.068 988.684 149.669Z" fill="#B0BADB"/>
<path d="M1023.67 92.2924C1023.67 91.2661 1022.92 90.5198 1021.89 90.5198C1020.96 90.5198 1020.21 91.2661 1020.21 92.2924C1020.21 93.2253 1020.96 93.9717 1021.89 93.9717C1022.92 93.9717 1023.67 93.2253 1023.67 92.2924Z" fill="#B0BADB"/>
<path d="M658.82 112.258C658.82 111.231 657.98 110.485 657.047 110.485C656.021 110.485 655.274 111.231 655.274 112.258C655.274 113.191 656.021 114.03 657.047 114.03C657.98 114.03 658.82 113.191 658.82 112.258Z" fill="#B0BADB"/>
<path d="M1039.15 218.988C1039.15 217.962 1038.41 217.216 1037.38 217.216C1036.45 217.216 1035.61 217.962 1035.61 218.988C1035.61 219.921 1036.45 220.761 1037.38 220.761C1038.41 220.761 1039.15 219.921 1039.15 218.988Z" fill="#B0BADB"/>
<path d="M1040.46 144.165C1040.46 143.139 1039.71 142.392 1038.69 142.392C1037.75 142.392 1037.01 143.139 1037.01 144.165C1037.01 145.098 1037.75 145.938 1038.69 145.938C1039.71 145.938 1040.46 145.098 1040.46 144.165Z" fill="#B0BADB"/>
<path d="M674.679 182.136C674.679 181.483 674.119 180.83 673.372 180.83C672.719 180.83 672.159 181.483 672.159 182.136C672.159 182.883 672.719 183.442 673.372 183.442C674.119 183.442 674.679 182.883 674.679 182.136Z" fill="#B0BADB"/>
<path d="M994.188 112.35C994.188 111.884 993.815 111.51 993.348 111.51C992.882 111.51 992.508 111.884 992.508 112.35C992.508 112.817 992.882 113.19 993.348 113.19C993.815 113.19 994.188 112.817 994.188 112.35Z" fill="#B0BADB"/>
<path d="M653.222 113.097C653.222 112.63 652.849 112.257 652.383 112.257C651.916 112.257 651.543 112.63 651.543 113.097C651.543 113.47 651.916 113.844 652.383 113.844C652.849 113.844 653.222 113.47 653.222 113.097Z" fill="#B0BADB"/>
<path d="M654.062 93.5046C654.062 93.0379 653.689 92.6645 653.222 92.6645C652.756 92.6645 652.382 93.0379 652.382 93.5046C652.382 93.9713 652.756 94.3447 653.222 94.3447C653.689 94.3447 654.062 93.9713 654.062 93.5046Z" fill="#B0BADB"/>
<path d="M664.79 98.5427C664.79 98.0759 664.417 97.7026 663.95 97.7026C663.484 97.7026 663.11 98.0759 663.11 98.5427C663.11 99.0094 663.484 99.3828 663.95 99.3828C664.417 99.3828 664.79 99.0094 664.79 98.5427Z" fill="#B0BADB"/>
<path d="M853.977 300.06C853.977 299.594 853.604 299.22 853.137 299.22C852.764 299.22 852.391 299.594 852.391 300.06C852.391 300.527 852.764 300.9 853.137 300.9C853.604 300.9 853.977 300.527 853.977 300.06Z" fill="#B0BADB"/>
<path d="M1001.56 165.995C1001.56 165.528 1001.18 165.155 1000.72 165.155C1000.25 165.155 999.878 165.528 999.878 165.995C999.878 166.462 1000.25 166.835 1000.72 166.835C1001.18 166.835 1001.56 166.462 1001.56 165.995Z" fill="#B0BADB"/>
<path d="M667.868 111.791C667.868 111.604 667.682 111.418 667.402 111.418C667.215 111.418 667.029 111.604 667.029 111.791C667.029 112.071 667.215 112.258 667.402 112.258C667.682 112.258 667.868 112.071 667.868 111.791Z" fill="#B0BADB"/>
<path d="M661.618 104.981C661.618 104.794 661.431 104.607 661.152 104.607C660.965 104.607 660.778 104.794 660.778 104.981C660.778 105.261 660.965 105.447 661.152 105.447C661.431 105.447 661.618 105.261 661.618 104.981Z" fill="#B0BADB"/>
<path d="M664.79 118.508C664.79 118.041 664.417 117.667 663.95 117.667C663.484 117.667 663.11 118.041 663.11 118.508C663.11 118.974 663.484 119.348 663.95 119.348C664.417 119.348 664.79 118.974 664.79 118.508Z" fill="#B0BADB"/>
<path d="M935.697 225.238C935.697 224.771 935.324 224.398 934.857 224.398C934.39 224.398 934.017 224.771 934.017 225.238C934.017 225.705 934.39 226.078 934.857 226.078C935.324 226.078 935.697 225.705 935.697 225.238Z" fill="#B0BADB"/>
<path d="M687.086 212.736C687.086 212.269 686.713 211.896 686.246 211.896C685.779 211.896 685.406 212.269 685.406 212.736C685.406 213.203 685.779 213.576 686.246 213.576C686.713 213.576 687.086 213.203 687.086 212.736Z" fill="#B0BADB"/>
<path d="M1038.69 295.023C1039.71 295.956 1041.3 295.956 1042.23 295.023C1043.26 293.997 1043.26 292.411 1042.23 291.478C1041.3 290.451 1039.71 290.451 1038.69 291.478C1037.75 292.411 1037.75 293.997 1038.69 295.023Z" fill="white"/>
<path d="M1110.89 202.101C1111.82 203.034 1113.41 203.034 1114.44 202.101C1115.37 201.075 1115.37 199.489 1114.44 198.556C1113.41 197.53 1111.82 197.53 1110.89 198.556C1109.86 199.489 1109.86 201.075 1110.89 202.101Z" fill="#B0BADB"/>
<path d="M1078.15 242.684C1078.89 243.337 1080.01 243.337 1080.67 242.684C1081.41 241.938 1081.41 240.818 1080.67 240.165C1080.01 239.512 1078.89 239.512 1078.15 240.165C1077.49 240.818 1077.49 241.938 1078.15 242.684Z" fill="#B0BADB"/>
<path d="M1142.61 301.46C1142.98 301.834 1143.54 301.834 1143.82 301.46C1144.19 301.18 1144.19 300.62 1143.82 300.34C1143.54 299.967 1142.98 299.967 1142.61 300.34C1142.33 300.62 1142.33 301.18 1142.61 301.46Z" fill="#B0BADB"/>
<path d="M1045.4 274.311C1045.59 274.498 1045.87 274.498 1045.96 274.311C1046.15 274.218 1046.15 273.938 1045.96 273.751C1045.87 273.564 1045.59 273.564 1045.4 273.751C1045.22 273.938 1045.22 274.218 1045.4 274.311Z" fill="#B0BADB"/>
<path d="M1011.35 273.846C1011.63 274.126 1012.19 274.126 1012.47 273.846C1012.85 273.472 1012.85 273.006 1012.47 272.632C1012.19 272.352 1011.63 272.352 1011.35 272.632C1010.98 273.006 1010.98 273.472 1011.35 273.846Z" fill="#B0BADB"/>
<path d="M1069.75 221.319C1070.12 221.599 1070.59 221.599 1070.96 221.319C1071.24 220.946 1071.24 220.479 1070.96 220.106C1070.59 219.826 1070.12 219.826 1069.75 220.106C1069.47 220.479 1069.47 220.946 1069.75 221.319Z" fill="#B0BADB"/>
<path d="M1000.16 229.156C1000.44 229.53 1001 229.53 1001.37 229.156C1001.65 228.876 1001.65 228.316 1001.37 228.036C1001 227.663 1000.44 227.663 1000.16 228.036C999.785 228.316 999.785 228.876 1000.16 229.156Z" fill="#B0BADB"/>
<path d="M1027.77 126.626C1027.96 126.812 1028.24 126.812 1028.33 126.626C1028.52 126.532 1028.52 126.252 1028.33 126.066C1028.24 125.879 1027.96 125.879 1027.77 126.066C1027.58 126.252 1027.58 126.532 1027.77 126.626Z" fill="#B0BADB"/>
<path d="M1019.56 207.045C1019.94 207.419 1020.4 207.419 1020.77 207.045C1021.05 206.765 1021.05 206.205 1020.77 205.925C1020.4 205.552 1019.94 205.552 1019.56 205.925C1019.28 206.205 1019.28 206.765 1019.56 207.045Z" fill="#B0BADB"/>
<path d="M1023.29 306.125C1024.04 306.871 1025.16 306.871 1025.81 306.125C1026.47 305.472 1026.47 304.352 1025.81 303.606C1025.16 302.953 1024.04 302.953 1023.29 303.606C1022.64 304.352 1022.64 305.472 1023.29 306.125Z" fill="#B0BADB"/>
<path d="M606.205 8.2332C606.952 8.97956 608.071 8.97956 608.725 8.2332C609.378 7.58013 609.378 6.46061 608.725 5.80754C608.071 5.06118 606.952 5.06118 606.205 5.80754C605.552 6.46061 605.552 7.58013 606.205 8.2332Z" fill="#B0BADB"/>
<path d="M1080.01 256.119C1080.29 256.399 1080.85 256.399 1081.13 256.119C1081.51 255.746 1081.51 255.279 1081.13 254.906C1080.85 254.626 1080.29 254.626 1080.01 254.906C1079.64 255.279 1079.64 255.746 1080.01 256.119Z" fill="#B0BADB"/>
<path d="M928.98 266.662C929.26 266.942 929.82 266.942 930.099 266.662C930.473 266.289 930.473 265.822 930.099 265.449C929.82 265.169 929.26 265.169 928.98 265.449C928.607 265.822 928.607 266.289 928.98 266.662Z" fill="#B0BADB"/>
<path d="M1027.4 241.472C1027.49 241.565 1027.77 241.565 1027.96 241.472C1028.14 241.285 1028.14 241.005 1027.96 240.819C1027.77 240.725 1027.49 240.725 1027.4 240.819C1027.21 241.005 1027.21 241.285 1027.4 241.472Z" fill="#B0BADB"/>
<path d="M1036.54 241.845C1036.73 242.032 1037.01 242.032 1037.19 241.845C1037.29 241.659 1037.29 241.379 1037.19 241.192C1037.01 241.099 1036.73 241.099 1036.54 241.192C1036.45 241.379 1036.45 241.659 1036.54 241.845Z" fill="#B0BADB"/>
<path d="M1024.79 234.475C1025.16 234.848 1025.63 234.848 1026 234.475C1026.28 234.195 1026.28 233.635 1026 233.355C1025.63 232.981 1025.16 232.981 1024.79 233.355C1024.51 233.635 1024.51 234.195 1024.79 234.475Z" fill="#B0BADB"/>
<path d="M850.806 222.066C850.806 221.133 850.059 220.294 849.033 220.294C848.1 220.294 847.26 221.133 847.26 222.066C847.26 223.093 848.1 223.839 849.033 223.839C850.059 223.839 850.806 223.093 850.806 222.066Z" fill="#B0BADB"/>
<path d="M850.432 233.541C851.364 234.474 852.95 234.474 853.883 233.541C854.909 232.515 854.909 230.929 853.883 229.996C852.95 228.97 851.364 228.97 850.432 229.996C849.405 230.929 849.405 232.515 850.432 233.541Z" fill="#B0BADB"/>
<path d="M889.892 245.762C890.545 246.509 891.665 246.509 892.318 245.762C893.065 245.109 893.065 243.99 892.318 243.337C891.665 242.59 890.545 242.59 889.892 243.337C889.146 243.99 889.146 245.109 889.892 245.762Z" fill="#B0BADB"/>
<path d="M857.055 277.484C857.242 277.671 857.522 277.671 857.615 277.484C857.802 277.297 857.802 277.111 857.615 276.924C857.522 276.737 857.242 276.737 857.055 276.924C856.868 277.111 856.868 277.297 857.055 277.484Z" fill="#B0BADB"/>
<path d="M823.005 276.924C823.285 277.297 823.845 277.297 824.125 276.924C824.498 276.644 824.498 276.084 824.125 275.804C823.845 275.431 823.285 275.431 823.005 275.804C822.632 276.084 822.632 276.644 823.005 276.924Z" fill="#B0BADB"/>
<path d="M811.811 232.328C812.091 232.702 812.651 232.702 813.024 232.328C813.304 232.048 813.304 231.488 813.024 231.115C812.651 230.835 812.091 230.835 811.811 231.115C811.531 231.488 811.531 232.048 811.811 232.328Z" fill="#B0BADB"/>
<path d="M831.215 210.217C831.588 210.59 832.054 210.59 832.428 210.217C832.707 209.937 832.707 209.377 832.428 209.097C832.054 208.723 831.588 208.723 831.215 209.097C830.935 209.377 830.935 209.937 831.215 210.217Z" fill="#B0BADB"/>
<path d="M845.114 237.926C845.768 238.579 846.887 238.579 847.634 237.926C848.287 237.18 848.287 236.06 847.634 235.407C846.887 234.754 845.768 234.754 845.114 235.407C844.461 236.06 844.461 237.18 845.114 237.926Z" fill="#B0BADB"/>
<path d="M861.626 247.815C861.999 248.095 862.559 248.095 862.839 247.815C863.212 247.442 863.212 246.975 862.839 246.602C862.559 246.322 861.999 246.322 861.626 246.602C861.346 246.975 861.346 247.442 861.626 247.815Z" fill="#B0BADB"/>
<path d="M850.618 251.827C850.898 252.107 851.458 252.107 851.738 251.827C852.111 251.454 852.111 250.987 851.738 250.614C851.458 250.334 850.898 250.334 850.618 250.614C850.245 250.987 850.245 251.454 850.618 251.827Z" fill="#B0BADB"/>
<path d="M839.051 244.55C839.144 244.737 839.424 244.737 839.61 244.55C839.797 244.457 839.797 244.177 839.61 243.99C839.424 243.804 839.144 243.804 839.051 243.99C838.864 244.177 838.864 244.457 839.051 244.55Z" fill="#B0BADB"/>
<path d="M848.286 245.017C848.379 245.11 848.659 245.11 848.846 245.017C849.033 244.83 849.033 244.55 848.846 244.363C848.659 244.177 848.379 244.177 848.286 244.363C848.099 244.55 848.099 244.83 848.286 245.017Z" fill="#B0BADB"/>
<path d="M836.439 237.647C836.812 238.02 837.278 238.02 837.652 237.647C837.932 237.367 837.932 236.807 837.652 236.527C837.278 236.153 836.812 236.153 836.439 236.527C836.159 236.807 836.159 237.367 836.439 237.647Z" fill="#B0BADB"/>
<path d="M1077.59 136.141C1078.24 136.794 1079.36 136.794 1080.11 136.141C1080.76 135.488 1080.76 134.368 1080.11 133.622C1079.36 132.969 1078.24 132.969 1077.59 133.622C1076.84 134.368 1076.84 135.488 1077.59 136.141Z" fill="#B0BADB"/>
<path d="M1079.92 189.88C1080.67 190.626 1081.79 190.626 1082.44 189.88C1083.18 189.227 1083.18 188.107 1082.44 187.454C1081.79 186.708 1080.67 186.708 1079.92 187.454C1079.27 188.107 1079.27 189.227 1079.92 189.88Z" fill="#B0BADB"/>
<path d="M1072.36 112.071C1072.83 112.631 1073.67 112.631 1074.14 112.071C1074.7 111.605 1074.7 110.765 1074.14 110.205C1073.67 109.739 1072.83 109.739 1072.36 110.205C1071.8 110.765 1071.8 111.605 1072.36 112.071Z" fill="#B0BADB"/>
<path d="M1080.94 131.663C1081.22 131.943 1081.78 131.943 1082.06 131.663C1082.44 131.29 1082.44 130.823 1082.06 130.45C1081.78 130.169 1081.22 130.169 1080.94 130.45C1080.57 130.823 1080.57 131.29 1080.94 131.663Z" fill="#B0BADB"/>
<path d="M1094.1 146.03C1094.47 146.31 1094.94 146.31 1095.31 146.03C1095.59 145.657 1095.59 145.19 1095.31 144.817C1094.94 144.537 1094.47 144.537 1094.1 144.817C1093.82 145.19 1093.82 145.657 1094.1 146.03Z" fill="#B0BADB"/>
<path d="M1131.79 196.876C1132.07 197.156 1132.63 197.156 1132.91 196.876C1133.28 196.503 1133.28 196.036 1132.91 195.662C1132.63 195.382 1132.07 195.382 1131.79 195.662C1131.41 196.036 1131.41 196.503 1131.79 196.876Z" fill="#B0BADB"/>
<path d="M1083.09 150.043C1083.37 150.323 1083.93 150.323 1084.21 150.043C1084.58 149.67 1084.58 149.203 1084.21 148.829C1083.93 148.549 1083.37 148.549 1083.09 148.829C1082.72 149.203 1082.72 149.67 1083.09 150.043Z" fill="#B0BADB"/>
<path d="M1071.43 142.859C1071.62 142.952 1071.9 142.952 1072.08 142.859C1072.27 142.672 1072.27 142.392 1072.08 142.205C1071.9 142.112 1071.62 142.112 1071.43 142.205C1071.34 142.392 1071.34 142.672 1071.43 142.859Z" fill="#B0BADB"/>
<path d="M1055.57 108.619C1055.76 108.713 1055.94 108.713 1056.13 108.619C1056.32 108.433 1056.32 108.153 1056.13 107.966C1055.94 107.873 1055.76 107.873 1055.57 107.966C1055.38 108.153 1055.38 108.433 1055.57 108.619Z" fill="#B0BADB"/>
<path d="M1103.99 102.088C1104.08 102.182 1104.36 102.182 1104.55 102.088C1104.73 101.901 1104.73 101.621 1104.55 101.435C1104.36 101.341 1104.08 101.341 1103.99 101.435C1103.8 101.621 1103.8 101.901 1103.99 102.088Z" fill="#B0BADB"/>
<path d="M1080.67 143.231C1080.85 143.324 1081.13 143.324 1081.32 143.231C1081.41 143.044 1081.41 142.764 1081.32 142.577C1081.13 142.484 1080.85 142.484 1080.67 142.577C1080.57 142.764 1080.57 143.044 1080.67 143.231Z" fill="#B0BADB"/>
<path d="M1068.91 135.861C1069.28 136.234 1069.75 136.234 1070.12 135.861C1070.4 135.581 1070.4 135.02 1070.12 134.74C1069.75 134.367 1069.28 134.367 1068.91 134.74C1068.63 135.02 1068.63 135.581 1068.91 135.861Z" fill="#B0BADB"/>
<path d="M1012.19 136.421C1012.47 136.701 1013.03 136.701 1013.31 136.421C1013.69 136.047 1013.69 135.581 1013.31 135.207C1013.03 134.927 1012.47 134.927 1012.19 135.207C1011.82 135.581 1011.82 136.047 1012.19 136.421Z" fill="#B0BADB"/>
<path d="M1095.31 108.339C1095.68 108.619 1096.15 108.619 1096.52 108.339C1096.8 107.965 1096.8 107.499 1096.52 107.125C1096.15 106.845 1095.68 106.845 1095.31 107.125C1095.03 107.499 1095.03 107.965 1095.31 108.339Z" fill="#B0BADB"/>
<path d="M988.87 59.5457C989.523 60.2921 990.643 60.2921 991.39 59.5457C992.043 58.8926 992.043 57.7731 991.39 57.0267C990.643 56.3736 989.523 56.3736 988.87 57.0267C988.217 57.7731 988.217 58.8926 988.87 59.5457Z" fill="#B0BADB"/>
<path d="M907.524 66.4498C907.71 66.6365 907.99 66.6365 908.083 66.4498C908.27 66.2631 908.27 65.9831 908.083 65.8897C907.99 65.703 907.71 65.703 907.524 65.8897C907.337 65.9831 907.337 66.2631 907.524 66.4498Z" fill="#B0BADB"/>
<path d="M1272 284.202C1272.74 284.855 1273.86 284.855 1274.52 284.202C1275.17 283.455 1275.17 282.336 1274.52 281.683C1273.86 280.936 1272.74 280.936 1272 281.683C1271.34 282.336 1271.34 283.455 1272 284.202Z" fill="#B0BADB"/>
<path d="M1257.91 270.392C1258.56 271.139 1259.68 271.139 1260.43 270.392C1261.08 269.739 1261.08 268.62 1260.43 267.967C1259.68 267.22 1258.56 267.22 1257.91 267.967C1257.16 268.62 1257.16 269.739 1257.91 270.392Z" fill="#B0BADB"/>
<path d="M1260.34 171.78C1260.62 172.153 1261.18 172.153 1261.46 171.78C1261.83 171.499 1261.83 170.939 1261.46 170.659C1261.18 170.286 1260.62 170.286 1260.34 170.659C1259.96 170.939 1259.96 171.499 1260.34 171.78Z" fill="#B0BADB"/>
<path d="M1285.62 178.031C1285.9 178.311 1286.46 178.311 1286.83 178.031C1287.11 177.658 1287.11 177.098 1286.83 176.818C1286.46 176.444 1285.9 176.444 1285.62 176.818C1285.34 177.098 1285.34 177.658 1285.62 178.031Z" fill="#B0BADB"/>
<path d="M1354.56 195.01C1354.56 193.611 1353.44 192.491 1352.13 192.491C1350.73 192.491 1349.61 193.611 1349.61 195.01C1349.61 196.41 1350.73 197.529 1352.13 197.529C1353.44 197.529 1354.56 196.41 1354.56 195.01Z" fill="white"/>
<path d="M1352.13 242.218C1352.13 240.819 1351.01 239.699 1349.61 239.699C1348.21 239.699 1347.09 240.819 1347.09 242.218C1347.09 243.618 1348.21 244.737 1349.61 244.737C1351.01 244.737 1352.13 243.618 1352.13 242.218Z" fill="#B0BADB"/>
<path d="M1357.64 204.805C1357.64 204.339 1357.26 203.965 1356.8 203.965C1356.33 203.965 1355.96 204.339 1355.96 204.805C1355.96 205.272 1356.33 205.646 1356.8 205.646C1357.26 205.646 1357.64 205.272 1357.64 204.805Z" fill="#B0BADB"/>
<path d="M1299.05 317.786C1299.05 317.319 1298.68 316.946 1298.21 316.946C1297.75 316.946 1297.37 317.319 1297.37 317.786C1297.37 318.253 1297.75 318.626 1298.21 318.626C1298.68 318.626 1299.05 318.253 1299.05 317.786Z" fill="#B0BADB"/>
<path d="M37.6181 238.58C38.551 239.513 40.1369 239.513 41.1631 238.58C42.0959 237.647 42.0959 236.061 41.1631 235.034C40.1369 234.101 38.551 234.101 37.6181 235.034C36.6853 236.061 36.6853 237.647 37.6181 238.58Z" fill="#B0BADB"/>
<path d="M1253.25 338.312C1253.9 338.965 1255.02 338.965 1255.77 338.312C1256.42 337.659 1256.42 336.539 1255.77 335.793C1255.02 335.14 1253.9 335.14 1253.25 335.793C1252.59 336.539 1252.59 337.659 1253.25 338.312Z" fill="#B0BADB"/>
<path d="M1352.22 152.094C1352.97 152.747 1354.09 152.747 1354.74 152.094C1355.4 151.348 1355.4 150.228 1354.74 149.575C1354.09 148.922 1352.97 148.922 1352.22 149.575C1351.57 150.228 1351.57 151.348 1352.22 152.094Z" fill="#B0BADB"/>
<path d="M1270.88 158.906C1271.06 159.093 1271.34 159.093 1271.53 158.906C1271.72 158.813 1271.72 158.532 1271.53 158.346C1271.34 158.159 1271.06 158.159 1270.88 158.346C1270.78 158.532 1270.78 158.813 1270.88 158.906Z" fill="#B0BADB"/>
<path d="M47.7866 113.751C48.5331 114.497 49.6528 114.497 50.306 113.751C50.9592 113.098 50.9592 111.978 50.306 111.325C49.6528 110.579 48.5331 110.579 47.7866 111.325C47.1335 111.978 47.1335 113.098 47.7866 113.751Z" fill="#B0BADB"/>
<path d="M33.7002 100.036C34.3534 100.782 35.4731 100.782 36.1263 100.036C36.8728 99.3829 36.8728 98.2633 36.1263 97.6102C35.4731 96.8639 34.3534 96.8639 33.7002 97.6102C32.9537 98.2633 32.9537 99.3829 33.7002 100.036Z" fill="#B0BADB"/>
<path d="M36.1256 1.42211C36.4056 1.7955 36.9654 1.7955 37.2454 1.42211C37.6186 1.14207 37.6186 0.581999 37.2454 0.208611C36.9654 -0.0714289 36.4056 -0.0714289 36.1256 0.208611C35.7524 0.581999 35.7524 1.14207 36.1256 1.42211Z" fill="#B0BADB"/>
<path d="M61.4065 7.58031C61.6864 7.9537 62.2463 7.9537 62.6195 7.58031C62.8995 7.30027 62.8995 6.74018 62.6195 6.46014C62.2463 6.08675 61.6864 6.08675 61.4065 6.46014C61.0332 6.74018 61.0332 7.30027 61.4065 7.58031Z" fill="#B0BADB"/>
<path d="M130.346 24.6534C130.346 23.254 129.226 22.1345 127.827 22.1345C126.521 22.1345 125.402 23.254 125.402 24.6534C125.402 25.9595 126.521 27.0791 127.827 27.0791C129.226 27.0791 130.346 25.9595 130.346 24.6534Z" fill="#B0BADB"/>
<path d="M127.827 71.8605C127.827 70.461 126.708 69.3415 125.402 69.3415C124.002 69.3415 122.883 70.461 122.883 71.8605C122.883 73.1666 124.002 74.2861 125.402 74.2861C126.708 74.2861 127.827 73.1666 127.827 71.8605Z" fill="#B0BADB"/>
<path d="M162.904 14.3905C162.904 13.3642 162.064 12.6179 161.131 12.6179C160.105 12.6179 159.358 13.3642 159.358 14.3905C159.358 15.3234 160.105 16.1631 161.131 16.1631C162.064 16.1631 162.904 15.3234 162.904 14.3905Z" fill="#B0BADB"/>
<path d="M178.296 141.086C178.296 140.06 177.55 139.313 176.617 139.313C175.59 139.313 174.844 140.06 174.844 141.086C174.844 142.019 175.59 142.858 176.617 142.858C177.55 142.858 178.296 142.019 178.296 141.086Z" fill="#B0BADB"/>
<path d="M179.696 66.2635C179.696 65.2373 178.856 64.4909 177.923 64.4909C176.896 64.4909 176.15 65.2373 176.15 66.2635C176.15 67.1965 176.896 68.0361 177.923 68.0361C178.856 68.0361 179.696 67.1965 179.696 66.2635Z" fill="#B0BADB"/>
<path d="M133.331 34.4489C133.331 33.9822 132.958 33.6088 132.492 33.6088C132.118 33.6088 131.745 33.9822 131.745 34.4489C131.745 34.9157 132.118 35.2891 132.492 35.2891C132.958 35.2891 133.331 34.9157 133.331 34.4489Z" fill="#B0BADB"/>
<path d="M140.795 88.1868C140.795 87.7201 140.421 87.3467 139.955 87.3467C139.488 87.3467 139.115 87.7201 139.115 88.1868C139.115 88.5602 139.488 88.9336 139.955 88.9336C140.421 88.9336 140.795 88.5602 140.795 88.1868Z" fill="#B0BADB"/>
<path d="M74.8403 147.429C74.8403 146.963 74.4671 146.589 74.0005 146.589C73.5339 146.589 73.1607 146.963 73.1607 147.429C73.1607 147.896 73.5339 148.27 74.0005 148.27C74.4671 148.27 74.8403 147.896 74.8403 147.429Z" fill="#B0BADB"/>
<path d="M177.922 152.468C178.855 153.494 180.441 153.494 181.467 152.468C182.4 151.535 182.4 149.949 181.467 148.922C180.441 147.989 178.855 147.989 177.922 148.922C176.896 149.949 176.896 151.535 177.922 152.468Z" fill="#B0BADB"/>
<path d="M250.034 124.2C251.06 125.133 252.646 125.133 253.579 124.2C254.511 123.173 254.511 121.681 253.579 120.654C252.646 119.722 251.06 119.722 250.034 120.654C249.101 121.681 249.101 123.173 250.034 124.2Z" fill="#B0BADB"/>
<path d="M217.383 164.783C218.036 165.436 219.156 165.436 219.903 164.783C220.556 164.13 220.556 163.01 219.903 162.264C219.156 161.611 218.036 161.611 217.383 162.264C216.637 163.01 216.637 164.13 217.383 164.783Z" fill="#B0BADB"/>
<path d="M229.417 121.773C229.697 122.053 230.257 122.053 230.537 121.773C230.91 121.4 230.91 120.933 230.537 120.56C230.257 120.28 229.697 120.28 229.417 120.56C229.044 120.933 229.044 121.4 229.417 121.773Z" fill="#B0BADB"/>
<path d="M184.546 196.503C184.733 196.597 185.012 196.597 185.199 196.503C185.292 196.317 185.292 196.037 185.199 195.85C185.012 195.756 184.733 195.756 184.546 195.85C184.453 196.037 184.453 196.317 184.546 196.503Z" fill="#B0BADB"/>
<path d="M150.496 195.943C150.776 196.223 151.336 196.223 151.709 195.943C151.989 195.57 151.989 195.103 151.709 194.73C151.336 194.45 150.776 194.45 150.496 194.73C150.123 195.103 150.123 195.57 150.496 195.943Z" fill="#B0BADB"/>
<path d="M236.134 145.471C236.507 145.751 237.067 145.751 237.347 145.471C237.72 145.097 237.72 144.63 237.347 144.257C237.067 143.977 236.507 143.977 236.134 144.257C235.854 144.63 235.854 145.097 236.134 145.471Z" fill="#B0BADB"/>
<path d="M139.302 151.349C139.675 151.629 140.141 151.629 140.515 151.349C140.794 150.975 140.794 150.415 140.515 150.135C140.141 149.762 139.675 149.762 139.302 150.135C139.022 150.415 139.022 150.975 139.302 151.349Z" fill="#B0BADB"/>
<path d="M166.915 48.8167C167.101 48.9101 167.381 48.9101 167.568 48.8167C167.754 48.63 167.754 48.35 167.568 48.1633C167.381 47.9766 167.101 47.9766 166.915 48.1633C166.821 48.35 166.821 48.63 166.915 48.8167Z" fill="#B0BADB"/>
<path d="M158.799 129.237C159.079 129.517 159.638 129.517 159.918 129.237C160.292 128.864 160.292 128.304 159.918 128.024C159.638 127.744 159.079 127.744 158.799 128.024C158.425 128.304 158.425 128.864 158.799 129.237Z" fill="#B0BADB"/>
<path d="M172.605 156.852C173.352 157.599 174.471 157.599 175.125 156.852C175.778 156.199 175.778 155.08 175.125 154.427C174.471 153.68 173.352 153.68 172.605 154.427C171.952 155.08 171.952 156.199 172.605 156.852Z" fill="#B0BADB"/>
<path d="M189.21 166.741C189.49 167.115 190.05 167.115 190.33 166.741C190.703 166.461 190.703 165.901 190.33 165.621C190.05 165.248 189.49 165.248 189.21 165.621C188.837 165.901 188.837 166.461 189.21 166.741Z" fill="#B0BADB"/>
<path d="M178.109 170.754C178.482 171.128 178.949 171.128 179.322 170.754C179.602 170.474 179.602 169.914 179.322 169.634C178.949 169.261 178.482 169.261 178.109 169.634C177.829 169.914 177.829 170.474 178.109 170.754Z" fill="#B0BADB"/>
<path d="M166.541 163.57C166.728 163.757 167.008 163.757 167.101 163.57C167.288 163.383 167.288 163.103 167.101 163.01C167.008 162.823 166.728 162.823 166.541 163.01C166.355 163.103 166.355 163.383 166.541 163.57Z" fill="#B0BADB"/>
<path d="M175.777 163.943C175.964 164.13 176.15 164.13 176.337 163.943C176.523 163.756 176.523 163.476 176.337 163.383C176.15 163.196 175.964 163.196 175.777 163.383C175.59 163.476 175.59 163.756 175.777 163.943Z" fill="#B0BADB"/>
<path d="M164.023 156.666C164.303 156.946 164.863 156.946 165.142 156.666C165.516 156.293 165.516 155.826 165.142 155.452C164.863 155.172 164.303 155.172 164.023 155.452C163.649 155.826 163.649 156.293 164.023 156.666Z" fill="#B0BADB"/>
<path d="M29.0358 167.955C29.689 168.608 30.8087 168.608 31.5552 167.955C32.2084 167.208 32.2084 166.089 31.5552 165.436C30.8087 164.782 29.689 164.782 29.0358 165.436C28.2894 166.089 28.2894 167.208 29.0358 167.955Z" fill="#B0BADB"/>
<path d="M54.1301 245.95C54.8766 246.603 55.9963 246.603 56.6495 245.95C57.396 245.203 57.396 244.084 56.6495 243.431C55.9963 242.778 54.8766 242.778 54.1301 243.431C53.477 244.084 53.477 245.203 54.1301 245.95Z" fill="#B0BADB"/>
<path d="M885.041 312.935C885.695 313.682 886.814 313.682 887.467 312.935C888.214 312.282 888.214 311.163 887.467 310.416C886.814 309.763 885.695 309.763 885.041 310.416C884.295 311.163 884.295 312.282 885.041 312.935Z" fill="#B0BADB"/>
<path d="M216.73 58.2391C217.477 58.9854 218.596 58.9854 219.25 58.2391C219.903 57.586 219.903 56.4664 219.25 55.7201C218.596 55.067 217.477 55.067 216.73 55.7201C216.077 56.4664 216.077 57.586 216.73 58.2391Z" fill="#B0BADB"/>
<path d="M219.156 112.071C219.809 112.724 220.929 112.724 221.582 112.071C222.328 111.324 222.328 110.205 221.582 109.552C220.929 108.899 219.809 108.899 219.156 109.552C218.409 110.205 218.409 111.324 219.156 112.071Z" fill="white"/>
<path d="M211.506 34.17C212.066 34.7298 212.812 34.7298 213.372 34.17C213.839 33.7035 213.839 32.8639 213.372 32.3974C212.812 31.8376 212.066 31.8376 211.506 32.3974C211.039 32.8639 211.039 33.7035 211.506 34.17Z" fill="#B0BADB"/>
<path d="M220.088 53.7616C220.368 54.0417 220.928 54.0417 221.301 53.7616C221.581 53.3883 221.581 52.9215 221.301 52.5482C220.928 52.2681 220.368 52.2681 220.088 52.5482C219.715 52.9215 219.715 53.3883 220.088 53.7616Z" fill="#B0BADB"/>
<path d="M233.335 68.1291C233.615 68.5025 234.175 68.5025 234.455 68.1291C234.828 67.8491 234.828 67.289 234.455 66.9156C234.175 66.6356 233.615 66.6356 233.335 66.9156C232.962 67.289 232.962 67.8491 233.335 68.1291Z" fill="#B0BADB"/>
<path d="M248.728 117.763C249.008 118.043 249.567 118.043 249.941 117.763C250.221 117.389 250.221 116.923 249.941 116.549C249.567 116.269 249.008 116.269 248.728 116.549C248.448 116.923 248.448 117.389 248.728 117.763Z" fill="#B0BADB"/>
<path d="M222.234 72.1399C222.514 72.5133 223.074 72.5133 223.447 72.1399C223.727 71.8598 223.727 71.2997 223.447 71.0197C223.074 70.6463 222.514 70.6463 222.234 71.0197C221.861 71.2997 221.861 71.8598 222.234 72.1399Z" fill="#B0BADB"/>
</g>
</svg>
