<svg width="1237" height="368" viewBox="0 0 1237 368" fill="none" xmlns="http://www.w3.org/2000/svg">
<g opacity="0.2">
<path d="M505.86 99.1808C506.42 98.6207 507.353 98.6207 507.913 99.1808C508.379 99.6475 508.379 100.581 507.913 101.141C507.353 101.701 506.42 101.701 505.86 101.141C505.3 100.581 505.3 99.6475 505.86 99.1808Z" fill="#B0BADB"/>
<path d="M465.643 107.208C466.203 106.648 467.136 106.648 467.696 107.208C468.256 107.675 468.256 108.608 467.696 109.168C467.136 109.729 466.203 109.729 465.643 109.168C465.083 108.608 465.083 107.675 465.643 107.208Z" fill="#B0BADB"/>
<path d="M483.745 84.6189C484.119 84.2455 484.772 84.2455 485.145 84.6189C485.518 84.9923 485.518 85.6457 485.145 86.0191C484.772 86.3925 484.119 86.3925 483.745 86.0191C483.372 85.6457 483.372 84.9923 483.745 84.6189Z" fill="#B0BADB"/>
<path d="M461.351 65.2957C461.724 64.9223 462.284 64.9223 462.751 65.2957C463.124 65.6691 463.124 66.3225 462.751 66.6959C462.284 67.0693 461.724 67.0693 461.351 66.6959C460.884 66.3225 460.884 65.6691 461.351 65.2957Z" fill="#B0BADB"/>
<path d="M477.12 148.094C477.307 147.907 477.587 147.907 477.774 148.094C477.96 148.281 477.96 148.561 477.774 148.748C477.587 148.934 477.307 148.934 477.12 148.748C476.934 148.561 476.934 148.281 477.12 148.094Z" fill="#B0BADB"/>
<path d="M491.397 144.64C491.583 144.453 491.863 144.453 492.05 144.64C492.237 144.827 492.237 145.107 492.05 145.293C491.863 145.48 491.583 145.48 491.397 145.293C491.21 145.107 491.21 144.827 491.397 144.64Z" fill="#B0BADB"/>
<path d="M517.524 85.9252C517.71 85.7385 517.99 85.7385 518.177 85.9252C518.364 86.1119 518.364 86.3919 518.177 86.5786C517.99 86.7653 517.71 86.7653 517.524 86.5786C517.337 86.3919 517.337 86.1119 517.524 85.9252Z" fill="#B0BADB"/>
<path d="M512.112 122.611C512.298 122.424 512.578 122.424 512.765 122.611C512.952 122.797 512.952 123.077 512.765 123.264C512.578 123.451 512.298 123.451 512.112 123.264C511.925 123.077 511.925 122.797 512.112 122.611Z" fill="#B0BADB"/>
<path d="M500.355 165.923C500.541 165.737 500.821 165.737 501.008 165.923C501.194 166.11 501.194 166.39 501.008 166.577C500.821 166.763 500.541 166.763 500.355 166.577C500.168 166.39 500.168 166.11 500.355 165.923Z" fill="#B0BADB"/>
<path d="M518.55 118.41C518.737 118.223 519.017 118.223 519.203 118.41C519.39 118.596 519.39 118.876 519.203 119.063C519.017 119.25 518.737 119.25 518.55 119.063C518.364 118.876 518.364 118.596 518.55 118.41Z" fill="#B0BADB"/>
<path d="M481.599 50.7333C482.532 49.7998 484.119 49.7998 485.145 50.7333C486.078 51.7601 486.078 53.2537 485.145 54.2805C484.119 55.214 482.532 55.214 481.599 54.2805C480.573 53.2537 480.573 51.7601 481.599 50.7333Z" fill="#B0BADB"/>
<path d="M210.252 170.031C211.278 169.004 212.865 169.004 213.798 170.031C214.731 170.964 214.731 172.551 213.798 173.578C212.865 174.511 211.278 174.511 210.252 173.578C209.319 172.551 209.319 170.964 210.252 170.031Z" fill="#B0BADB"/>
<path d="M10.754 59.9752C11.6871 58.9484 13.2734 58.9484 14.2065 59.9752C15.2329 60.9087 15.2329 62.4955 14.2065 63.429C13.2734 64.4558 11.6871 64.4558 10.754 63.429C9.72762 62.4955 9.72762 60.9087 10.754 59.9752Z" fill="#B0BADB"/>
<path d="M134.95 92.4599C135.884 91.5264 137.47 91.5264 138.496 92.4599C139.429 93.3933 139.429 94.9802 138.496 96.007C137.47 96.9405 135.884 96.9405 134.95 96.007C133.924 94.9802 133.924 93.3933 134.95 92.4599Z" fill="#B0BADB"/>
<path d="M532.174 14.608C533.107 13.5812 534.693 13.5812 535.719 14.608C536.652 15.5415 536.652 17.1284 535.719 18.0618C534.693 19.0886 533.107 19.0886 532.174 18.0618C531.147 17.1284 531.147 15.5415 532.174 14.608Z" fill="#B0BADB"/>
<path d="M418.615 131.385C419.641 130.359 421.227 130.359 422.16 131.385C423.187 132.319 423.187 133.906 422.16 134.933C421.227 135.866 419.641 135.866 418.615 134.933C417.681 133.906 417.681 132.319 418.615 131.385Z" fill="#B0BADB"/>
<path d="M465.83 20.4891C466.576 19.8357 467.696 19.8357 468.349 20.4891C469.002 21.1425 469.002 22.2627 468.349 23.0095C467.696 23.6629 466.576 23.6629 465.83 23.0095C465.177 22.2627 465.177 21.1425 465.83 20.4891Z" fill="white"/>
<path d="M652.917 99.2743C653.571 98.6208 654.69 98.6208 655.437 99.2743C656.09 100.021 656.09 101.141 655.437 101.795C654.69 102.448 653.571 102.448 652.917 101.795C652.264 101.141 652.264 100.021 652.917 99.2743Z" fill="#B0BADB"/>
<path d="M607.382 267.391C608.035 266.644 609.155 266.644 609.901 267.391C610.554 268.045 610.554 269.165 609.901 269.912C609.155 270.565 608.035 270.565 607.382 269.912C606.729 269.165 606.729 268.045 607.382 267.391Z" fill="#B0BADB"/>
<path d="M638.828 112.996C639.481 112.343 640.6 112.343 641.254 112.996C642 113.743 642 114.863 641.254 115.516C640.6 116.263 639.481 116.263 638.828 115.516C638.081 114.863 638.081 113.743 638.828 112.996Z" fill="#B0BADB"/>
<path d="M497.835 89.9393C498.582 89.2859 499.701 89.2859 500.355 89.9393C501.101 90.5927 501.101 91.7129 500.355 92.4596C499.701 93.1131 498.582 93.1131 497.835 92.4596C497.182 91.7129 497.182 90.5927 497.835 89.9393Z" fill="#B0BADB"/>
<path d="M492.703 114.023C493.17 113.556 494.01 113.556 494.476 114.023C495.036 114.49 495.036 115.33 494.476 115.89C494.01 116.357 493.17 116.357 492.703 115.89C492.143 115.33 492.143 114.49 492.703 114.023Z" fill="#B0BADB"/>
<path d="M503.061 139.413C503.527 138.946 504.367 138.946 504.834 139.413C505.393 139.973 505.393 140.719 504.834 141.279C504.367 141.746 503.527 141.746 503.061 141.279C502.501 140.719 502.501 139.973 503.061 139.413Z" fill="#B0BADB"/>
<path d="M472.548 55.5877C472.828 55.2143 473.388 55.2143 473.668 55.5877C474.041 55.8677 474.041 56.4278 473.668 56.7078C473.388 57.0812 472.828 57.0812 472.548 56.7078C472.175 56.4278 472.175 55.8677 472.548 55.5877Z" fill="#B0BADB"/>
<path d="M501.194 94.42C501.568 94.14 502.034 94.14 502.408 94.42C502.687 94.7934 502.687 95.3534 502.408 95.6335C502.034 96.0069 501.568 96.0069 501.194 95.6335C500.915 95.3534 500.915 94.7934 501.194 94.42Z" fill="#B0BADB"/>
<path d="M552.422 87.046C552.795 86.7659 553.355 86.7659 553.635 87.046C554.008 87.4194 554.008 87.9794 553.635 88.2595C553.355 88.6329 552.795 88.6329 552.422 88.2595C552.142 87.9794 552.142 87.4194 552.422 87.046Z" fill="#B0BADB"/>
<path d="M184.685 250.589C184.965 250.215 185.525 250.215 185.805 250.589C186.178 250.869 186.178 251.429 185.805 251.709C185.525 252.082 184.965 252.082 184.685 251.709C184.312 251.429 184.312 250.869 184.685 250.589Z" fill="#B0BADB"/>
<path d="M628.19 59.7879C628.563 59.4145 629.03 59.4145 629.403 59.7879C629.683 60.0679 629.683 60.628 629.403 61.0014C629.03 61.2814 628.563 61.2814 628.19 61.0014C627.91 60.628 627.91 60.0679 628.19 59.7879Z" fill="#B0BADB"/>
<path d="M1003.21 59.7879C1003.49 59.4145 1004.05 59.4145 1004.42 59.7879C1004.7 60.0679 1004.7 60.628 1004.42 61.0014C1004.05 61.2814 1003.49 61.2814 1003.21 61.0014C1002.83 60.628 1002.83 60.0679 1003.21 59.7879Z" fill="#B0BADB"/>
<path d="M230.874 146.694C231.247 146.321 231.713 146.321 232.087 146.694C232.367 146.974 232.367 147.534 232.087 147.814C231.713 148.188 231.247 148.188 230.874 147.814C230.594 147.534 230.594 146.974 230.874 146.694Z" fill="#B0BADB"/>
<path d="M503.341 76.0303C503.714 75.7503 504.18 75.7503 504.554 76.0303C504.834 76.4037 504.834 76.8705 504.554 77.2439C504.18 77.5239 503.714 77.5239 503.341 77.2439C503.061 76.8705 503.061 76.4037 503.341 76.0303Z" fill="#B0BADB"/>
<path d="M491.77 83.2184C491.957 83.1251 492.237 83.1251 492.33 83.2184C492.517 83.4051 492.517 83.6852 492.33 83.8719C492.237 84.0586 491.957 84.0586 491.77 83.8719C491.583 83.6852 491.583 83.4051 491.77 83.2184Z" fill="#B0BADB"/>
<path d="M524.242 124.01C524.429 123.917 524.709 123.917 524.895 124.01C524.989 124.197 524.989 124.477 524.895 124.664C524.709 124.851 524.429 124.851 524.242 124.664C524.149 124.477 524.149 124.197 524.242 124.01Z" fill="#B0BADB"/>
<path d="M524.709 153.228C524.802 153.135 525.082 153.135 525.269 153.228C525.455 153.415 525.455 153.695 525.269 153.882C525.082 153.975 524.802 153.975 524.709 153.882C524.522 153.695 524.522 153.415 524.709 153.228Z" fill="#B0BADB"/>
<path d="M508.846 153.695C508.939 153.508 509.219 153.508 509.406 153.695C509.592 153.881 509.592 154.068 509.406 154.255C509.219 154.441 508.939 154.441 508.846 154.255C508.659 154.068 508.659 153.881 508.846 153.695Z" fill="#B0BADB"/>
<path d="M508.379 148.188C508.566 148.001 508.846 148.001 508.939 148.188C509.126 148.375 509.126 148.655 508.939 148.841C508.846 148.935 508.566 148.935 508.379 148.841C508.193 148.655 508.193 148.375 508.379 148.188Z" fill="#B0BADB"/>
<path d="M501.008 82.8444C501.194 82.7511 501.381 82.7511 501.568 82.8444C501.754 83.0311 501.754 83.3112 501.568 83.4978C501.381 83.5912 501.194 83.5912 501.008 83.4978C500.821 83.3112 500.821 83.0311 501.008 82.8444Z" fill="#B0BADB"/>
<path d="M489.251 90.2195C489.531 89.8461 490.091 89.8461 490.37 90.2195C490.744 90.4995 490.744 91.0596 490.37 91.3397C490.091 91.713 489.531 91.713 489.251 91.3397C488.877 91.0596 488.877 90.4995 489.251 90.2195Z" fill="#B0BADB"/>
<path d="M515.658 117.757C515.937 117.477 516.497 117.477 516.871 117.757C517.151 118.13 517.151 118.69 516.871 118.97C516.497 119.25 515.937 119.25 515.658 118.97C515.284 118.69 515.284 118.13 515.658 117.757Z" fill="#B0BADB"/>
<path d="M221.263 211.664C221.636 211.29 222.103 211.29 222.476 211.664C222.756 211.944 222.756 212.504 222.476 212.784C222.103 213.157 221.636 213.157 221.263 212.784C220.983 212.504 220.983 211.944 221.263 211.664Z" fill="#B0BADB"/>
<path d="M200.454 288.302C200.828 287.928 201.294 287.928 201.667 288.302C201.947 288.582 201.947 289.142 201.667 289.422C201.294 289.795 200.828 289.795 200.454 289.422C200.174 289.142 200.174 288.582 200.454 288.302Z" fill="#B0BADB"/>
<path d="M480.293 147.534C480.573 147.161 481.133 147.161 481.413 147.534C481.786 147.814 481.786 148.374 481.413 148.654C481.133 149.028 480.573 149.028 480.293 148.654C479.92 148.374 479.92 147.814 480.293 147.534Z" fill="#B0BADB"/>
<path d="M232.74 204.195C233.113 203.915 233.673 203.915 233.953 204.195C234.233 204.569 234.233 205.035 233.953 205.409C233.673 205.689 233.113 205.689 232.74 205.409C232.46 205.035 232.46 204.569 232.74 204.195Z" fill="#B0BADB"/>
<path d="M247.763 118.41C248.696 117.477 250.282 117.477 251.309 118.41C252.242 119.437 252.242 121.024 251.309 121.957C250.282 122.984 248.696 122.984 247.763 121.957C246.736 121.024 246.736 119.437 247.763 118.41Z" fill="#B0BADB"/>
<path d="M208.572 92.7401C209.226 92.0866 210.345 92.0866 210.999 92.7401C211.745 93.4868 211.745 94.5137 210.999 95.2604C210.345 95.9139 209.226 95.9139 208.572 95.2604C207.826 94.5137 207.826 93.4868 208.572 92.7401Z" fill="#B0BADB"/>
<path d="M222.102 198.968C222.476 198.688 223.036 198.688 223.316 198.968C223.595 199.341 223.595 199.808 223.316 200.181C223.036 200.461 222.476 200.461 222.102 200.181C221.823 199.808 221.823 199.341 222.102 198.968Z" fill="#B0BADB"/>
<path d="M268.385 95.0733C268.664 94.7933 269.224 94.7933 269.504 95.0733C269.878 95.4467 269.878 95.9134 269.504 96.2868C269.224 96.5669 268.664 96.5669 268.385 96.2868C268.011 95.9134 268.011 95.4467 268.385 95.0733Z" fill="#B0BADB"/>
<path d="M190.75 53.2537C191.03 52.8803 191.59 52.8803 191.87 53.2537C192.243 53.5337 192.243 54.0938 191.87 54.3738C191.59 54.7472 191.03 54.7472 190.75 54.3738C190.377 54.0938 190.377 53.5337 190.75 53.2537Z" fill="#B0BADB"/>
<path d="M0.209949 34.3045C0.583191 33.9311 1.04974 33.9311 1.42298 34.3045C1.70291 34.5845 1.70291 35.1446 1.42298 35.4246C1.04974 35.798 0.583191 35.798 0.209949 35.4246C-0.0699829 35.1446 -0.0699829 34.5845 0.209949 34.3045Z" fill="#B0BADB"/>
<path d="M258.774 160.043C259.054 159.763 259.613 159.763 259.893 160.043C260.267 160.416 260.267 160.883 259.893 161.257C259.613 161.537 259.054 161.537 258.774 161.257C258.4 160.883 258.4 160.416 258.774 160.043Z" fill="#B0BADB"/>
<path d="M237.965 236.681C238.245 236.401 238.805 236.401 239.085 236.681C239.458 237.054 239.458 237.521 239.085 237.894C238.805 238.174 238.245 238.174 237.965 237.894C237.592 237.521 237.592 237.054 237.965 236.681Z" fill="#B0BADB"/>
<path d="M270.251 152.669C270.624 152.295 271.091 152.295 271.464 152.669C271.744 152.949 271.744 153.509 271.464 153.789C271.091 154.162 270.624 154.162 270.251 153.789C269.971 153.509 269.971 152.949 270.251 152.669Z" fill="#B0BADB"/>
<path d="M555.688 141C555.688 142.026 554.848 142.773 553.915 142.773C552.982 142.773 552.142 142.026 552.142 141C552.142 140.066 552.982 139.319 553.915 139.319C554.848 139.319 555.688 140.066 555.688 141Z" fill="#B0BADB"/>
<path d="M265.958 292.408C266.892 291.475 268.478 291.475 269.411 292.408C270.437 293.435 270.437 295.022 269.411 295.955C268.478 296.889 266.892 296.889 265.958 295.955C264.932 295.022 264.932 293.435 265.958 292.408Z" fill="#B0BADB"/>
<path d="M620.539 79.7643C621.472 78.7374 623.058 78.7374 624.084 79.7643C625.018 80.6977 625.018 82.2846 624.084 83.2181C623.058 84.2449 621.472 84.2449 620.539 83.2181C619.606 82.2846 619.606 80.6977 620.539 79.7643Z" fill="#B0BADB"/>
<path d="M234.326 327.6C235.259 326.573 236.846 326.573 237.872 327.6C238.805 328.534 238.805 330.121 237.872 331.147C236.846 332.081 235.259 332.081 234.326 331.147C233.3 330.121 233.3 328.534 234.326 327.6Z" fill="#B0BADB"/>
<path d="M250.189 262.164C250.842 261.51 251.962 261.51 252.708 262.164C253.362 262.817 253.362 263.937 252.708 264.684C251.962 265.338 250.842 265.338 250.189 264.684C249.442 263.937 249.442 262.817 250.189 262.164Z" fill="#B0BADB"/>
<path d="M282.195 331.614C282.941 330.961 284.061 330.961 284.714 331.614C285.367 332.361 285.367 333.481 284.714 334.134C284.061 334.788 282.941 334.788 282.195 334.134C281.541 333.481 281.541 332.361 282.195 331.614Z" fill="#B0BADB"/>
<path d="M201.574 286.995C202.321 286.248 203.44 286.248 204.094 286.995C204.84 287.648 204.84 288.768 204.094 289.515C203.44 290.168 202.321 290.168 201.574 289.515C200.921 288.768 200.921 287.648 201.574 286.995Z" fill="#B0BADB"/>
<path d="M456.779 337.962C457.432 337.308 458.551 337.308 459.205 337.962C459.951 338.709 459.951 339.829 459.205 340.482C458.551 341.136 457.432 341.136 456.779 340.482C456.032 339.829 456.032 338.709 456.779 337.962Z" fill="#B0BADB"/>
<path d="M256.814 297.262C257.187 296.889 257.747 296.889 258.027 297.262C258.307 297.543 258.307 298.103 258.027 298.383C257.747 298.756 257.187 298.756 256.814 298.383C256.534 298.103 256.534 297.543 256.814 297.262Z" fill="#B0BADB"/>
<path d="M285.554 336.188C285.834 335.815 286.393 335.815 286.767 336.188C287.047 336.468 287.047 337.028 286.767 337.308C286.393 337.682 285.834 337.682 285.554 337.308C285.18 337.028 285.18 336.468 285.554 336.188Z" fill="#B0BADB"/>
<path d="M298.804 321.719C299.084 321.439 299.644 321.439 299.924 321.719C300.297 322.092 300.297 322.559 299.924 322.932C299.644 323.212 299.084 323.212 298.804 322.932C298.431 322.559 298.431 322.092 298.804 321.719Z" fill="#B0BADB"/>
<path d="M287.7 317.705C287.98 317.425 288.54 317.425 288.913 317.705C289.193 318.079 289.193 318.545 288.913 318.919C288.54 319.199 287.98 319.199 287.7 318.919C287.327 318.545 287.327 318.079 287.7 317.705Z" fill="#B0BADB"/>
<path d="M213.611 330.027C213.984 329.654 214.544 329.654 214.824 330.027C215.197 330.307 215.197 330.867 214.824 331.147C214.544 331.521 213.984 331.521 213.611 331.147C213.331 330.867 213.331 330.307 213.611 330.027Z" fill="#B0BADB"/>
<path d="M276.129 324.987C276.316 324.8 276.503 324.8 276.689 324.987C276.876 325.08 276.876 325.36 276.689 325.547C276.503 325.733 276.316 325.733 276.129 325.547C275.943 325.36 275.943 325.08 276.129 324.987Z" fill="#B0BADB"/>
<path d="M650.678 210.263C650.865 210.076 651.145 210.076 651.238 210.263C651.424 210.45 651.424 210.636 651.238 210.823C651.145 211.01 650.865 211.01 650.678 210.823C650.491 210.636 650.491 210.45 650.678 210.263Z" fill="#B0BADB"/>
<path d="M285.367 324.519C285.46 324.426 285.74 324.426 285.927 324.519C286.114 324.706 286.114 324.986 285.927 325.173C285.74 325.266 285.46 325.266 285.367 325.173C285.18 324.986 285.18 324.706 285.367 324.519Z" fill="#B0BADB"/>
<path d="M273.61 331.894C273.89 331.521 274.45 331.521 274.73 331.894C275.103 332.174 275.103 332.734 274.73 333.014C274.45 333.388 273.89 333.388 273.61 333.014C273.237 332.734 273.237 332.174 273.61 331.894Z" fill="#B0BADB"/>
<path d="M527.788 86.1124C528.161 85.8323 528.721 85.8323 529.001 86.1124C529.374 86.4858 529.374 87.0458 529.001 87.3259C528.721 87.6993 528.161 87.6993 527.788 87.3259C527.508 87.0458 527.508 86.4858 527.788 86.1124Z" fill="#B0BADB"/>
<path d="M300.577 332.547C301.323 331.801 302.443 331.801 303.096 332.547C303.843 333.201 303.843 334.321 303.096 334.974C302.443 335.721 301.323 335.721 300.577 334.974C299.924 334.321 299.924 333.201 300.577 332.547Z" fill="#B0BADB"/>
<path d="M220.423 306.317C220.796 306.037 221.263 306.037 221.636 306.317C221.916 306.691 221.916 307.158 221.636 307.531C221.263 307.811 220.796 307.811 220.423 307.531C220.143 307.158 220.143 306.691 220.423 306.317Z" fill="#B0BADB"/>
<path d="M245.617 302.77C245.803 302.583 246.083 302.583 246.177 302.77C246.363 302.957 246.363 303.237 246.177 303.33C246.083 303.517 245.803 303.517 245.617 303.33C245.43 303.237 245.43 302.957 245.617 302.77Z" fill="#B0BADB"/>
<path d="M536.093 152.948C536.466 152.575 536.932 152.575 537.306 152.948C537.586 153.228 537.586 153.788 537.306 154.068C536.932 154.442 536.466 154.442 536.093 154.068C535.813 153.788 535.813 153.228 536.093 152.948Z" fill="#B0BADB"/>
<path d="M599.544 86.3924C600.29 85.739 601.41 85.739 602.063 86.3924C602.81 87.1392 602.81 88.2593 602.063 88.9128C601.41 89.6595 600.29 89.6595 599.544 88.9128C598.891 88.2593 598.891 87.1392 599.544 86.3924Z" fill="#B0BADB"/>
<path d="M655.25 239.947C655.623 239.667 656.09 239.667 656.463 239.947C656.743 240.321 656.743 240.787 656.463 241.161C656.09 241.441 655.623 241.441 655.25 241.161C654.97 240.787 654.97 240.321 655.25 239.947Z" fill="#B0BADB"/>
<path d="M555.501 111.315C555.781 111.035 556.341 111.035 556.621 111.315C556.994 111.689 556.994 112.156 556.621 112.529C556.341 112.809 555.781 112.809 555.501 112.529C555.128 112.156 555.128 111.689 555.501 111.315Z" fill="#B0BADB"/>
<path d="M543.931 118.504C544.024 118.41 544.304 118.41 544.491 118.504C544.677 118.69 544.677 118.97 544.491 119.157C544.304 119.25 544.024 119.25 543.931 119.157C543.744 118.97 543.744 118.69 543.931 118.504Z" fill="#B0BADB"/>
<path d="M553.075 118.13C553.262 118.036 553.542 118.036 553.728 118.13C553.822 118.316 553.822 118.596 553.728 118.783C553.542 118.876 553.262 118.876 553.075 118.783C552.982 118.596 552.982 118.316 553.075 118.13Z" fill="#B0BADB"/>
<path d="M541.318 125.505C541.691 125.131 542.158 125.131 542.531 125.505C542.811 125.785 542.811 126.345 542.531 126.625C542.158 126.998 541.691 126.998 541.318 126.625C541.038 126.345 541.038 125.785 541.318 125.505Z" fill="#B0BADB"/>
<path d="M203.347 339.735C204.094 339.082 205.213 339.082 205.866 339.735C206.52 340.482 206.52 341.602 205.866 342.256C205.213 342.909 204.094 342.909 203.347 342.256C202.694 341.602 202.694 340.482 203.347 339.735Z" fill="#B0BADB"/>
<path d="M233.02 334.041C233.3 333.761 233.86 333.761 234.14 334.041C234.513 334.414 234.513 334.881 234.14 335.255C233.86 335.535 233.3 335.535 233.02 335.255C232.647 334.881 232.647 334.414 233.02 334.041Z" fill="#B0BADB"/>
<path d="M495.503 153.415C495.876 153.041 496.342 153.041 496.716 153.415C496.996 153.695 496.996 154.255 496.716 154.535C496.342 154.908 495.876 154.908 495.503 154.535C495.223 154.255 495.223 153.695 495.503 153.415Z" fill="#B0BADB"/>
<path d="M462.284 126.905C462.564 126.532 463.124 126.532 463.404 126.905C463.777 127.185 463.777 127.745 463.404 128.119C463.124 128.399 462.564 128.399 462.284 128.119C461.911 127.745 461.911 127.185 462.284 126.905Z" fill="#B0BADB"/>
<path d="M826.288 251.522C827.222 250.495 828.808 250.495 829.834 251.522C830.767 252.456 830.767 254.042 829.834 255.069C828.808 256.003 827.222 256.003 826.288 255.069C825.262 254.042 825.262 252.456 826.288 251.522Z" fill="#B0BADB"/>
<path d="M684.083 158.363C685.016 157.336 686.603 157.336 687.629 158.363C688.562 159.296 688.562 160.883 687.629 161.817C686.603 162.844 685.016 162.844 684.083 161.817C683.057 160.883 683.057 159.296 684.083 158.363Z" fill="#B0BADB"/>
<path d="M876.863 215.304C877.796 214.37 879.382 214.37 880.409 215.304C881.342 216.33 881.342 217.917 880.409 218.851C879.382 219.878 877.796 219.878 876.863 218.851C875.836 217.917 875.836 216.33 876.863 215.304Z" fill="#B0BADB"/>
<path d="M810.519 221.278C811.172 220.531 812.292 220.531 813.038 221.278C813.692 221.931 813.692 223.051 813.038 223.705C812.292 224.452 811.172 224.452 810.519 223.705C809.866 223.051 809.866 221.931 810.519 221.278Z" fill="#B0BADB"/>
<path d="M908.868 175.445C909.522 174.792 910.641 174.792 911.388 175.445C912.041 176.099 912.041 177.219 911.388 177.966C910.641 178.619 909.522 178.619 908.868 177.966C908.122 177.219 908.122 176.099 908.868 175.445Z" fill="#B0BADB"/>
<path d="M894.685 189.167C895.432 188.513 896.551 188.513 897.205 189.167C897.858 189.82 897.858 190.94 897.205 191.687C896.551 192.341 895.432 192.341 894.685 191.687C894.032 190.94 894.032 189.82 894.685 189.167Z" fill="#B0BADB"/>
<path d="M842.524 290.728C843.271 289.981 844.391 289.981 845.044 290.728C845.79 291.381 845.79 292.502 845.044 293.248C844.391 293.902 843.271 293.902 842.524 293.248C841.871 292.502 841.871 291.381 842.524 290.728Z" fill="#B0BADB"/>
<path d="M817.237 256.283C817.517 256.003 818.077 256.003 818.357 256.283C818.73 256.657 818.73 257.217 818.357 257.497C818.077 257.87 817.517 257.87 817.237 257.497C816.864 257.217 816.864 256.657 817.237 256.283Z" fill="#B0BADB"/>
<path d="M845.884 295.209C846.257 294.929 846.724 294.929 847.097 295.209C847.377 295.582 847.377 296.049 847.097 296.423C846.724 296.703 846.257 296.703 845.884 296.423C845.604 296.049 845.604 295.582 845.884 295.209Z" fill="#B0BADB"/>
<path d="M897.111 287.834C897.484 287.554 897.951 287.554 898.324 287.834C898.604 288.207 898.604 288.674 898.324 289.048C897.951 289.328 897.484 289.328 897.111 289.048C896.831 288.674 896.831 288.207 897.111 287.834Z" fill="#B0BADB"/>
<path d="M922.492 281.674C922.772 281.3 923.331 281.3 923.611 281.674C923.985 281.954 923.985 282.514 923.611 282.794C923.331 283.167 922.772 283.167 922.492 282.794C922.118 282.514 922.118 281.954 922.492 281.674Z" fill="#B0BADB"/>
<path d="M859.134 280.834C859.414 280.46 859.974 280.46 860.254 280.834C860.627 281.114 860.627 281.674 860.254 282.047C859.974 282.327 859.414 282.327 859.134 282.047C858.761 281.674 858.761 281.114 859.134 280.834Z" fill="#B0BADB"/>
<path d="M704.705 134.933C704.985 134.653 705.545 134.653 705.825 134.933C706.198 135.306 706.198 135.773 705.825 136.146C705.545 136.426 704.985 136.426 704.705 136.146C704.332 135.773 704.332 135.306 704.705 134.933Z" fill="#B0BADB"/>
<path d="M848.03 276.819C848.403 276.446 848.87 276.446 849.243 276.819C849.523 277.099 849.523 277.659 849.243 278.033C848.87 278.313 848.403 278.313 848.03 278.033C847.75 277.659 847.75 277.099 848.03 276.819Z" fill="#B0BADB"/>
<path d="M836.459 284.007C836.646 283.821 836.926 283.821 837.019 284.007C837.206 284.194 837.206 284.474 837.019 284.661C836.926 284.754 836.646 284.754 836.459 284.661C836.273 284.474 836.273 284.194 836.459 284.007Z" fill="#B0BADB"/>
<path d="M845.697 283.634C845.884 283.447 846.07 283.447 846.257 283.634C846.444 283.821 846.444 284.101 846.257 284.194C846.07 284.381 845.884 284.381 845.697 284.194C845.51 284.101 845.51 283.821 845.697 283.634Z" fill="#B0BADB"/>
<path d="M833.94 290.915C834.22 290.635 834.78 290.635 835.06 290.915C835.433 291.288 835.433 291.849 835.06 292.129C834.78 292.409 834.22 292.409 833.94 292.129C833.567 291.849 833.567 291.288 833.94 290.915Z" fill="#B0BADB"/>
<path d="M665.794 249.189C666.168 248.909 666.634 248.909 667.007 249.189C667.287 249.562 667.287 250.029 667.007 250.402C666.634 250.682 666.168 250.682 665.794 250.402C665.514 250.029 665.514 249.562 665.794 249.189Z" fill="#B0BADB"/>
<path d="M677.365 241.814C677.645 241.441 678.205 241.441 678.485 241.814C678.858 242.094 678.858 242.654 678.485 242.934C678.205 243.308 677.645 243.308 677.365 242.934C676.992 242.654 676.992 242.094 677.365 241.814Z" fill="#B0BADB"/>
<path d="M991.448 264.684C991.448 265.991 990.329 267.111 988.929 267.111C987.529 267.111 986.409 265.991 986.409 264.684C986.409 263.284 987.529 262.164 988.929 262.164C990.329 262.164 991.448 263.284 991.448 264.684Z" fill="#B0BADB"/>
<path d="M988.929 217.451C988.929 218.758 987.809 219.878 986.41 219.878C985.103 219.878 983.983 218.758 983.983 217.451C983.983 216.051 985.103 214.931 986.41 214.931C987.809 214.931 988.929 216.051 988.929 217.451Z" fill="#B0BADB"/>
<path d="M1023.92 274.859C1023.92 275.886 1023.17 276.633 1022.15 276.633C1021.21 276.633 1020.47 275.886 1020.47 274.859C1020.47 273.925 1021.21 273.179 1022.15 273.179C1023.17 273.179 1023.92 273.925 1023.92 274.859Z" fill="#B0BADB"/>
<path d="M658.983 254.883C658.983 255.91 658.143 256.657 657.21 256.657C656.183 256.657 655.437 255.91 655.437 254.883C655.437 253.949 656.183 253.109 657.21 253.109C658.143 253.109 658.983 253.949 658.983 254.883Z" fill="#B0BADB"/>
<path d="M1039.41 148.094C1039.41 149.121 1038.66 149.867 1037.64 149.867C1036.7 149.867 1035.86 149.121 1035.86 148.094C1035.86 147.16 1036.7 146.32 1037.64 146.32C1038.66 146.32 1039.41 147.16 1039.41 148.094Z" fill="#B0BADB"/>
<path d="M1040.72 222.958C1040.72 223.985 1039.97 224.732 1038.94 224.732C1038.01 224.732 1037.26 223.985 1037.26 222.958C1037.26 222.025 1038.01 221.185 1038.94 221.185C1039.97 221.185 1040.72 222.025 1040.72 222.958Z" fill="#B0BADB"/>
<path d="M674.845 184.966C674.845 185.619 674.286 186.273 673.539 186.273C672.886 186.273 672.326 185.619 672.326 184.966C672.326 184.219 672.886 183.659 673.539 183.659C674.286 183.659 674.845 184.219 674.845 184.966Z" fill="#B0BADB"/>
<path d="M994.434 254.789C994.434 255.256 994.061 255.629 993.594 255.629C993.128 255.629 992.755 255.256 992.755 254.789C992.755 254.323 993.128 253.949 993.594 253.949C994.061 253.949 994.434 254.323 994.434 254.789Z" fill="#B0BADB"/>
<path d="M653.384 254.043C653.384 254.509 653.011 254.883 652.544 254.883C652.078 254.883 651.704 254.509 651.704 254.043C651.704 253.669 652.078 253.296 652.544 253.296C653.011 253.296 653.384 253.669 653.384 254.043Z" fill="#B0BADB"/>
<path d="M654.224 273.646C654.224 274.113 653.851 274.486 653.384 274.486C652.917 274.486 652.544 274.113 652.544 273.646C652.544 273.179 652.917 272.806 653.384 272.806C653.851 272.806 654.224 273.179 654.224 273.646Z" fill="#B0BADB"/>
<path d="M664.954 268.605C664.954 269.072 664.581 269.445 664.115 269.445C663.648 269.445 663.275 269.072 663.275 268.605C663.275 268.138 663.648 267.765 664.115 267.765C664.581 267.765 664.954 268.138 664.954 268.605Z" fill="#B0BADB"/>
<path d="M854.188 66.9759C854.188 67.4426 853.815 67.816 853.349 67.816C852.975 67.816 852.602 67.4426 852.602 66.9759C852.602 66.5091 852.975 66.1357 853.349 66.1357C853.815 66.1357 854.188 66.5091 854.188 66.9759Z" fill="#B0BADB"/>
<path d="M1001.81 201.116C1001.81 201.582 1001.43 201.956 1000.97 201.956C1000.5 201.956 1000.13 201.582 1000.13 201.116C1000.13 200.649 1000.5 200.275 1000.97 200.275C1001.43 200.275 1001.81 200.649 1001.81 201.116Z" fill="#B0BADB"/>
<path d="M668.034 255.35C668.034 255.536 667.847 255.723 667.567 255.723C667.381 255.723 667.194 255.536 667.194 255.35C667.194 255.07 667.381 254.883 667.567 254.883C667.847 254.883 668.034 255.07 668.034 255.35Z" fill="#B0BADB"/>
<path d="M661.782 262.164C661.782 262.351 661.595 262.537 661.315 262.537C661.129 262.537 660.942 262.351 660.942 262.164C660.942 261.884 661.129 261.697 661.315 261.697C661.595 261.697 661.782 261.884 661.782 262.164Z" fill="#B0BADB"/>
<path d="M664.954 248.629C664.954 249.096 664.581 249.469 664.115 249.469C663.648 249.469 663.275 249.096 663.275 248.629C663.275 248.162 663.648 247.789 664.115 247.789C664.581 247.789 664.954 248.162 664.954 248.629Z" fill="#B0BADB"/>
<path d="M935.928 141.84C935.928 142.307 935.555 142.68 935.089 142.68C934.622 142.68 934.249 142.307 934.249 141.84C934.249 141.373 934.622 141 935.089 141C935.555 141 935.928 141.373 935.928 141.84Z" fill="#B0BADB"/>
<path d="M687.256 154.349C687.256 154.816 686.882 155.189 686.416 155.189C685.949 155.189 685.576 154.816 685.576 154.349C685.576 153.882 685.949 153.509 686.416 153.509C686.882 153.509 687.256 153.882 687.256 154.349Z" fill="#B0BADB"/>
<path d="M1038.94 72.0165C1039.97 71.083 1041.56 71.083 1042.49 72.0165C1043.52 73.0433 1043.52 74.6302 1042.49 75.5637C1041.56 76.5905 1039.97 76.5905 1038.94 75.5637C1038.01 74.6302 1038.01 73.0433 1038.94 72.0165Z" fill="white"/>
<path d="M1111.17 164.99C1112.1 164.057 1113.69 164.057 1114.71 164.99C1115.64 166.017 1115.64 167.604 1114.71 168.537C1113.69 169.564 1112.1 169.564 1111.17 168.537C1110.14 167.604 1110.14 166.017 1111.17 164.99Z" fill="#B0BADB"/>
<path d="M1078.41 124.385C1079.16 123.731 1080.28 123.731 1080.93 124.385C1081.68 125.131 1081.68 126.252 1080.93 126.905C1080.28 127.558 1079.16 127.558 1078.41 126.905C1077.76 126.252 1077.76 125.131 1078.41 124.385Z" fill="#B0BADB"/>
<path d="M1142.89 65.5759C1143.26 65.2026 1143.82 65.2026 1144.1 65.5759C1144.48 65.856 1144.48 66.4161 1144.1 66.6961C1143.82 67.0695 1143.26 67.0695 1142.89 66.6961C1142.61 66.4161 1142.61 65.856 1142.89 65.5759Z" fill="#B0BADB"/>
<path d="M1045.66 92.7396C1045.85 92.5529 1046.13 92.5529 1046.22 92.7396C1046.41 92.833 1046.41 93.113 1046.22 93.2997C1046.13 93.4864 1045.85 93.4864 1045.66 93.2997C1045.48 93.113 1045.48 92.833 1045.66 92.7396Z" fill="#B0BADB"/>
<path d="M1011.6 93.2061C1011.88 92.9261 1012.44 92.9261 1012.72 93.2061C1013.1 93.5795 1013.1 94.0462 1012.72 94.4196C1012.44 94.6997 1011.88 94.6997 1011.6 94.4196C1011.23 94.0462 1011.23 93.5795 1011.6 93.2061Z" fill="#B0BADB"/>
<path d="M1070.02 145.761C1070.39 145.481 1070.86 145.481 1071.23 145.761C1071.51 146.134 1071.51 146.601 1071.23 146.974C1070.86 147.254 1070.39 147.254 1070.02 146.974C1069.74 146.601 1069.74 146.134 1070.02 145.761Z" fill="#B0BADB"/>
<path d="M1000.41 137.92C1000.69 137.546 1001.25 137.546 1001.62 137.92C1001.9 138.2 1001.9 138.76 1001.62 139.04C1001.25 139.413 1000.69 139.413 1000.41 139.04C1000.03 138.76 1000.03 138.2 1000.41 137.92Z" fill="#B0BADB"/>
<path d="M1028.03 240.507C1028.21 240.321 1028.49 240.321 1028.59 240.507C1028.77 240.601 1028.77 240.881 1028.59 241.067C1028.49 241.254 1028.21 241.254 1028.03 241.067C1027.84 240.881 1027.84 240.601 1028.03 240.507Z" fill="#B0BADB"/>
<path d="M1019.81 160.043C1020.19 159.669 1020.65 159.669 1021.03 160.043C1021.31 160.323 1021.31 160.883 1021.03 161.163C1020.65 161.536 1020.19 161.536 1019.81 161.163C1019.53 160.883 1019.53 160.323 1019.81 160.043Z" fill="#B0BADB"/>
<path d="M1023.55 60.9087C1024.29 60.1619 1025.41 60.1619 1026.07 60.9087C1026.72 61.5621 1026.72 62.6823 1026.07 63.4291C1025.41 64.0825 1024.29 64.0825 1023.55 63.4291C1022.89 62.6823 1022.89 61.5621 1023.55 60.9087Z" fill="#B0BADB"/>
<path d="M606.355 358.964C607.102 358.218 608.222 358.218 608.875 358.964C609.528 359.618 609.528 360.738 608.875 361.391C608.222 362.138 607.102 362.138 606.355 361.391C605.702 360.738 605.702 359.618 606.355 358.964Z" fill="#B0BADB"/>
<path d="M1080.28 110.942C1080.56 110.662 1081.12 110.662 1081.4 110.942C1081.77 111.316 1081.77 111.783 1081.4 112.156C1081.12 112.436 1080.56 112.436 1080.28 112.156C1079.91 111.783 1079.91 111.316 1080.28 110.942Z" fill="#B0BADB"/>
<path d="M929.21 100.394C929.49 100.114 930.05 100.114 930.33 100.394C930.703 100.767 930.703 101.234 930.33 101.607C930.05 101.887 929.49 101.887 929.21 101.607C928.837 101.234 928.837 100.767 929.21 100.394Z" fill="#B0BADB"/>
<path d="M1027.65 125.597C1027.75 125.504 1028.03 125.504 1028.21 125.597C1028.4 125.784 1028.4 126.064 1028.21 126.251C1028.03 126.344 1027.75 126.344 1027.65 126.251C1027.47 126.064 1027.47 125.784 1027.65 125.597Z" fill="#B0BADB"/>
<path d="M1036.8 125.224C1036.98 125.037 1037.26 125.037 1037.45 125.224C1037.54 125.411 1037.54 125.691 1037.45 125.877C1037.26 125.971 1036.98 125.971 1036.8 125.877C1036.7 125.691 1036.7 125.411 1036.8 125.224Z" fill="#B0BADB"/>
<path d="M1025.04 132.598C1025.41 132.225 1025.88 132.225 1026.25 132.598C1026.53 132.878 1026.53 133.439 1026.25 133.719C1025.88 134.092 1025.41 134.092 1025.04 133.719C1024.76 133.439 1024.76 132.878 1025.04 132.598Z" fill="#B0BADB"/>
<path d="M851.016 145.014C851.016 145.947 850.269 146.787 849.243 146.787C848.31 146.787 847.47 145.947 847.47 145.014C847.47 143.987 848.31 143.24 849.243 143.24C850.269 143.24 851.016 143.987 851.016 145.014Z" fill="#B0BADB"/>
<path d="M850.643 133.532C851.576 132.599 853.162 132.599 854.095 133.532C855.121 134.559 855.121 136.146 854.095 137.079C853.162 138.106 851.576 138.106 850.643 137.079C849.616 136.146 849.616 134.559 850.643 133.532Z" fill="#B0BADB"/>
<path d="M890.113 121.304C890.766 120.557 891.886 120.557 892.539 121.304C893.285 121.958 893.285 123.078 892.539 123.731C891.886 124.478 890.766 124.478 890.113 123.731C889.366 123.078 889.366 121.958 890.113 121.304Z" fill="#B0BADB"/>
<path d="M857.268 89.5658C857.454 89.3791 857.734 89.3791 857.827 89.5658C858.014 89.7525 858.014 89.9392 857.827 90.1259C857.734 90.3126 857.454 90.3126 857.268 90.1259C857.081 89.9392 857.081 89.7525 857.268 89.5658Z" fill="#B0BADB"/>
<path d="M823.209 90.1257C823.489 89.7524 824.049 89.7524 824.329 90.1257C824.702 90.4058 824.702 90.9659 824.329 91.2459C824.049 91.6193 823.489 91.6193 823.209 91.2459C822.836 90.9659 822.836 90.4058 823.209 90.1257Z" fill="#B0BADB"/>
<path d="M812.012 134.746C812.292 134.372 812.852 134.372 813.225 134.746C813.505 135.026 813.505 135.586 813.225 135.959C812.852 136.239 812.292 136.239 812.012 135.959C811.732 135.586 811.732 135.026 812.012 134.746Z" fill="#B0BADB"/>
<path d="M831.421 156.869C831.794 156.496 832.26 156.496 832.634 156.869C832.914 157.149 832.914 157.709 832.634 157.989C832.26 158.362 831.794 158.362 831.421 157.989C831.141 157.709 831.141 157.149 831.421 156.869Z" fill="#B0BADB"/>
<path d="M845.324 129.145C845.977 128.492 847.097 128.492 847.843 129.145C848.496 129.892 848.496 131.012 847.843 131.666C847.097 132.319 845.977 132.319 845.324 131.666C844.671 131.012 844.671 129.892 845.324 129.145Z" fill="#B0BADB"/>
<path d="M861.84 119.25C862.213 118.97 862.773 118.97 863.053 119.25C863.426 119.623 863.426 120.09 863.053 120.464C862.773 120.744 862.213 120.744 861.84 120.464C861.56 120.09 861.56 119.623 861.84 119.25Z" fill="#B0BADB"/>
<path d="M850.829 115.236C851.109 114.956 851.669 114.956 851.949 115.236C852.322 115.61 852.322 116.077 851.949 116.45C851.669 116.73 851.109 116.73 850.829 116.45C850.456 116.077 850.456 115.61 850.829 115.236Z" fill="#B0BADB"/>
<path d="M839.259 122.517C839.352 122.33 839.632 122.33 839.819 122.517C840.005 122.61 840.005 122.89 839.819 123.077C839.632 123.264 839.352 123.264 839.259 123.077C839.072 122.89 839.072 122.61 839.259 122.517Z" fill="#B0BADB"/>
<path d="M848.496 122.05C848.59 121.957 848.87 121.957 849.056 122.05C849.243 122.237 849.243 122.517 849.056 122.704C848.87 122.891 848.59 122.891 848.496 122.704C848.31 122.517 848.31 122.237 848.496 122.05Z" fill="#B0BADB"/>
<path d="M836.646 129.425C837.019 129.051 837.486 129.051 837.859 129.425C838.139 129.705 838.139 130.265 837.859 130.545C837.486 130.918 837.019 130.918 836.646 130.545C836.366 130.265 836.366 129.705 836.646 129.425Z" fill="#B0BADB"/>
<path d="M1077.85 230.986C1078.51 230.333 1079.63 230.333 1080.37 230.986C1081.03 231.64 1081.03 232.76 1080.37 233.507C1079.63 234.16 1078.51 234.16 1077.85 233.507C1077.11 232.76 1077.11 231.64 1077.85 230.986Z" fill="#B0BADB"/>
<path d="M1080.19 177.218C1080.93 176.472 1082.05 176.472 1082.71 177.218C1083.45 177.872 1083.45 178.992 1082.71 179.645C1082.05 180.392 1080.93 180.392 1080.19 179.645C1079.53 178.992 1079.53 177.872 1080.19 177.218Z" fill="#B0BADB"/>
<path d="M1072.63 255.069C1073.09 254.509 1073.93 254.509 1074.4 255.069C1074.96 255.536 1074.96 256.376 1074.4 256.936C1073.93 257.403 1073.09 257.403 1072.63 256.936C1072.07 256.376 1072.07 255.536 1072.63 255.069Z" fill="#B0BADB"/>
<path d="M1081.21 235.467C1081.49 235.187 1082.05 235.187 1082.33 235.467C1082.71 235.84 1082.71 236.307 1082.33 236.68C1082.05 236.96 1081.49 236.96 1081.21 236.68C1080.84 236.307 1080.84 235.84 1081.21 235.467Z" fill="#B0BADB"/>
<path d="M1094.37 221.092C1094.74 220.812 1095.21 220.812 1095.58 221.092C1095.86 221.465 1095.86 221.932 1095.58 222.305C1095.21 222.585 1094.74 222.585 1094.37 222.305C1094.09 221.932 1094.09 221.465 1094.37 221.092Z" fill="#B0BADB"/>
<path d="M1132.07 170.218C1132.35 169.938 1132.91 169.938 1133.19 170.218C1133.56 170.591 1133.56 171.058 1133.19 171.431C1132.91 171.711 1132.35 171.711 1132.07 171.431C1131.69 171.058 1131.69 170.591 1132.07 170.218Z" fill="#B0BADB"/>
<path d="M1083.36 217.077C1083.64 216.797 1084.2 216.797 1084.48 217.077C1084.85 217.451 1084.85 217.917 1084.48 218.291C1084.2 218.571 1083.64 218.571 1083.36 218.291C1082.99 217.917 1082.99 217.451 1083.36 217.077Z" fill="#B0BADB"/>
<path d="M1071.7 224.265C1071.88 224.172 1072.16 224.172 1072.35 224.265C1072.54 224.452 1072.54 224.732 1072.35 224.919C1072.16 225.012 1071.88 225.012 1071.7 224.919C1071.6 224.732 1071.6 224.452 1071.7 224.265Z" fill="#B0BADB"/>
<path d="M1055.83 258.523C1056.02 258.43 1056.21 258.43 1056.39 258.523C1056.58 258.71 1056.58 258.99 1056.39 259.177C1056.21 259.27 1056.02 259.27 1055.83 259.177C1055.65 258.99 1055.65 258.71 1055.83 258.523Z" fill="#B0BADB"/>
<path d="M1104.26 265.058C1104.35 264.965 1104.63 264.965 1104.82 265.058C1105.01 265.245 1105.01 265.525 1104.82 265.712C1104.63 265.805 1104.35 265.805 1104.26 265.712C1104.07 265.525 1104.07 265.245 1104.26 265.058Z" fill="#B0BADB"/>
<path d="M1080.93 223.892C1081.12 223.799 1081.4 223.799 1081.59 223.892C1081.68 224.079 1081.68 224.359 1081.59 224.546C1081.4 224.639 1081.12 224.639 1080.93 224.546C1080.84 224.359 1080.84 224.079 1080.93 223.892Z" fill="#B0BADB"/>
<path d="M1069.18 231.266C1069.55 230.893 1070.02 230.893 1070.39 231.266C1070.67 231.546 1070.67 232.106 1070.39 232.387C1070.02 232.76 1069.55 232.76 1069.18 232.387C1068.9 232.106 1068.9 231.546 1069.18 231.266Z" fill="#B0BADB"/>
<path d="M1012.44 230.706C1012.72 230.426 1013.28 230.426 1013.56 230.706C1013.94 231.08 1013.94 231.546 1013.56 231.92C1013.28 232.2 1012.72 232.2 1012.44 231.92C1012.07 231.546 1012.07 231.08 1012.44 230.706Z" fill="#B0BADB"/>
<path d="M1095.58 258.804C1095.96 258.524 1096.42 258.524 1096.8 258.804C1097.08 259.177 1097.08 259.644 1096.8 260.017C1096.42 260.297 1095.96 260.297 1095.58 260.017C1095.3 259.644 1095.3 259.177 1095.58 258.804Z" fill="#B0BADB"/>
<path d="M989.115 307.624C989.769 306.877 990.888 306.877 991.635 307.624C992.288 308.277 992.288 309.397 991.635 310.144C990.888 310.797 989.769 310.797 989.115 310.144C988.462 309.397 988.462 308.277 989.115 307.624Z" fill="#B0BADB"/>
<path d="M907.749 300.716C907.935 300.529 908.215 300.529 908.309 300.716C908.495 300.903 908.495 301.183 908.309 301.276C908.215 301.463 907.935 301.463 907.749 301.276C907.562 301.183 907.562 300.903 907.749 300.716Z" fill="#B0BADB"/>
<path d="M37.6275 128.491C38.5606 127.558 40.1469 127.558 41.1733 128.491C42.1064 129.425 42.1064 131.011 41.1733 132.038C40.1469 132.972 38.5606 132.972 37.6275 132.038C36.6944 131.011 36.6944 129.425 37.6275 128.491Z" fill="#B0BADB"/>
<path d="M47.7984 253.389C48.5448 252.642 49.6646 252.642 50.3177 253.389C50.9709 254.043 50.9709 255.163 50.3177 255.816C49.6646 256.563 48.5448 256.563 47.7984 255.816C47.1452 255.163 47.1452 254.043 47.7984 253.389Z" fill="#B0BADB"/>
<path d="M33.7084 267.112C34.3616 266.365 35.4813 266.365 36.1345 267.112C36.881 267.765 36.881 268.885 36.1345 269.539C35.4813 270.286 34.3616 270.286 33.7084 269.539C32.9619 268.885 32.9619 267.765 33.7084 267.112Z" fill="#B0BADB"/>
<path d="M36.1345 365.779C36.4144 365.406 36.9743 365.406 37.2542 365.779C37.6275 366.059 37.6275 366.619 37.2542 366.993C36.9743 367.273 36.4144 367.273 36.1345 366.993C35.7613 366.619 35.7613 366.059 36.1345 365.779Z" fill="#B0BADB"/>
<path d="M61.4217 359.618C61.7016 359.245 62.2615 359.245 62.6347 359.618C62.9146 359.898 62.9146 360.458 62.6347 360.738C62.2615 361.111 61.7016 361.111 61.4217 360.738C61.0484 360.458 61.0484 359.898 61.4217 359.618Z" fill="#B0BADB"/>
<path d="M130.378 342.535C130.378 343.936 129.258 345.056 127.859 345.056C126.552 345.056 125.433 343.936 125.433 342.535C125.433 341.229 126.552 340.108 127.859 340.108C129.258 340.108 130.378 341.229 130.378 342.535Z" fill="#B0BADB"/>
<path d="M127.859 295.302C127.859 296.702 126.739 297.822 125.433 297.822C124.033 297.822 122.913 296.702 122.913 295.302C122.913 293.995 124.033 292.875 125.433 292.875C126.739 292.875 127.859 293.995 127.859 295.302Z" fill="#B0BADB"/>
<path d="M162.944 352.804C162.944 353.831 162.104 354.577 161.171 354.577C160.144 354.577 159.398 353.831 159.398 352.804C159.398 351.87 160.144 351.03 161.171 351.03C162.104 351.03 162.944 351.87 162.944 352.804Z" fill="#B0BADB"/>
<path d="M178.34 226.039C178.34 227.066 177.593 227.813 176.66 227.813C175.634 227.813 174.887 227.066 174.887 226.039C174.887 225.106 175.634 224.266 176.66 224.266C177.593 224.266 178.34 225.106 178.34 226.039Z" fill="#B0BADB"/>
<path d="M179.74 300.902C179.74 301.929 178.9 302.676 177.967 302.676C176.94 302.676 176.194 301.929 176.194 300.902C176.194 299.969 176.94 299.129 177.967 299.129C178.9 299.129 179.74 299.969 179.74 300.902Z" fill="#B0BADB"/>
<path d="M133.364 332.735C133.364 333.201 132.991 333.575 132.524 333.575C132.151 333.575 131.778 333.201 131.778 332.735C131.778 332.268 132.151 331.895 132.524 331.895C132.991 331.895 133.364 332.268 133.364 332.735Z" fill="#B0BADB"/>
<path d="M140.829 278.966C140.829 279.433 140.456 279.807 139.989 279.807C139.523 279.807 139.149 279.433 139.149 278.966C139.149 278.593 139.523 278.22 139.989 278.22C140.456 278.22 140.829 278.593 140.829 278.966Z" fill="#B0BADB"/>
<path d="M74.8584 219.692C74.8584 220.158 74.4852 220.532 74.0186 220.532C73.5521 220.532 73.1788 220.158 73.1788 219.692C73.1788 219.225 73.5521 218.852 74.0186 218.852C74.4852 218.852 74.8584 219.225 74.8584 219.692Z" fill="#B0BADB"/>
<path d="M177.967 214.651C178.9 213.624 180.486 213.624 181.512 214.651C182.446 215.584 182.446 217.171 181.512 218.198C180.486 219.132 178.9 219.132 177.967 218.198C176.94 217.171 176.94 215.584 177.967 214.651Z" fill="#B0BADB"/>
<path d="M250.096 242.934C251.122 242.001 252.708 242.001 253.641 242.934C254.575 243.961 254.575 245.455 253.641 246.482C252.708 247.415 251.122 247.415 250.096 246.482C249.163 245.455 249.163 243.961 250.096 242.934Z" fill="#B0BADB"/>
<path d="M217.437 202.329C218.09 201.676 219.21 201.676 219.956 202.329C220.609 202.982 220.609 204.103 219.956 204.849C219.21 205.503 218.09 205.503 217.437 204.849C216.69 204.103 216.69 202.982 217.437 202.329Z" fill="#B0BADB"/>
<path d="M229.474 245.361C229.754 245.081 230.314 245.081 230.594 245.361C230.967 245.735 230.967 246.202 230.594 246.575C230.314 246.855 229.754 246.855 229.474 246.575C229.101 246.202 229.101 245.735 229.474 245.361Z" fill="#B0BADB"/>
<path d="M184.592 170.591C184.778 170.497 185.058 170.497 185.245 170.591C185.338 170.777 185.338 171.057 185.245 171.244C185.058 171.337 184.778 171.337 184.592 171.244C184.498 171.057 184.498 170.777 184.592 170.591Z" fill="#B0BADB"/>
<path d="M150.533 171.151C150.813 170.871 151.373 170.871 151.746 171.151C152.026 171.525 152.026 171.992 151.746 172.365C151.373 172.645 150.813 172.645 150.533 172.365C150.16 171.992 150.16 171.525 150.533 171.151Z" fill="#B0BADB"/>
<path d="M236.192 221.651C236.566 221.371 237.126 221.371 237.405 221.651C237.779 222.025 237.779 222.492 237.405 222.865C237.126 223.145 236.566 223.145 236.192 222.865C235.912 222.492 235.912 222.025 236.192 221.651Z" fill="#B0BADB"/>
<path d="M139.336 215.771C139.709 215.491 140.176 215.491 140.549 215.771C140.829 216.144 140.829 216.704 140.549 216.984C140.176 217.357 139.709 217.357 139.336 216.984C139.056 216.704 139.056 216.144 139.336 215.771Z" fill="#B0BADB"/>
<path d="M166.956 318.359C167.143 318.266 167.422 318.266 167.609 318.359C167.796 318.546 167.796 318.826 167.609 319.013C167.422 319.199 167.143 319.199 166.956 319.013C166.863 318.826 166.863 318.546 166.956 318.359Z" fill="#B0BADB"/>
<path d="M158.838 237.894C159.118 237.614 159.678 237.614 159.958 237.894C160.331 238.267 160.331 238.827 159.958 239.107C159.678 239.387 159.118 239.387 158.838 239.107C158.465 238.827 158.465 238.267 158.838 237.894Z" fill="#B0BADB"/>
<path d="M172.648 210.263C173.394 209.516 174.514 209.516 175.167 210.263C175.82 210.917 175.82 212.037 175.167 212.69C174.514 213.437 173.394 213.437 172.648 212.69C171.995 212.037 171.995 210.917 172.648 210.263Z" fill="#B0BADB"/>
<path d="M189.257 200.369C189.537 199.996 190.097 199.996 190.377 200.369C190.75 200.649 190.75 201.209 190.377 201.489C190.097 201.862 189.537 201.862 189.257 201.489C188.884 201.209 188.884 200.649 189.257 200.369Z" fill="#B0BADB"/>
<path d="M178.153 196.354C178.526 195.981 178.993 195.981 179.366 196.354C179.646 196.634 179.646 197.194 179.366 197.474C178.993 197.848 178.526 197.848 178.153 197.474C177.873 197.194 177.873 196.634 178.153 196.354Z" fill="#B0BADB"/>
<path d="M166.583 203.542C166.769 203.356 167.049 203.356 167.143 203.542C167.329 203.729 167.329 204.009 167.143 204.102C167.049 204.289 166.769 204.289 166.583 204.102C166.396 204.009 166.396 203.729 166.583 203.542Z" fill="#B0BADB"/>
<path d="M175.82 203.169C176.007 202.983 176.194 202.983 176.38 203.169C176.567 203.356 176.567 203.636 176.38 203.729C176.194 203.916 176.007 203.916 175.82 203.729C175.634 203.636 175.634 203.356 175.82 203.169Z" fill="#B0BADB"/>
<path d="M164.063 210.45C164.343 210.17 164.903 210.17 165.183 210.45C165.556 210.824 165.556 211.29 165.183 211.664C164.903 211.944 164.343 211.944 164.063 211.664C163.69 211.29 163.69 210.824 164.063 210.45Z" fill="#B0BADB"/>
<path d="M29.0429 199.155C29.6961 198.502 30.8158 198.502 31.5623 199.155C32.2155 199.902 32.2155 201.022 31.5623 201.675C30.8158 202.329 29.6961 202.329 29.0429 201.675C28.2964 201.022 28.2964 199.902 29.0429 199.155Z" fill="#B0BADB"/>
<path d="M54.1434 121.117C54.8899 120.464 56.0097 120.464 56.6628 121.117C57.4093 121.864 57.4093 122.984 56.6628 123.637C56.0097 124.291 54.8899 124.291 54.1434 123.637C53.4903 122.984 53.4903 121.864 54.1434 121.117Z" fill="#B0BADB"/>
<path d="M885.261 54.0943C885.914 53.3475 887.034 53.3475 887.687 54.0943C888.433 54.7477 888.433 55.8679 887.687 56.6146C887.034 57.2681 885.914 57.2681 885.261 56.6146C884.514 55.8679 884.514 54.7477 885.261 54.0943Z" fill="#B0BADB"/>
<path d="M216.784 308.931C217.53 308.184 218.65 308.184 219.303 308.931C219.956 309.585 219.956 310.705 219.303 311.452C218.65 312.105 217.53 312.105 216.784 311.452C216.131 310.705 216.131 309.585 216.784 308.931Z" fill="#B0BADB"/>
<path d="M219.21 255.07C219.863 254.417 220.983 254.417 221.636 255.07C222.382 255.817 222.382 256.937 221.636 257.59C220.983 258.244 219.863 258.244 219.21 257.59C218.463 256.937 218.463 255.817 219.21 255.07Z" fill="white"/>
<path d="M211.558 333.014C212.118 332.454 212.865 332.454 213.425 333.014C213.891 333.481 213.891 334.321 213.425 334.787C212.865 335.347 212.118 335.347 211.558 334.787C211.092 334.321 211.092 333.481 211.558 333.014Z" fill="#B0BADB"/>
<path d="M220.143 313.411C220.423 313.131 220.983 313.131 221.356 313.411C221.636 313.785 221.636 314.251 221.356 314.625C220.983 314.905 220.423 314.905 220.143 314.625C219.77 314.251 219.77 313.785 220.143 313.411Z" fill="#B0BADB"/>
<path d="M233.393 299.036C233.673 298.663 234.233 298.663 234.513 299.036C234.886 299.316 234.886 299.876 234.513 300.249C234.233 300.529 233.673 300.529 233.393 300.249C233.02 299.876 233.02 299.316 233.393 299.036Z" fill="#B0BADB"/>
<path d="M248.789 249.375C249.069 249.095 249.629 249.095 250.002 249.375C250.282 249.748 250.282 250.215 250.002 250.589C249.629 250.869 249.069 250.869 248.789 250.589C248.509 250.215 248.509 249.748 248.789 249.375Z" fill="#B0BADB"/>
<path d="M222.289 295.022C222.569 294.649 223.129 294.649 223.502 295.022C223.782 295.302 223.782 295.862 223.502 296.142C223.129 296.516 222.569 296.516 222.289 296.142C221.916 295.862 221.916 295.302 222.289 295.022Z" fill="#B0BADB"/>
</g>
</svg>
