<svg width="1218" height="300" viewBox="0 0 1218 300" fill="none" xmlns="http://www.w3.org/2000/svg">
<g opacity="0.2">
<path d="M211.86 268.819C212.42 269.379 213.353 269.379 213.913 268.819C214.379 268.352 214.379 267.419 213.913 266.859C213.353 266.299 212.42 266.299 211.86 266.859C211.3 267.419 211.3 268.352 211.86 268.819Z" fill="#B0BADB"/>
<path d="M171.643 260.792C172.203 261.352 173.136 261.352 173.696 260.792C174.256 260.325 174.256 259.392 173.696 258.832C173.136 258.271 172.203 258.271 171.643 258.832C171.083 259.392 171.083 260.325 171.643 260.792Z" fill="#B0BADB"/>
<path d="M189.745 283.381C190.119 283.754 190.772 283.754 191.145 283.381C191.518 283.008 191.518 282.354 191.145 281.981C190.772 281.608 190.119 281.608 189.745 281.981C189.372 282.354 189.372 283.008 189.745 283.381Z" fill="#B0BADB"/>
<path d="M183.12 219.906C183.307 220.093 183.587 220.093 183.774 219.906C183.96 219.719 183.96 219.439 183.774 219.252C183.587 219.066 183.307 219.066 183.12 219.252C182.934 219.439 182.934 219.719 183.12 219.906Z" fill="#B0BADB"/>
<path d="M197.397 223.36C197.583 223.547 197.863 223.547 198.05 223.36C198.237 223.173 198.237 222.893 198.05 222.707C197.863 222.52 197.583 222.52 197.397 222.707C197.21 222.893 197.21 223.173 197.397 223.36Z" fill="#B0BADB"/>
<path d="M223.524 282.075C223.71 282.262 223.99 282.262 224.177 282.075C224.364 281.888 224.364 281.608 224.177 281.421C223.99 281.235 223.71 281.235 223.524 281.421C223.337 281.608 223.337 281.888 223.524 282.075Z" fill="#B0BADB"/>
<path d="M218.112 245.389C218.298 245.576 218.578 245.576 218.765 245.389C218.952 245.203 218.952 244.923 218.765 244.736C218.578 244.549 218.298 244.549 218.112 244.736C217.925 244.923 217.925 245.203 218.112 245.389Z" fill="#B0BADB"/>
<path d="M206.355 202.077C206.541 202.263 206.821 202.263 207.008 202.077C207.194 201.89 207.194 201.61 207.008 201.423C206.821 201.237 206.541 201.237 206.355 201.423C206.168 201.61 206.168 201.89 206.355 202.077Z" fill="#B0BADB"/>
<path d="M224.55 249.59C224.737 249.777 225.017 249.777 225.203 249.59C225.39 249.404 225.39 249.124 225.203 248.937C225.017 248.75 224.737 248.75 224.55 248.937C224.364 249.124 224.364 249.404 224.55 249.59Z" fill="#B0BADB"/>
<path d="M124.615 236.615C125.641 237.641 127.227 237.641 128.16 236.615C129.187 235.681 129.187 234.094 128.16 233.067C127.227 232.134 125.641 232.134 124.615 233.067C123.681 234.094 123.681 235.681 124.615 236.615Z" fill="#B0BADB"/>
<path d="M358.917 268.726C359.571 269.379 360.69 269.379 361.437 268.726C362.09 267.979 362.09 266.859 361.437 266.205C360.69 265.552 359.571 265.552 358.917 266.205C358.264 266.859 358.264 267.979 358.917 268.726Z" fill="#B0BADB"/>
<path d="M313.382 100.609C314.035 101.356 315.155 101.356 315.901 100.609C316.554 99.9554 316.554 98.8353 315.901 98.0885C315.155 97.4351 314.035 97.4351 313.382 98.0885C312.729 98.8353 312.729 99.9554 313.382 100.609Z" fill="#B0BADB"/>
<path d="M344.828 255.004C345.481 255.657 346.6 255.657 347.254 255.004C348 254.257 348 253.137 347.254 252.484C346.6 251.737 345.481 251.737 344.828 252.484C344.081 253.137 344.081 254.257 344.828 255.004Z" fill="#B0BADB"/>
<path d="M203.835 278.061C204.582 278.714 205.701 278.714 206.355 278.061C207.101 277.407 207.101 276.287 206.355 275.54C205.701 274.887 204.582 274.887 203.835 275.54C203.182 276.287 203.182 277.407 203.835 278.061Z" fill="#B0BADB"/>
<path d="M198.703 253.977C199.17 254.444 200.01 254.444 200.476 253.977C201.036 253.51 201.036 252.67 200.476 252.11C200.01 251.643 199.17 251.643 198.703 252.11C198.143 252.67 198.143 253.51 198.703 253.977Z" fill="#B0BADB"/>
<path d="M209.061 228.587C209.527 229.054 210.367 229.054 210.834 228.587C211.393 228.027 211.393 227.281 210.834 226.721C210.367 226.254 209.527 226.254 209.061 226.721C208.501 227.281 208.501 228.027 209.061 228.587Z" fill="#B0BADB"/>
<path d="M207.194 273.58C207.568 273.86 208.034 273.86 208.408 273.58C208.687 273.207 208.687 272.647 208.408 272.367C208.034 271.993 207.568 271.993 207.194 272.367C206.915 272.647 206.915 273.207 207.194 273.58Z" fill="#B0BADB"/>
<path d="M258.422 280.954C258.795 281.234 259.355 281.234 259.635 280.954C260.008 280.581 260.008 280.021 259.635 279.741C259.355 279.367 258.795 279.367 258.422 279.741C258.142 280.021 258.142 280.581 258.422 280.954Z" fill="#B0BADB"/>
<path d="M209.341 291.97C209.714 292.25 210.18 292.25 210.554 291.97C210.834 291.596 210.834 291.13 210.554 290.756C210.18 290.476 209.714 290.476 209.341 290.756C209.061 291.13 209.061 291.596 209.341 291.97Z" fill="#B0BADB"/>
<path d="M197.77 284.782C197.957 284.875 198.237 284.875 198.33 284.782C198.517 284.595 198.517 284.315 198.33 284.128C198.237 283.941 197.957 283.941 197.77 284.128C197.583 284.315 197.583 284.595 197.77 284.782Z" fill="#B0BADB"/>
<path d="M230.242 243.99C230.429 244.083 230.709 244.083 230.895 243.99C230.989 243.803 230.989 243.523 230.895 243.336C230.709 243.149 230.429 243.149 230.242 243.336C230.149 243.523 230.149 243.803 230.242 243.99Z" fill="#B0BADB"/>
<path d="M230.709 214.772C230.802 214.865 231.082 214.865 231.269 214.772C231.455 214.585 231.455 214.305 231.269 214.118C231.082 214.025 230.802 214.025 230.709 214.118C230.522 214.305 230.522 214.585 230.709 214.772Z" fill="#B0BADB"/>
<path d="M214.846 214.305C214.939 214.492 215.219 214.492 215.406 214.305C215.592 214.119 215.592 213.932 215.406 213.745C215.219 213.559 214.939 213.559 214.846 213.745C214.659 213.932 214.659 214.119 214.846 214.305Z" fill="#B0BADB"/>
<path d="M214.379 219.812C214.566 219.999 214.846 219.999 214.939 219.812C215.126 219.625 215.126 219.345 214.939 219.159C214.846 219.065 214.566 219.065 214.379 219.159C214.193 219.345 214.193 219.625 214.379 219.812Z" fill="#B0BADB"/>
<path d="M207.008 285.156C207.194 285.249 207.381 285.249 207.568 285.156C207.754 284.969 207.754 284.689 207.568 284.502C207.381 284.409 207.194 284.409 207.008 284.502C206.821 284.689 206.821 284.969 207.008 285.156Z" fill="#B0BADB"/>
<path d="M195.251 277.781C195.531 278.154 196.091 278.154 196.37 277.781C196.744 277.5 196.744 276.94 196.37 276.66C196.091 276.287 195.531 276.287 195.251 276.66C194.877 276.94 194.877 277.5 195.251 277.781Z" fill="#B0BADB"/>
<path d="M221.658 250.243C221.937 250.523 222.497 250.523 222.871 250.243C223.151 249.87 223.151 249.31 222.871 249.03C222.497 248.75 221.937 248.75 221.658 249.03C221.284 249.31 221.284 249.87 221.658 250.243Z" fill="#B0BADB"/>
<path d="M186.293 220.466C186.573 220.839 187.133 220.839 187.413 220.466C187.786 220.186 187.786 219.626 187.413 219.346C187.133 218.972 186.573 218.972 186.293 219.346C185.92 219.626 185.92 220.186 186.293 220.466Z" fill="#B0BADB"/>
<path d="M261.688 227C261.688 225.974 260.848 225.227 259.915 225.227C258.982 225.227 258.142 225.974 258.142 227C258.142 227.934 258.982 228.681 259.915 228.681C260.848 228.681 261.688 227.934 261.688 227Z" fill="#B0BADB"/>
<path d="M326.539 288.236C327.472 289.263 329.058 289.263 330.084 288.236C331.018 287.302 331.018 285.715 330.084 284.782C329.058 283.755 327.472 283.755 326.539 284.782C325.606 285.715 325.606 287.302 326.539 288.236Z" fill="#B0BADB"/>
<path d="M162.779 30.0382C163.432 30.6917 164.551 30.6917 165.205 30.0382C165.951 29.2915 165.951 28.1713 165.205 27.5179C164.551 26.8644 163.432 26.8644 162.779 27.5179C162.032 28.1713 162.032 29.2915 162.779 30.0382Z" fill="#B0BADB"/>
<path d="M4.80374 46.2812C5.08367 46.5612 5.64354 46.5612 5.92347 46.2812C6.29672 45.9078 6.29672 45.4411 5.92347 45.0677C5.64354 44.7876 5.08367 44.7876 4.80374 45.0677C4.43049 45.4411 4.43049 45.9078 4.80374 46.2812Z" fill="#B0BADB"/>
<path d="M356.678 157.737C356.865 157.924 357.145 157.924 357.238 157.737C357.424 157.55 357.424 157.364 357.238 157.177C357.145 156.99 356.865 156.99 356.678 157.177C356.491 157.364 356.491 157.55 356.678 157.737Z" fill="#B0BADB"/>
<path d="M233.788 281.888C234.161 282.168 234.721 282.168 235.001 281.888C235.374 281.514 235.374 280.954 235.001 280.674C234.721 280.301 234.161 280.301 233.788 280.674C233.508 280.954 233.508 281.514 233.788 281.888Z" fill="#B0BADB"/>
<path d="M6.57673 35.4526C7.32322 36.1994 8.44294 36.1994 9.09612 35.4526C9.8426 34.7992 9.8426 33.679 9.09612 33.0256C8.44294 32.2788 7.32322 32.2788 6.57673 33.0256C5.92356 33.679 5.92356 34.7992 6.57673 35.4526Z" fill="#B0BADB"/>
<path d="M242.093 215.052C242.466 215.425 242.932 215.425 243.306 215.052C243.586 214.772 243.586 214.212 243.306 213.932C242.932 213.558 242.466 213.558 242.093 213.932C241.813 214.212 241.813 214.772 242.093 215.052Z" fill="#B0BADB"/>
<path d="M305.544 281.608C306.29 282.261 307.41 282.261 308.063 281.608C308.81 280.861 308.81 279.741 308.063 279.087C307.41 278.34 306.29 278.34 305.544 279.087C304.891 279.741 304.891 280.861 305.544 281.608Z" fill="#B0BADB"/>
<path d="M361.25 128.053C361.623 128.333 362.09 128.333 362.463 128.053C362.743 127.679 362.743 127.213 362.463 126.839C362.09 126.559 361.623 126.559 361.25 126.839C360.97 127.213 360.97 127.679 361.25 128.053Z" fill="#B0BADB"/>
<path d="M261.501 256.685C261.781 256.965 262.341 256.965 262.621 256.685C262.994 256.311 262.994 255.844 262.621 255.471C262.341 255.191 261.781 255.191 261.501 255.471C261.128 255.844 261.128 256.311 261.501 256.685Z" fill="#B0BADB"/>
<path d="M249.931 249.496C250.024 249.59 250.304 249.59 250.491 249.496C250.677 249.31 250.677 249.03 250.491 248.843C250.304 248.75 250.024 248.75 249.931 248.843C249.744 249.03 249.744 249.31 249.931 249.496Z" fill="#B0BADB"/>
<path d="M259.075 249.87C259.262 249.964 259.542 249.964 259.728 249.87C259.822 249.684 259.822 249.404 259.728 249.217C259.542 249.124 259.262 249.124 259.075 249.217C258.982 249.404 258.982 249.684 259.075 249.87Z" fill="#B0BADB"/>
<path d="M247.318 242.495C247.691 242.869 248.158 242.869 248.531 242.495C248.811 242.215 248.811 241.655 248.531 241.375C248.158 241.002 247.691 241.002 247.318 241.375C247.038 241.655 247.038 242.215 247.318 242.495Z" fill="#B0BADB"/>
<path d="M201.503 214.585C201.876 214.959 202.342 214.959 202.716 214.585C202.996 214.305 202.996 213.745 202.716 213.465C202.342 213.092 201.876 213.092 201.503 213.465C201.223 213.745 201.223 214.305 201.503 214.585Z" fill="#B0BADB"/>
<path d="M168.284 241.095C168.564 241.468 169.124 241.468 169.404 241.095C169.777 240.815 169.777 240.255 169.404 239.881C169.124 239.601 168.564 239.601 168.284 239.881C167.911 240.255 167.911 240.815 168.284 241.095Z" fill="#B0BADB"/>
<path d="M532.288 116.478C533.222 117.505 534.808 117.505 535.834 116.478C536.767 115.544 536.767 113.958 535.834 112.931C534.808 111.997 533.222 111.997 532.288 112.931C531.262 113.958 531.262 115.544 532.288 116.478Z" fill="#B0BADB"/>
<path d="M390.083 209.637C391.016 210.664 392.603 210.664 393.629 209.637C394.562 208.704 394.562 207.117 393.629 206.183C392.603 205.156 391.016 205.156 390.083 206.183C389.057 207.117 389.057 208.704 390.083 209.637Z" fill="#B0BADB"/>
<path d="M582.863 152.696C583.796 153.63 585.382 153.63 586.409 152.696C587.342 151.67 587.342 150.083 586.409 149.149C585.382 148.122 583.796 148.122 582.863 149.149C581.836 150.083 581.836 151.67 582.863 152.696Z" fill="#B0BADB"/>
<path d="M516.519 146.722C517.172 147.469 518.292 147.469 519.038 146.722C519.692 146.069 519.692 144.949 519.038 144.295C518.292 143.548 517.172 143.548 516.519 144.295C515.866 144.949 515.866 146.069 516.519 146.722Z" fill="#B0BADB"/>
<path d="M614.868 192.555C615.522 193.208 616.641 193.208 617.388 192.555C618.041 191.901 618.041 190.781 617.388 190.034C616.641 189.381 615.522 189.381 614.868 190.034C614.122 190.781 614.122 191.901 614.868 192.555Z" fill="#B0BADB"/>
<path d="M600.685 178.833C601.432 179.487 602.551 179.487 603.205 178.833C603.858 178.18 603.858 177.06 603.205 176.313C602.551 175.659 601.432 175.659 600.685 176.313C600.032 177.06 600.032 178.18 600.685 178.833Z" fill="#B0BADB"/>
<path d="M548.524 77.272C549.271 78.0187 550.391 78.0187 551.044 77.272C551.79 76.6185 551.79 75.4984 551.044 74.7516C550.391 74.0981 549.271 74.0981 548.524 74.7516C547.871 75.4984 547.871 76.6185 548.524 77.272Z" fill="#B0BADB"/>
<path d="M523.237 111.717C523.517 111.997 524.077 111.997 524.357 111.717C524.73 111.343 524.73 110.783 524.357 110.503C524.077 110.13 523.517 110.13 523.237 110.503C522.864 110.783 522.864 111.343 523.237 111.717Z" fill="#B0BADB"/>
<path d="M551.884 72.7909C552.257 73.071 552.724 73.071 553.097 72.7909C553.377 72.4176 553.377 71.9508 553.097 71.5774C552.724 71.2974 552.257 71.2974 551.884 71.5774C551.604 71.9508 551.604 72.4176 551.884 72.7909Z" fill="#B0BADB"/>
<path d="M603.111 80.1659C603.484 80.446 603.951 80.446 604.324 80.1659C604.604 79.7926 604.604 79.3258 604.324 78.9524C603.951 78.6724 603.484 78.6724 603.111 78.9524C602.831 79.3258 602.831 79.7926 603.111 80.1659Z" fill="#B0BADB"/>
<path d="M628.492 86.3264C628.772 86.6998 629.331 86.6998 629.611 86.3264C629.985 86.0464 629.985 85.4863 629.611 85.2063C629.331 84.8329 628.772 84.8329 628.492 85.2063C628.118 85.4863 628.118 86.0464 628.492 86.3264Z" fill="#B0BADB"/>
<path d="M565.134 87.1662C565.414 87.5396 565.974 87.5396 566.254 87.1662C566.627 86.8862 566.627 86.3261 566.254 85.9527C565.974 85.6727 565.414 85.6727 565.134 85.9527C564.761 86.3261 564.761 86.8862 565.134 87.1662Z" fill="#B0BADB"/>
<path d="M410.705 233.067C410.985 233.347 411.545 233.347 411.825 233.067C412.198 232.694 412.198 232.227 411.825 231.854C411.545 231.574 410.985 231.574 410.705 231.854C410.332 232.227 410.332 232.694 410.705 233.067Z" fill="#B0BADB"/>
<path d="M554.03 91.1809C554.403 91.5543 554.87 91.5543 555.243 91.1809C555.523 90.9009 555.523 90.3408 555.243 89.9674C554.87 89.6874 554.403 89.6874 554.03 89.9674C553.75 90.3408 553.75 90.9009 554.03 91.1809Z" fill="#B0BADB"/>
<path d="M542.459 83.9928C542.646 84.1795 542.926 84.1795 543.019 83.9928C543.206 83.8061 543.206 83.5261 543.019 83.3394C542.926 83.246 542.646 83.246 542.459 83.3394C542.273 83.5261 542.273 83.8061 542.459 83.9928Z" fill="#B0BADB"/>
<path d="M551.697 84.3658C551.884 84.5525 552.07 84.5525 552.257 84.3658C552.444 84.1791 552.444 83.8991 552.257 83.8058C552.07 83.6191 551.884 83.6191 551.697 83.8058C551.51 83.8991 551.51 84.1791 551.697 84.3658Z" fill="#B0BADB"/>
<path d="M539.94 77.0849C540.22 77.3649 540.78 77.3649 541.06 77.0849C541.433 76.7115 541.433 76.1514 541.06 75.8714C540.78 75.5914 540.22 75.5914 539.94 75.8714C539.567 76.1514 539.567 76.7115 539.94 77.0849Z" fill="#B0BADB"/>
<path d="M371.794 118.811C372.168 119.091 372.634 119.091 373.007 118.811C373.287 118.438 373.287 117.971 373.007 117.598C372.634 117.318 372.168 117.318 371.794 117.598C371.514 117.971 371.514 118.438 371.794 118.811Z" fill="#B0BADB"/>
<path d="M383.365 126.186C383.645 126.559 384.205 126.559 384.485 126.186C384.858 125.906 384.858 125.346 384.485 125.066C384.205 124.692 383.645 124.692 383.365 125.066C382.992 125.346 382.992 125.906 383.365 126.186Z" fill="#B0BADB"/>
<path d="M697.448 103.316C697.448 102.009 696.329 100.889 694.929 100.889C693.529 100.889 692.409 102.009 692.409 103.316C692.409 104.716 693.529 105.836 694.929 105.836C696.329 105.836 697.448 104.716 697.448 103.316Z" fill="#B0BADB"/>
<path d="M694.929 150.549C694.929 149.242 693.809 148.122 692.41 148.122C691.103 148.122 689.983 149.242 689.983 150.549C689.983 151.949 691.103 153.069 692.41 153.069C693.809 153.069 694.929 151.949 694.929 150.549Z" fill="#B0BADB"/>
<path d="M729.92 93.1411C729.92 92.1142 729.174 91.3675 728.147 91.3675C727.214 91.3675 726.468 92.1142 726.468 93.1411C726.468 94.0745 727.214 94.8213 728.147 94.8213C729.174 94.8213 729.92 94.0745 729.92 93.1411Z" fill="#B0BADB"/>
<path d="M364.983 113.117C364.983 112.09 364.143 111.343 363.21 111.343C362.183 111.343 361.437 112.09 361.437 113.117C361.437 114.051 362.183 114.891 363.21 114.891C364.143 114.891 364.983 114.051 364.983 113.117Z" fill="#B0BADB"/>
<path d="M745.41 219.906C745.41 218.879 744.663 218.133 743.637 218.133C742.704 218.133 741.864 218.879 741.864 219.906C741.864 220.84 742.704 221.68 743.637 221.68C744.663 221.68 745.41 220.84 745.41 219.906Z" fill="#B0BADB"/>
<path d="M746.716 145.042C746.716 144.015 745.97 143.268 744.943 143.268C744.01 143.268 743.264 144.015 743.264 145.042C743.264 145.975 744.01 146.815 744.943 146.815C745.97 146.815 746.716 145.975 746.716 145.042Z" fill="#B0BADB"/>
<path d="M380.845 183.034C380.845 182.381 380.286 181.727 379.539 181.727C378.886 181.727 378.326 182.381 378.326 183.034C378.326 183.781 378.886 184.341 379.539 184.341C380.286 184.341 380.845 183.781 380.845 183.034Z" fill="#B0BADB"/>
<path d="M700.434 113.211C700.434 112.744 700.061 112.371 699.594 112.371C699.128 112.371 698.755 112.744 698.755 113.211C698.755 113.677 699.128 114.051 699.594 114.051C700.061 114.051 700.434 113.677 700.434 113.211Z" fill="#B0BADB"/>
<path d="M359.384 113.957C359.384 113.491 359.011 113.117 358.544 113.117C358.078 113.117 357.704 113.491 357.704 113.957C357.704 114.331 358.078 114.704 358.544 114.704C359.011 114.704 359.384 114.331 359.384 113.957Z" fill="#B0BADB"/>
<path d="M360.224 94.3542C360.224 93.8875 359.851 93.5141 359.384 93.5141C358.917 93.5141 358.544 93.8875 358.544 94.3542C358.544 94.821 358.917 95.1943 359.384 95.1943C359.851 95.1943 360.224 94.821 360.224 94.3542Z" fill="#B0BADB"/>
<path d="M370.954 99.3952C370.954 98.9285 370.581 98.5551 370.115 98.5551C369.648 98.5551 369.275 98.9285 369.275 99.3952C369.275 99.8619 369.648 100.235 370.115 100.235C370.581 100.235 370.954 99.8619 370.954 99.3952Z" fill="#B0BADB"/>
<path d="M707.806 166.884C707.806 166.418 707.432 166.044 706.966 166.044C706.499 166.044 706.126 166.418 706.126 166.884C706.126 167.351 706.499 167.725 706.966 167.725C707.432 167.725 707.806 167.351 707.806 166.884Z" fill="#B0BADB"/>
<path d="M374.034 112.65C374.034 112.464 373.847 112.277 373.567 112.277C373.381 112.277 373.194 112.464 373.194 112.65C373.194 112.93 373.381 113.117 373.567 113.117C373.847 113.117 374.034 112.93 374.034 112.65Z" fill="#B0BADB"/>
<path d="M367.782 105.836C367.782 105.649 367.595 105.463 367.315 105.463C367.129 105.463 366.942 105.649 366.942 105.836C366.942 106.116 367.129 106.303 367.315 106.303C367.595 106.303 367.782 106.116 367.782 105.836Z" fill="#B0BADB"/>
<path d="M370.954 119.371C370.954 118.904 370.581 118.531 370.115 118.531C369.648 118.531 369.275 118.904 369.275 119.371C369.275 119.838 369.648 120.211 370.115 120.211C370.581 120.211 370.954 119.838 370.954 119.371Z" fill="#B0BADB"/>
<path d="M641.928 226.16C641.928 225.693 641.555 225.32 641.089 225.32C640.622 225.32 640.249 225.693 640.249 226.16C640.249 226.627 640.622 227 641.089 227C641.555 227 641.928 226.627 641.928 226.16Z" fill="#B0BADB"/>
<path d="M393.256 213.651C393.256 213.184 392.882 212.811 392.416 212.811C391.949 212.811 391.576 213.184 391.576 213.651C391.576 214.118 391.949 214.491 392.416 214.491C392.882 214.491 393.256 214.118 393.256 213.651Z" fill="#B0BADB"/>
<path d="M744.943 295.983C745.97 296.917 747.556 296.917 748.489 295.983C749.516 294.957 749.516 293.37 748.489 292.436C747.556 291.41 745.97 291.41 744.943 292.436C744.01 293.37 744.01 294.957 744.943 295.983Z" fill="white"/>
<path d="M817.166 203.01C818.099 203.943 819.685 203.943 820.712 203.01C821.645 201.983 821.645 200.396 820.712 199.463C819.685 198.436 818.099 198.436 817.166 199.463C816.139 200.396 816.139 201.983 817.166 203.01Z" fill="#B0BADB"/>
<path d="M784.414 243.615C785.16 244.269 786.28 244.269 786.933 243.615C787.68 242.869 787.68 241.748 786.933 241.095C786.28 240.442 785.16 240.442 784.414 241.095C783.761 241.748 783.761 242.869 784.414 243.615Z" fill="#B0BADB"/>
<path d="M751.662 275.26C751.848 275.447 752.128 275.447 752.222 275.26C752.408 275.167 752.408 274.887 752.222 274.7C752.128 274.514 751.848 274.514 751.662 274.7C751.475 274.887 751.475 275.167 751.662 275.26Z" fill="#B0BADB"/>
<path d="M717.603 274.794C717.883 275.074 718.443 275.074 718.723 274.794C719.096 274.42 719.096 273.954 718.723 273.58C718.443 273.3 717.883 273.3 717.603 273.58C717.23 273.954 717.23 274.42 717.603 274.794Z" fill="#B0BADB"/>
<path d="M776.016 222.239C776.389 222.519 776.855 222.519 777.229 222.239C777.509 221.866 777.509 221.399 777.229 221.026C776.855 220.746 776.389 220.746 776.016 221.026C775.736 221.399 775.736 221.866 776.016 222.239Z" fill="#B0BADB"/>
<path d="M706.406 230.08C706.686 230.454 707.246 230.454 707.619 230.08C707.899 229.8 707.899 229.24 707.619 228.96C707.246 228.587 706.686 228.587 706.406 228.96C706.033 229.24 706.033 229.8 706.406 230.08Z" fill="#B0BADB"/>
<path d="M734.026 127.493C734.213 127.679 734.492 127.679 734.586 127.493C734.772 127.399 734.772 127.119 734.586 126.933C734.492 126.746 734.213 126.746 734.026 126.933C733.839 127.119 733.839 127.399 734.026 127.493Z" fill="#B0BADB"/>
<path d="M725.815 207.957C726.188 208.331 726.654 208.331 727.028 207.957C727.308 207.677 727.308 207.117 727.028 206.837C726.654 206.464 726.188 206.464 725.815 206.837C725.535 207.117 725.535 207.677 725.815 207.957Z" fill="#B0BADB"/>
<path d="M312.355 9.03562C313.102 9.7824 314.222 9.7824 314.875 9.03562C315.528 8.38219 315.528 7.26206 314.875 6.60863C314.222 5.86186 313.102 5.86186 312.355 6.60863C311.702 7.26206 311.702 8.38219 312.355 9.03562Z" fill="#B0BADB"/>
<path d="M786.28 257.058C786.56 257.338 787.12 257.338 787.4 257.058C787.773 256.684 787.773 256.217 787.4 255.844C787.12 255.564 786.56 255.564 786.28 255.844C785.907 256.217 785.907 256.684 786.28 257.058Z" fill="#B0BADB"/>
<path d="M635.21 267.606C635.49 267.886 636.05 267.886 636.33 267.606C636.703 267.233 636.703 266.766 636.33 266.393C636.05 266.113 635.49 266.113 635.21 266.393C634.837 266.766 634.837 267.233 635.21 267.606Z" fill="#B0BADB"/>
<path d="M733.653 242.403C733.746 242.496 734.026 242.496 734.213 242.403C734.399 242.216 734.399 241.936 734.213 241.749C734.026 241.656 733.746 241.656 733.653 241.749C733.466 241.936 733.466 242.216 733.653 242.403Z" fill="#B0BADB"/>
<path d="M742.797 242.776C742.984 242.963 743.264 242.963 743.45 242.776C743.544 242.589 743.544 242.309 743.45 242.123C743.264 242.029 742.984 242.029 742.797 242.123C742.704 242.309 742.704 242.589 742.797 242.776Z" fill="#B0BADB"/>
<path d="M731.04 235.402C731.413 235.775 731.88 235.775 732.253 235.402C732.533 235.122 732.533 234.561 732.253 234.281C731.88 233.908 731.413 233.908 731.04 234.281C730.76 234.561 730.76 235.122 731.04 235.402Z" fill="#B0BADB"/>
<path d="M557.016 222.986C557.016 222.053 556.269 221.213 555.243 221.213C554.31 221.213 553.47 222.053 553.47 222.986C553.47 224.013 554.31 224.76 555.243 224.76C556.269 224.76 557.016 224.013 557.016 222.986Z" fill="#B0BADB"/>
<path d="M556.643 234.468C557.576 235.401 559.162 235.401 560.095 234.468C561.121 233.441 561.121 231.854 560.095 230.921C559.162 229.894 557.576 229.894 556.643 230.921C555.616 231.854 555.616 233.441 556.643 234.468Z" fill="#B0BADB"/>
<path d="M596.113 246.696C596.766 247.443 597.886 247.443 598.539 246.696C599.285 246.042 599.285 244.922 598.539 244.269C597.886 243.522 596.766 243.522 596.113 244.269C595.366 244.922 595.366 246.042 596.113 246.696Z" fill="#B0BADB"/>
<path d="M563.268 278.434C563.454 278.621 563.734 278.621 563.827 278.434C564.014 278.248 564.014 278.061 563.827 277.874C563.734 277.687 563.454 277.687 563.268 277.874C563.081 278.061 563.081 278.248 563.268 278.434Z" fill="#B0BADB"/>
<path d="M529.209 277.874C529.489 278.248 530.049 278.248 530.329 277.874C530.702 277.594 530.702 277.034 530.329 276.754C530.049 276.381 529.489 276.381 529.209 276.754C528.836 277.034 528.836 277.594 529.209 277.874Z" fill="#B0BADB"/>
<path d="M518.012 233.254C518.292 233.628 518.852 233.628 519.225 233.254C519.505 232.974 519.505 232.414 519.225 232.041C518.852 231.761 518.292 231.761 518.012 232.041C517.732 232.414 517.732 232.974 518.012 233.254Z" fill="#B0BADB"/>
<path d="M537.421 211.131C537.794 211.504 538.26 211.504 538.634 211.131C538.914 210.851 538.914 210.291 538.634 210.011C538.26 209.638 537.794 209.638 537.421 210.011C537.141 210.291 537.141 210.851 537.421 211.131Z" fill="#B0BADB"/>
<path d="M551.324 238.855C551.977 239.508 553.097 239.508 553.843 238.855C554.496 238.108 554.496 236.988 553.843 236.334C553.097 235.681 551.977 235.681 551.324 236.334C550.671 236.988 550.671 238.108 551.324 238.855Z" fill="#B0BADB"/>
<path d="M567.84 248.75C568.213 249.03 568.773 249.03 569.053 248.75C569.426 248.377 569.426 247.91 569.053 247.536C568.773 247.256 568.213 247.256 567.84 247.536C567.56 247.91 567.56 248.377 567.84 248.75Z" fill="#B0BADB"/>
<path d="M556.829 252.764C557.109 253.044 557.669 253.044 557.949 252.764C558.322 252.39 558.322 251.923 557.949 251.55C557.669 251.27 557.109 251.27 556.829 251.55C556.456 251.923 556.456 252.39 556.829 252.764Z" fill="#B0BADB"/>
<path d="M545.259 245.483C545.352 245.67 545.632 245.67 545.819 245.483C546.005 245.39 546.005 245.11 545.819 244.923C545.632 244.736 545.352 244.736 545.259 244.923C545.072 245.11 545.072 245.39 545.259 245.483Z" fill="#B0BADB"/>
<path d="M554.496 245.95C554.59 246.043 554.87 246.043 555.056 245.95C555.243 245.763 555.243 245.483 555.056 245.296C554.87 245.109 554.59 245.109 554.496 245.296C554.31 245.483 554.31 245.763 554.496 245.95Z" fill="#B0BADB"/>
<path d="M542.646 238.575C543.019 238.949 543.486 238.949 543.859 238.575C544.139 238.295 544.139 237.735 543.859 237.455C543.486 237.082 543.019 237.082 542.646 237.455C542.366 237.735 542.366 238.295 542.646 238.575Z" fill="#B0BADB"/>
<path d="M783.854 137.014C784.507 137.667 785.627 137.667 786.373 137.014C787.027 136.36 787.027 135.24 786.373 134.493C785.627 133.84 784.507 133.84 783.854 134.493C783.108 135.24 783.108 136.36 783.854 137.014Z" fill="#B0BADB"/>
<path d="M786.187 190.782C786.933 191.528 788.053 191.528 788.706 190.782C789.452 190.128 789.452 189.008 788.706 188.355C788.053 187.608 786.933 187.608 786.187 188.355C785.533 189.008 785.533 190.128 786.187 190.782Z" fill="#B0BADB"/>
<path d="M778.628 112.931C779.095 113.491 779.935 113.491 780.401 112.931C780.961 112.464 780.961 111.624 780.401 111.064C779.935 110.597 779.095 110.597 778.628 111.064C778.069 111.624 778.069 112.464 778.628 112.931Z" fill="#B0BADB"/>
<path d="M787.213 132.533C787.493 132.813 788.053 132.813 788.333 132.533C788.706 132.16 788.706 131.693 788.333 131.32C788.053 131.04 787.493 131.04 787.213 131.32C786.84 131.693 786.84 132.16 787.213 132.533Z" fill="#B0BADB"/>
<path d="M800.37 146.908C800.743 147.188 801.21 147.188 801.583 146.908C801.863 146.535 801.863 146.068 801.583 145.695C801.21 145.415 800.743 145.415 800.37 145.695C800.09 146.068 800.09 146.535 800.37 146.908Z" fill="#B0BADB"/>
<path d="M838.067 197.782C838.347 198.062 838.907 198.062 839.187 197.782C839.56 197.409 839.56 196.942 839.187 196.569C838.907 196.289 838.347 196.289 838.067 196.569C837.694 196.942 837.694 197.409 838.067 197.782Z" fill="#B0BADB"/>
<path d="M789.359 150.923C789.639 151.203 790.199 151.203 790.479 150.923C790.852 150.549 790.852 150.083 790.479 149.709C790.199 149.429 789.639 149.429 789.359 149.709C788.986 150.083 788.986 150.549 789.359 150.923Z" fill="#B0BADB"/>
<path d="M777.695 143.735C777.882 143.828 778.162 143.828 778.348 143.735C778.535 143.548 778.535 143.268 778.348 143.081C778.162 142.988 777.882 142.988 777.695 143.081C777.602 143.268 777.602 143.548 777.695 143.735Z" fill="#B0BADB"/>
<path d="M761.833 109.477C762.019 109.57 762.206 109.57 762.393 109.477C762.579 109.29 762.579 109.01 762.393 108.823C762.206 108.73 762.019 108.73 761.833 108.823C761.646 109.01 761.646 109.29 761.833 109.477Z" fill="#B0BADB"/>
<path d="M810.261 102.942C810.354 103.035 810.634 103.035 810.82 102.942C811.007 102.755 811.007 102.475 810.82 102.288C810.634 102.195 810.354 102.195 810.261 102.288C810.074 102.475 810.074 102.755 810.261 102.942Z" fill="#B0BADB"/>
<path d="M786.933 144.108C787.12 144.201 787.4 144.201 787.587 144.108C787.68 143.921 787.68 143.641 787.587 143.454C787.4 143.361 787.12 143.361 786.933 143.454C786.84 143.641 786.84 143.921 786.933 144.108Z" fill="#B0BADB"/>
<path d="M775.176 136.734C775.549 137.107 776.016 137.107 776.389 136.734C776.669 136.454 776.669 135.894 776.389 135.613C776.016 135.24 775.549 135.24 775.176 135.613C774.896 135.894 774.896 136.454 775.176 136.734Z" fill="#B0BADB"/>
<path d="M718.443 137.294C718.723 137.574 719.283 137.574 719.563 137.294C719.936 136.92 719.936 136.454 719.563 136.08C719.283 135.8 718.723 135.8 718.443 136.08C718.07 136.454 718.07 136.92 718.443 137.294Z" fill="#B0BADB"/>
<path d="M801.583 109.196C801.956 109.476 802.423 109.476 802.796 109.196C803.076 108.823 803.076 108.356 802.796 107.983C802.423 107.703 801.956 107.703 801.583 107.983C801.303 108.356 801.303 108.823 801.583 109.196Z" fill="#B0BADB"/>
<path d="M695.115 60.3764C695.769 61.1232 696.888 61.1232 697.635 60.3764C698.288 59.723 698.288 58.6028 697.635 57.8561C696.888 57.2026 695.769 57.2026 695.115 57.8561C694.462 58.6028 694.462 59.723 695.115 60.3764Z" fill="#B0BADB"/>
<path d="M613.749 67.2838C613.935 67.4705 614.215 67.4705 614.309 67.2838C614.495 67.0971 614.495 66.8171 614.309 66.7237C614.215 66.537 613.935 66.537 613.749 66.7237C613.562 66.8171 613.562 67.0971 613.749 67.2838Z" fill="#B0BADB"/>
<path d="M978.313 285.155C979.06 285.809 980.179 285.809 980.833 285.155C981.486 284.409 981.486 283.289 980.833 282.635C980.179 281.888 979.06 281.888 978.313 282.635C977.66 283.289 977.66 284.409 978.313 285.155Z" fill="#B0BADB"/>
<path d="M964.223 271.339C964.876 272.086 965.996 272.086 966.743 271.339C967.396 270.686 967.396 269.566 966.743 268.912C965.996 268.166 964.876 268.166 964.223 268.912C963.477 269.566 963.477 270.686 964.223 271.339Z" fill="#B0BADB"/>
<path d="M966.649 172.672C966.929 173.045 967.489 173.045 967.769 172.672C968.142 172.392 968.142 171.832 967.769 171.552C967.489 171.179 966.929 171.179 966.649 171.552C966.276 171.832 966.276 172.392 966.649 172.672Z" fill="#B0BADB"/>
<path d="M991.937 178.927C992.216 179.207 992.776 179.207 993.149 178.927C993.429 178.553 993.429 177.993 993.149 177.713C992.776 177.34 992.216 177.34 991.937 177.713C991.657 177.993 991.657 178.553 991.937 178.927Z" fill="#B0BADB"/>
<path d="M1060.89 195.915C1060.89 194.515 1059.77 193.395 1058.47 193.395C1057.07 193.395 1055.95 194.515 1055.95 195.915C1055.95 197.315 1057.07 198.436 1058.47 198.436C1059.77 198.436 1060.89 197.315 1060.89 195.915Z" fill="white"/>
<path d="M1058.47 243.15C1058.47 241.749 1057.35 240.629 1055.95 240.629C1054.55 240.629 1053.43 241.749 1053.43 243.15C1053.43 244.55 1054.55 245.67 1055.95 245.67C1057.35 245.67 1058.47 244.55 1058.47 243.15Z" fill="#B0BADB"/>
<path d="M1093.46 185.647C1093.46 184.714 1092.62 183.874 1091.69 183.874C1090.66 183.874 1089.91 184.714 1089.91 185.647C1089.91 186.581 1090.66 187.421 1091.69 187.421C1092.62 187.421 1093.46 186.581 1093.46 185.647Z" fill="#B0BADB"/>
<path d="M1110.25 237.549C1110.25 236.615 1109.41 235.775 1108.48 235.775C1107.55 235.775 1106.71 236.615 1106.71 237.549C1106.71 238.482 1107.55 239.322 1108.48 239.322C1109.41 239.322 1110.25 238.482 1110.25 237.549Z" fill="#B0BADB"/>
<path d="M1063.97 205.717C1063.97 205.25 1063.6 204.876 1063.13 204.876C1062.67 204.876 1062.29 205.25 1062.29 205.717C1062.29 206.183 1062.67 206.557 1063.13 206.557C1063.6 206.557 1063.97 206.183 1063.97 205.717Z" fill="#B0BADB"/>
<path d="M1071.34 259.485C1071.34 259.018 1070.97 258.645 1070.5 258.645C1070.04 258.645 1069.66 259.018 1069.66 259.485C1069.66 259.952 1070.04 260.325 1070.5 260.325C1070.97 260.325 1071.34 259.952 1071.34 259.485Z" fill="#B0BADB"/>
<path d="M1180.61 295.517C1181.64 296.544 1183.22 296.544 1184.16 295.517C1185.18 294.584 1185.18 292.997 1184.16 291.97C1183.22 291.036 1181.64 291.036 1180.61 291.97C1179.68 292.997 1179.68 294.584 1180.61 295.517Z" fill="#B0BADB"/>
<path d="M1159.99 293.089C1160.27 293.462 1160.83 293.462 1161.2 293.089C1161.48 292.809 1161.48 292.249 1161.2 291.969C1160.83 291.596 1160.27 291.596 1159.99 291.969C1159.62 292.249 1159.62 292.809 1159.99 293.089Z" fill="#B0BADB"/>
<path d="M1093.92 117.784C1094.2 118.064 1094.76 118.064 1095.04 117.784C1095.42 117.411 1095.42 116.851 1095.04 116.571C1094.76 116.197 1094.2 116.197 1093.92 116.571C1093.55 116.851 1093.55 117.411 1093.92 117.784Z" fill="#B0BADB"/>
<path d="M1097.56 220.092C1097.66 220.185 1097.94 220.185 1098.12 220.092C1098.31 219.905 1098.31 219.625 1098.12 219.439C1097.94 219.345 1097.66 219.345 1097.56 219.439C1097.38 219.625 1097.38 219.905 1097.56 220.092Z" fill="#B0BADB"/>
<path d="M1089.35 300.558C1089.63 300.838 1090.19 300.838 1090.47 300.558C1090.85 300.184 1090.85 299.717 1090.47 299.344C1090.19 299.064 1089.63 299.064 1089.35 299.344C1088.98 299.717 1088.98 300.184 1089.35 300.558Z" fill="#B0BADB"/>
<path d="M1147.3 229.52C1148.05 230.267 1149.16 230.267 1149.82 229.52C1150.47 228.867 1150.47 227.746 1149.82 227.093C1149.16 226.346 1148.05 226.346 1147.3 227.093C1146.65 227.746 1146.65 228.867 1147.3 229.52Z" fill="#B0BADB"/>
<path d="M1149.72 283.381C1150.38 284.034 1151.5 284.034 1152.24 283.381C1152.9 282.634 1152.9 281.607 1152.24 280.861C1151.5 280.207 1150.38 280.207 1149.72 280.861C1148.98 281.607 1148.98 282.634 1149.72 283.381Z" fill="#B0BADB"/>
<path d="M1142.07 205.531C1142.63 205.998 1143.47 205.998 1143.94 205.531C1144.41 204.971 1144.41 204.131 1143.94 203.664C1143.47 203.104 1142.63 203.104 1142.07 203.664C1141.61 204.131 1141.61 204.971 1142.07 205.531Z" fill="#B0BADB"/>
<path d="M1150.66 225.04C1151.03 225.414 1151.5 225.414 1151.87 225.04C1152.15 224.76 1152.15 224.2 1151.87 223.827C1151.5 223.547 1151.03 223.547 1150.66 223.827C1150.38 224.2 1150.38 224.76 1150.66 225.04Z" fill="#B0BADB"/>
<path d="M1163.91 239.415C1164.19 239.789 1164.75 239.789 1165.03 239.415C1165.4 239.135 1165.4 238.575 1165.03 238.295C1164.75 237.922 1164.19 237.922 1163.91 238.295C1163.53 238.575 1163.53 239.135 1163.91 239.415Z" fill="#B0BADB"/>
<path d="M1215.98 296.823C1216.26 297.197 1216.81 297.197 1217.09 296.823C1217.47 296.543 1217.47 295.983 1217.09 295.703C1216.81 295.33 1216.26 295.33 1215.98 295.703C1215.6 295.983 1215.6 296.543 1215.98 296.823Z" fill="#B0BADB"/>
<path d="M1179.3 289.076C1179.68 289.356 1180.14 289.356 1180.52 289.076C1180.8 288.703 1180.8 288.236 1180.52 287.863C1180.14 287.583 1179.68 287.583 1179.3 287.863C1179.02 288.236 1179.02 288.703 1179.3 289.076Z" fill="#B0BADB"/>
<path d="M1152.8 243.429C1153.08 243.802 1153.64 243.802 1154.02 243.429C1154.3 243.149 1154.3 242.589 1154.02 242.309C1153.64 241.935 1153.08 241.935 1152.8 242.309C1152.52 242.589 1152.52 243.149 1152.8 243.429Z" fill="#B0BADB"/>
<path d="M1215.14 205.53C1215.42 205.81 1215.97 205.81 1216.25 205.53C1216.63 205.157 1216.63 204.597 1216.25 204.317C1215.97 203.943 1215.42 203.943 1215.14 204.317C1214.76 204.597 1214.76 205.157 1215.14 205.53Z" fill="#B0BADB"/>
<path d="M1141.23 236.241C1141.42 236.428 1141.7 236.428 1141.79 236.241C1141.98 236.054 1141.98 235.867 1141.79 235.681C1141.7 235.494 1141.42 235.494 1141.23 235.681C1141.05 235.867 1141.05 236.054 1141.23 236.241Z" fill="#B0BADB"/>
<path d="M1125.28 201.983C1125.46 202.17 1125.74 202.17 1125.93 201.983C1126.02 201.796 1126.02 201.61 1125.93 201.423C1125.74 201.236 1125.46 201.236 1125.28 201.423C1125.18 201.61 1125.18 201.796 1125.28 201.983Z" fill="#B0BADB"/>
<path d="M1173.71 195.449C1173.89 195.636 1174.17 195.636 1174.27 195.449C1174.45 195.262 1174.45 195.075 1174.27 194.889C1174.17 194.702 1173.89 194.702 1173.71 194.889C1173.52 195.075 1173.52 195.262 1173.71 195.449Z" fill="#B0BADB"/>
<path d="M1150.47 236.615C1150.56 236.802 1150.84 236.802 1151.03 236.615C1151.22 236.428 1151.22 236.241 1151.03 236.055C1150.84 235.868 1150.56 235.868 1150.47 236.055C1150.28 236.241 1150.28 236.428 1150.47 236.615Z" fill="#B0BADB"/>
<path d="M1138.71 229.334C1138.99 229.614 1139.55 229.614 1139.83 229.334C1140.21 228.961 1140.21 228.494 1139.83 228.12C1139.55 227.84 1138.99 227.84 1138.71 228.12C1138.34 228.494 1138.34 228.961 1138.71 229.334Z" fill="#B0BADB"/>
<path d="M1081.89 229.8C1082.17 230.173 1082.73 230.173 1083.1 229.8C1083.38 229.52 1083.38 228.96 1083.1 228.68C1082.73 228.306 1082.17 228.306 1081.89 228.68C1081.61 228.96 1081.61 229.52 1081.89 229.8Z" fill="#B0BADB"/>
<path d="M1165.12 201.703C1165.4 202.077 1165.96 202.077 1166.24 201.703C1166.61 201.423 1166.61 200.863 1166.24 200.583C1165.96 200.21 1165.4 200.21 1165.12 200.583C1164.75 200.863 1164.75 201.423 1165.12 201.703Z" fill="#B0BADB"/>
<path d="M1058.56 152.976C1059.31 153.629 1060.43 153.629 1061.08 152.976C1061.73 152.229 1061.73 151.109 1061.08 150.455C1060.43 149.802 1059.31 149.802 1058.56 150.455C1057.91 151.109 1057.91 152.229 1058.56 152.976Z" fill="#B0BADB"/>
<path d="M977.193 159.791C977.38 159.977 977.66 159.977 977.846 159.791C978.033 159.697 978.033 159.417 977.846 159.231C977.66 159.044 977.38 159.044 977.193 159.231C977.1 159.417 977.1 159.697 977.193 159.791Z" fill="#B0BADB"/>
</g>
</svg>
