<svg width="1221" height="481" viewBox="0 0 1221 481" fill="none" xmlns="http://www.w3.org/2000/svg">
<path d="M861.993 152.477L860.967 169.746L843.517 187.015L838.292 186.549L835.773 169.279L836.146 166.946L851.729 151.45L861.993 152.477Z" fill="url(#paint0_linear_193_45)"/>
<path d="M993.747 301.552L989.362 281.669L991.695 277.561L1004.38 275.508L1016.98 298.378L1007.37 306.779L993.747 301.552Z" fill="url(#paint1_linear_193_45)"/>
<path d="M345.239 322.648L347.572 310.046L363.994 306.966L367.354 311.446L357.369 333.103L345.239 322.648Z" fill="url(#paint2_linear_193_45)"/>
<path d="M376.125 306.686L381.443 302.485L396.466 298.378L397.026 305.846L387.415 310.14L376.125 306.686Z" fill="url(#paint3_linear_193_45)"/>
<path d="M326.763 124.94L330.776 108.511L342.346 102.35L351.397 120.552L341.786 143.142L326.763 124.94Z" fill="url(#paint4_linear_193_45)"/>
<path d="M309.221 172.547L306.888 190.096L280.948 201.018L268.724 170.96L282.628 136.235L301.756 129.794L307.821 137.075L309.221 172.547Z" fill="url(#paint5_linear_193_45)"/>
<path d="M246.236 397.886L254.821 389.765L260.979 391.912L260.42 402.927L247.169 405.634L246.236 397.886Z" fill="url(#paint6_linear_193_45)"/>
<path d="M1.57605 246.104L0.176392 206.711L61.1082 194.856L65.4938 215.113V225.661L19.6783 250.024L1.57605 246.104Z" fill="url(#paint7_linear_193_45)"/>
<path d="M33.3016 255.999L41.6063 247.131L51.4039 249.651L49.7243 265.8L34.5147 268.414L33.3016 255.999Z" fill="url(#paint8_linear_193_45)"/>
<path d="M1082.39 96.8939L1051.51 33.8849L1076.61 0L1163.57 27.2573L1140.71 98.7609L1082.39 96.8939Z" fill="url(#paint9_linear_193_45)"/>
<path d="M944.946 79.8529L938.787 62.7705L949.238 53.7158L975.365 66.3176L967.62 88.5342L944.946 79.8529Z" fill="url(#paint10_linear_193_45)"/>
<path d="M887.467 296.697L892.132 288.109L902.956 286.989L905.476 296.697L896.518 307.432L887.467 296.697Z" fill="url(#paint11_linear_193_45)"/>
<path d="M908.368 234.436L907.249 229.395L916.393 224.728L919.659 229.488L918.912 232.849L908.368 234.436Z" fill="url(#paint12_linear_193_45)"/>
<path d="M503.307 168.066H484.738L481.846 159.105L499.668 153.504L509.652 158.731L503.307 168.066Z" fill="url(#paint13_linear_193_45)"/>
<path d="M462.904 182.908L465.33 179.361L475.78 177.4L474.847 182.441L467.289 184.308L462.904 182.908Z" fill="url(#paint14_linear_193_45)"/>
<path d="M913.407 472.47V455.387L921.712 453.054L938.787 474.057L929.83 480.218L913.407 472.47Z" fill="url(#paint15_linear_193_45)"/>
<path d="M493.136 119.059L475.5 120.459L467.382 107.297L474.474 100.109L498.175 101.416L493.136 119.059Z" fill="url(#paint16_linear_193_45)"/>
<path d="M1082.39 96.6367L1134.18 39.1351L1163.57 27L1140.71 98.5036L1082.39 96.6367Z" fill="#290823"/>
<g style="mix-blend-mode:soft-light">
<path d="M1163.57 27.2573L1134.18 39.3923L1079.31 12.9752L1076.61 0L1163.57 27.2573Z" fill="#ECABA4"/>
</g>
<path d="M1118.41 56.5631L1125.97 35L1142.58 35.5601L1118.41 56.5631Z" fill="#430F3F"/>
<path d="M213.391 118.219L176.627 67.7181L193.423 34.1133L273.95 44.6615L264.898 110.938L213.391 118.219Z" fill="url(#paint17_linear_193_45)"/>
<path d="M213.391 118.218L249.969 59.7833L273.95 44.6611L264.898 110.937L213.391 118.218Z" fill="#290823"/>
<g style="mix-blend-mode:soft-light">
<path d="M273.95 44.6615L249.969 59.7836L197.808 45.0349L193.423 34.1133L273.95 44.6615Z" fill="#ECABA4"/>
</g>
<path d="M238.865 77.6124L242.131 57.5429L256.874 55.4893L238.865 77.6124Z" fill="#430F3F"/>
<path d="M967.621 88.5349L944.946 79.8536L965.288 69.9589L975.365 66.3184L967.621 88.5349Z" fill="#290823"/>
<g style="mix-blend-mode:soft-light">
<path d="M975.365 66.3176L962.582 71.265L946.346 57.1696L949.238 53.7158L975.365 66.3176Z" fill="#ECABA4"/>
</g>
<path d="M955.863 74.5327L958.383 67.625L969.207 68.7452L955.863 74.5327Z" fill="#430F3F"/>
<g style="mix-blend-mode:soft-light">
<path d="M861.993 152.477L860.966 169.746L854.248 166.666L851.729 151.45L861.993 152.477Z" fill="#ECABA4"/>
</g>
<g style="mix-blend-mode:soft-light">
<path d="M1002.71 275.788L1016.42 299.125L1004.38 299.218L994.307 276.815L1002.71 275.788Z" fill="#ECABA4"/>
</g>
<g style="mix-blend-mode:soft-light">
<path d="M1004.38 275.508L1016.98 298.378H1003.17L995.614 294.831L991.695 277.561L1004.38 275.508Z" fill="#ECABA4"/>
</g>
<g style="mix-blend-mode:soft-light">
<path d="M902.956 286.989L905.476 296.697L897.544 298.098L892.132 293.99V288.109L902.956 286.989Z" fill="#ECABA4"/>
</g>
<g style="mix-blend-mode:soft-light">
<path d="M919.659 229.488L918.912 232.849L911.448 231.729V228.741L916.393 224.728L919.659 229.488Z" fill="#ECABA4"/>
</g>
<path d="M498.175 101.416L493.136 119.059L477.553 117.005L474.474 100.109L498.175 101.416Z" fill="#367AC9"/>
<path d="M509.652 158.731L503.307 168.066L492.763 163.679L491.457 159.291L499.668 153.504L509.652 158.731Z" fill="#367AC9"/>
<path d="M475.78 177.4L474.847 182.441L467.009 182.534L465.33 181.414V179.361L475.78 177.4Z" fill="#367AC9"/>
<g style="mix-blend-mode:soft-light">
<path d="M396.466 298.378L397.026 305.846L387.229 308.646L381.443 302.485L396.466 298.378Z" fill="#ECABA4"/>
</g>
<g style="mix-blend-mode:soft-light">
<path d="M367.354 311.446L357.369 333.103L352.237 324.608L350.558 317.327L363.994 306.966L367.354 311.446Z" fill="#ECABA4"/>
</g>
<g style="mix-blend-mode:soft-light">
<path d="M351.397 120.552L341.786 143.142L335.348 125.593L336.654 115.325L342.346 102.35L351.397 120.552Z" fill="#ECABA4"/>
</g>
<g style="mix-blend-mode:soft-light">
<path d="M307.821 137.075L309.221 172.547L306.888 190.096L288.506 186.269L275.629 174.507L283.934 146.97L301.756 129.794L307.821 137.075Z" fill="#ECABA4"/>
</g>
<g style="mix-blend-mode:soft-light">
<path d="M65.4938 215.113V225.661L25.2769 240.316L37.5006 204.098L61.1082 194.856L65.4938 215.113Z" fill="#ECABA4"/>
</g>
<g style="mix-blend-mode:soft-light">
<path d="M51.4039 249.651L49.7243 265.8L42.726 259.919L41.6063 247.131L51.4039 249.651Z" fill="#ECABA4"/>
</g>
<g style="mix-blend-mode:soft-light">
<path d="M260.979 391.912L260.42 402.927L253.608 398.913L254.821 389.765L260.979 391.912Z" fill="#ECABA4"/>
</g>
<path d="M938.787 474.057L929.83 480.217L913.407 472.47L926.844 475.924L938.787 474.057Z" fill="#290823"/>
<path d="M1016.98 298.378L1007.37 306.779L993.747 301.552L1003.17 298.378H1016.98Z" fill="#290823"/>
<path d="M838.292 186.549L845.29 172.36L854.248 166.666L860.967 169.746L843.517 187.016L838.292 186.549Z" fill="#290823"/>
<path d="M918.912 232.849L908.368 234.436L911.448 231.729L918.912 232.849Z" fill="#290823"/>
<path d="M905.476 296.698L896.518 307.433L897.544 298.098L905.476 296.698Z" fill="#290823"/>
<path d="M503.307 168.066H484.738L492.763 163.679L503.307 168.066Z" fill="#290823"/>
<path d="M493.136 119.059L475.5 120.459L477.553 117.005L493.136 119.059Z" fill="#290823"/>
<path d="M474.847 182.441L467.289 184.308L467.009 182.535L474.847 182.441Z" fill="#290823"/>
<path d="M341.786 143.142L326.763 124.939L335.348 125.593L341.786 143.142Z" fill="#290823"/>
<path d="M288.506 186.269L306.888 190.096L280.948 201.018L268.724 170.96L275.629 174.507L288.506 186.269Z" fill="#290823"/>
<path d="M357.369 333.103L345.239 322.648L352.237 324.609L357.369 333.103Z" fill="#290823"/>
<path d="M397.026 305.846L387.415 310.14L387.229 308.646L397.026 305.846Z" fill="#290823"/>
<path d="M1153.5 325.915L1172.81 269.721L1180.93 262.253L1189.7 281.482L1175.89 311.447L1153.5 325.915Z" fill="url(#paint18_linear_193_45)"/>
<path d="M1198.38 265.24L1214.71 259.266L1254.92 261.599L1250.35 280.269L1223.2 282.882L1198.38 265.24Z" fill="url(#paint19_linear_193_45)"/>
<g style="mix-blend-mode:soft-light">
<path d="M1254.92 261.599L1250.35 280.269L1223.85 279.148L1214.71 259.266L1254.92 261.599Z" fill="#ECABA4"/>
</g>
<g style="mix-blend-mode:soft-light">
<path d="M1180.93 262.253L1178.41 295.578L1168.05 310.607L1153.5 325.915L1172.81 269.721L1180.93 262.253Z" fill="#ECABA4"/>
</g>
<path d="M260.42 402.926L247.169 405.633L253.608 398.912L260.42 402.926Z" fill="#290823"/>
<path d="M49.7243 265.8L34.5147 268.414L42.726 259.919L49.7243 265.8Z" fill="#290823"/>
<path d="M65.4938 225.661L19.6783 250.025L1.57605 246.104L25.2769 240.317L65.4938 225.661Z" fill="#290823"/>
<g style="mix-blend-mode:soft-light">
<path d="M892.132 293.991L887.467 296.698L892.132 288.11V293.991Z" fill="#95D3FF"/>
</g>
<g style="mix-blend-mode:soft-light">
<path d="M911.448 231.728L908.368 234.435L907.249 229.395L911.448 228.741V231.728Z" fill="#95D3FF"/>
</g>
<g style="mix-blend-mode:soft-light">
<path d="M913.407 455.388L926.844 475.924L913.407 472.47V455.388Z" fill="#95D3FF"/>
</g>
<defs>
<linearGradient id="paint0_linear_193_45" x1="24900.7" y1="6695.43" x2="26040.6" y2="6035.33" gradientUnits="userSpaceOnUse">
<stop stop-color="#3B1B36"/>
<stop offset="1" stop-color="#311134"/>
</linearGradient>
<linearGradient id="paint1_linear_193_45" x1="31404.4" y1="10954.6" x2="31404.4" y2="9907.03" gradientUnits="userSpaceOnUse">
<stop stop-color="#5C214A"/>
<stop offset="1" stop-color="#4F1D4F"/>
</linearGradient>
<linearGradient id="paint2_linear_193_45" x1="9533.86" y1="9141.3" x2="10131.7" y2="9209" gradientUnits="userSpaceOnUse">
<stop stop-color="#5C214A"/>
<stop offset="1" stop-color="#4F1D4F"/>
</linearGradient>
<linearGradient id="paint3_linear_193_45" x1="9748.39" y1="4186.8" x2="10223.2" y2="4301.2" gradientUnits="userSpaceOnUse">
<stop stop-color="#5C214A"/>
<stop offset="1" stop-color="#4F1D4F"/>
</linearGradient>
<linearGradient id="paint4_linear_193_45" x1="9860.12" y1="4993.37" x2="10691.2" y2="4905.43" gradientUnits="userSpaceOnUse">
<stop stop-color="#5C214A"/>
<stop offset="1" stop-color="#4F1D4F"/>
</linearGradient>
<linearGradient id="paint5_linear_193_45" x1="13171" y1="10556.9" x2="15451.7" y2="10331.4" gradientUnits="userSpaceOnUse">
<stop stop-color="#5C214A"/>
<stop offset="1" stop-color="#4F1D4F"/>
</linearGradient>
<linearGradient id="paint6_linear_193_45" x1="4804.8" y1="7183.26" x2="5066.4" y2="7216.22" gradientUnits="userSpaceOnUse">
<stop stop-color="#5C214A"/>
<stop offset="1" stop-color="#4F1D4F"/>
</linearGradient>
<linearGradient id="paint7_linear_193_45" x1="2952.52" y1="12420.1" x2="7524.74" y2="12420.1" gradientUnits="userSpaceOnUse">
<stop stop-color="#5C214A"/>
<stop offset="1" stop-color="#4F1D4F"/>
</linearGradient>
<linearGradient id="paint8_linear_193_45" x1="1494.15" y1="6155.31" x2="1845.34" y2="6155.31" gradientUnits="userSpaceOnUse">
<stop stop-color="#5C214A"/>
<stop offset="1" stop-color="#4F1D4F"/>
</linearGradient>
<linearGradient id="paint9_linear_193_45" x1="132382" y1="10873.6" x2="145841" y2="10873.6" gradientUnits="userSpaceOnUse">
<stop stop-color="#5C214A"/>
<stop offset="1" stop-color="#4F1D4F"/>
</linearGradient>
<linearGradient id="paint10_linear_193_45" x1="39385.7" y1="2504.93" x2="40819.6" y2="2504.93" gradientUnits="userSpaceOnUse">
<stop stop-color="#5C214A"/>
<stop offset="1" stop-color="#4F1D4F"/>
</linearGradient>
<linearGradient id="paint11_linear_193_45" x1="18826.2" y1="6834.87" x2="19173.8" y2="6834.87" gradientUnits="userSpaceOnUse">
<stop stop-color="#5C214A"/>
<stop offset="1" stop-color="#4F1D4F"/>
</linearGradient>
<linearGradient id="paint12_linear_193_45" x1="13532.2" y1="2686.69" x2="13697.3" y2="2686.69" gradientUnits="userSpaceOnUse">
<stop stop-color="#5C214A"/>
<stop offset="1" stop-color="#4F1D4F"/>
</linearGradient>
<linearGradient id="paint13_linear_193_45" x1="16092.4" y1="2735.36" x2="16921.1" y2="2735.36" gradientUnits="userSpaceOnUse">
<stop stop-color="#5C214A"/>
<stop offset="1" stop-color="#4F1D4F"/>
</linearGradient>
<linearGradient id="paint14_linear_193_45" x1="7430.6" y1="1578.97" x2="7608.3" y2="1578.97" gradientUnits="userSpaceOnUse">
<stop stop-color="#5C214A"/>
<stop offset="1" stop-color="#4F1D4F"/>
</linearGradient>
<linearGradient id="paint15_linear_193_45" x1="26900.4" y1="13986.1" x2="27590.8" y2="13986.1" gradientUnits="userSpaceOnUse">
<stop stop-color="#5C214A"/>
<stop offset="1" stop-color="#4F1D4F"/>
</linearGradient>
<linearGradient id="paint16_linear_193_45" x1="17277" y1="2544.1" x2="18293.2" y2="2544.1" gradientUnits="userSpaceOnUse">
<stop stop-color="#5C214A"/>
<stop offset="1" stop-color="#4F1D4F"/>
</linearGradient>
<linearGradient id="paint17_linear_193_45" x1="21519.5" y1="4609.45" x2="32753.2" y2="2324.02" gradientUnits="userSpaceOnUse">
<stop stop-color="#5C214A"/>
<stop offset="1" stop-color="#4F1D4F"/>
</linearGradient>
<linearGradient id="paint18_linear_193_45" x1="48389.6" y1="25294.4" x2="45970.4" y2="24621.9" gradientUnits="userSpaceOnUse">
<stop stop-color="#5C214A"/>
<stop offset="1" stop-color="#4F1D4F"/>
</linearGradient>
<linearGradient id="paint19_linear_193_45" x1="76749.7" y1="6791.65" x2="78500.5" y2="8830.74" gradientUnits="userSpaceOnUse">
<stop stop-color="#5C214A"/>
<stop offset="1" stop-color="#4F1D4F"/>
</linearGradient>
</defs>
</svg>
