<svg width="40" height="40" viewBox="0 0 40 40" fill="none" xmlns="http://www.w3.org/2000/svg">
<circle cx="20" cy="20" r="19.5" stroke="#B0BADB" stroke-opacity="0.22"/>
<path d="M10.3156 19.5367L14.4539 21.0798L16.0671 26.2701C16.1373 26.6208 16.5581 26.691 16.8387 26.4806L19.1533 24.5868C19.3637 24.3763 19.7144 24.3763 19.995 24.5868L24.1333 27.6028C24.4138 27.8132 24.8347 27.6729 24.9048 27.3222L27.991 12.5928C28.0611 12.2421 27.7104 11.8914 27.3597 12.0317L10.3156 18.6249C9.89479 18.7651 9.89479 19.3964 10.3156 19.5367ZM15.8567 20.3082L23.993 15.3283C24.1333 15.2581 24.2735 15.4685 24.1333 15.5387L17.4699 21.7812C17.2595 21.9916 17.0491 22.2721 17.0491 22.6228L16.8387 24.3062C16.8387 24.5166 16.488 24.5868 16.4178 24.3062L15.5761 21.22C15.3657 20.8693 15.506 20.4485 15.8567 20.3082Z" fill="url(#paint0_linear_12_1177)"/>
<defs>
<linearGradient id="paint0_linear_12_1177" x1="9.22699" y1="23.0625" x2="28.0837" y2="28.7957" gradientUnits="userSpaceOnUse">
<stop stop-color="#6DC1F3"/>
<stop offset="1" stop-color="#F51AA8"/>
</linearGradient>
</defs>
</svg>
