<svg width="40" height="40" viewBox="0 0 40 40" fill="none" xmlns="http://www.w3.org/2000/svg">
<circle cx="20" cy="20" r="19.5" stroke="#B0BADB" stroke-opacity="0.22"/>
<path d="M29 14.648C28.3929 14.9082 27.699 15.0816 27.0051 15.1684C27.699 14.7347 28.3061 14.0408 28.5663 13.2602C27.8724 13.6939 27.1786 13.9541 26.3112 14.1276C25.7041 13.4337 24.75 13 23.7959 13C21.8878 13 20.3265 14.5612 20.3265 16.4694C20.3265 16.7296 20.3265 16.9898 20.4133 17.25C17.551 17.0765 14.949 15.6888 13.2143 13.6071C12.9541 14.1275 12.7806 14.7347 12.7806 15.3418C12.7806 16.5561 13.3878 17.5969 14.3418 18.2041C13.7347 18.2041 13.2143 18.0306 12.7806 17.7704C12.7806 19.4184 13.9949 20.8929 15.5561 21.1531C15.2959 21.2398 14.949 21.2398 14.602 21.2398C14.3418 21.2398 14.1684 21.2398 13.9082 21.1531C14.3418 22.5408 15.6429 23.5816 17.2041 23.5816C15.9898 24.5357 14.5153 25.0561 12.8673 25.0561C12.6071 25.0561 12.3469 25.0561 12 24.9694C13.5612 25.9235 15.3827 26.5306 17.3776 26.5306C23.7959 26.5306 27.2653 21.2398 27.2653 16.6429V16.2092C27.9592 15.949 28.5663 15.3418 29 14.648Z" fill="url(#paint0_linear_12_1174)"/>
<defs>
<linearGradient id="paint0_linear_12_1174" x1="11.2699" y1="22.5329" x2="28.781" y2="28.3679" gradientUnits="userSpaceOnUse">
<stop stop-color="#6DC1F3"/>
<stop offset="1" stop-color="#F51AA8"/>
</linearGradient>
</defs>
</svg>
