<svg width="40" height="40" viewBox="0 0 40 40" fill="none" xmlns="http://www.w3.org/2000/svg">
<circle cx="20" cy="20" r="19.5" stroke="#B0BADB" stroke-opacity="0.22"/>
<path fill-rule="evenodd" clip-rule="evenodd" d="M13.8973 16.577C13.9173 16.3814 13.842 16.1885 13.6953 16.0572L12.202 14.2672V14H16.8407L20.426 21.8197L23.578 14H28V14.2672L26.7227 15.4851C26.6127 15.5686 26.558 15.7058 26.5807 15.8417V24.7905C26.558 24.9258 26.6127 25.063 26.7227 25.1465L27.97 26.3644V26.6316H21.6953V26.3644L22.988 25.1167C23.1147 24.9907 23.1147 24.9536 23.1147 24.7607V17.5277L19.522 26.6024H19.0367L14.8533 17.5277V23.6098C14.8187 23.865 14.904 24.1229 15.0847 24.3072L16.7653 26.3346V26.6024H12V26.3346L13.6807 24.3072C13.8607 24.1222 13.9407 23.863 13.8973 23.6098V16.577Z" fill="url(#paint0_linear_12_1183)"/>
<defs>
<linearGradient id="paint0_linear_12_1183" x1="11.3129" y1="22.8995" x2="27.7669" y2="28.4271" gradientUnits="userSpaceOnUse">
<stop stop-color="#6DC1F3"/>
<stop offset="1" stop-color="#F51AA8"/>
</linearGradient>
</defs>
</svg>
