<svg width="224" height="46" viewBox="0 0 224 46" fill="none" xmlns="http://www.w3.org/2000/svg">
<path d="M105.914 16.3125L99.1207 37.8053H94.918L90.3678 23.8473L85.7859 37.8053H81.5832L74.821 16.3125H79.4345L83.7636 30.6101L88.377 16.3125H92.3269L96.972 30.6101L101.301 16.3125H105.914Z" fill="white"/>
<path d="M123.325 22.7042C124.969 24.2791 125.79 26.379 125.79 28.9112C125.79 31.814 124.747 34.13 122.693 35.7975C120.703 37.4342 118.238 38.268 115.394 38.268C113.151 38.268 111.128 37.743 109.327 36.7239C107.526 35.674 106.23 34.1609 105.504 32.2154L105.219 31.536L109.169 29.2818L109.517 30.3008C109.896 31.4743 110.591 32.3389 111.571 32.9256C112.613 33.5433 113.909 33.8521 115.394 33.8521C117.164 33.8521 118.522 33.4197 119.628 32.5242C120.671 31.6904 121.177 30.517 121.177 28.9112C121.177 27.3363 120.671 26.1628 119.628 25.2982C118.522 24.4027 117.164 23.9703 115.394 23.9703H114.13L112.297 21.2837L118.68 12.7608H106.23V8.4375H124.589V12.174L118.649 20.2029C120.482 20.6353 122.03 21.469 123.325 22.7042Z" fill="white"/>
<path d="M146.045 29.8075L149.774 31.9383L149.395 32.6794C148.478 34.3778 147.151 35.7675 145.382 36.7865C143.644 37.7747 141.685 38.2688 139.567 38.2688C136.281 38.2688 133.532 37.188 131.352 35.0263C129.171 32.8956 128.065 30.209 128.065 27.0592C128.065 23.9094 129.171 21.2228 131.352 19.0921C133.532 16.9304 136.281 15.8496 139.567 15.8496C141.716 15.8496 143.675 16.3746 145.382 17.3627C147.12 18.4127 148.415 19.8023 149.205 21.5316L149.553 22.2418L145.824 24.3417L145.413 23.4771C144.939 22.4271 144.212 21.6551 143.17 21.0375C142.127 20.4199 140.895 20.1111 139.567 20.1111C137.545 20.1111 135.902 20.7596 134.543 22.1183C133.153 23.4771 132.489 25.0828 132.489 27.0592C132.489 29.0355 133.153 30.6413 134.543 32.0001C135.902 33.3588 137.545 34.0073 139.567 34.0073C140.926 34.0073 142.095 33.6985 143.138 33.0809C144.181 32.4633 145.034 31.6295 145.603 30.5796L146.045 29.8075Z" fill="white"/>
<path fill-rule="evenodd" clip-rule="evenodd" d="M170.629 19.0921C172.841 21.2228 173.979 23.9094 173.979 27.0592C173.979 30.209 172.841 32.8956 170.629 35.0263C168.417 37.188 165.668 38.2688 162.477 38.2688C159.285 38.2688 156.536 37.188 154.324 35.0263C152.081 32.8956 150.943 30.209 150.943 27.0592C150.943 23.9094 152.081 21.2228 154.324 19.0921C156.536 16.9304 159.285 15.8496 162.477 15.8496C165.668 15.8496 168.417 16.9304 170.629 19.0921ZM157.453 32.0001C158.811 33.3588 160.454 34.0073 162.477 34.0073C164.467 34.0073 166.111 33.3588 167.501 32.0001C168.86 30.6413 169.555 29.0355 169.555 27.0592C169.555 25.0828 168.86 23.4771 167.501 22.1183C166.111 20.7596 164.467 20.1111 162.477 20.1111C160.454 20.1111 158.811 20.7596 157.453 22.1183C156.062 23.4771 155.399 25.0828 155.399 27.0592C155.399 29.0355 156.062 30.6413 157.453 32.0001Z" fill="white"/>
<path d="M180.867 9.14762C181.405 9.67258 181.689 10.352 181.689 11.124C181.689 11.8651 181.405 12.5445 180.867 13.0694C180.32 13.6047 179.656 13.8723 178.877 13.8723C178.118 13.8723 177.423 13.5944 176.886 13.0694C176.317 12.5445 176.033 11.8651 176.033 11.124C176.033 10.352 176.317 9.67258 176.886 9.14762C177.423 8.62265 178.118 8.34473 178.877 8.34473C179.635 8.34473 180.33 8.62265 180.867 9.14762Z" fill="url(#paint0_linear_4_1272)"/>
<path d="M176.665 16.3125H181.089V37.8053H176.665V16.3125Z" fill="white"/>
<path d="M201.754 18.32C203.334 19.9258 204.124 22.1183 204.124 24.8049V37.8056H199.669V24.8049C199.669 23.2609 199.29 22.1183 198.5 21.3154C197.71 20.5125 196.572 20.1111 195.087 20.1111C193.349 20.1111 192.022 20.6052 190.979 21.6551C189.936 22.6742 189.399 24.3417 189.399 26.596V37.8056H184.975V16.3128H189.399V17.8877C190.947 16.529 192.938 15.8496 195.308 15.8496C197.994 15.8496 200.174 16.6834 201.754 18.32Z" fill="white"/>
<path d="M224 31.7221C224 33.6676 223.178 35.2734 221.63 36.5086C220.113 37.682 218.154 38.2688 215.784 38.2688C213.699 38.2688 211.866 37.8056 210.381 36.8792C208.864 35.9219 207.79 34.6866 207.158 33.1735L206.905 32.4941L210.728 30.3016L211.108 31.2589C211.392 32.1236 211.961 32.7721 212.751 33.2661C213.604 33.7602 214.615 34.0073 215.784 34.0073C216.953 34.0073 217.901 33.7911 218.66 33.3588C219.292 33.0191 219.545 32.4941 219.545 31.7221C219.545 31.1045 219.292 30.6722 218.723 30.3016C218.028 29.8384 217.111 29.4679 216.069 29.1899C214.9 28.912 213.699 28.5723 212.53 28.2326C211.234 27.8312 210.128 27.1518 209.212 26.2254C208.264 25.2372 207.758 23.9403 207.758 22.3654C207.758 20.5125 208.517 18.9068 210.033 17.6716C211.487 16.4672 213.351 15.8496 215.563 15.8496C217.364 15.8496 218.944 16.2511 220.335 17.0539C221.725 17.8877 222.768 18.9994 223.431 20.389L223.779 21.0993L219.955 23.2609L219.576 22.3345C218.944 20.8214 217.649 20.1111 215.563 20.1111C214.552 20.1111 213.73 20.3273 213.035 20.7905C212.466 21.161 212.182 21.6551 212.182 22.3654C212.182 22.983 212.435 23.4153 213.004 23.7859C213.73 24.2491 214.647 24.6196 215.689 24.8667C216.859 25.1755 218.059 25.5152 219.197 25.8549C220.524 26.2563 221.63 26.9357 222.546 27.8621C223.494 28.8503 224 30.1472 224 31.7221Z" fill="white"/>
<path d="M51.2937 0L56.328 34.0434C57.349 40.9004 63.3338 46 70.4452 46L65.4109 11.9566C64.3548 5.06517 58.3699 0 51.2937 0Z" fill="url(#paint1_linear_4_1272)"/>
<path d="M43.4078 45.9655L54.3918 20.9843L51.2937 0L35.9443 34.9049C33.6208 40.1423 37.5638 45.9655 43.4078 45.9655Z" fill="url(#paint2_linear_4_1272)"/>
<path d="M15.6663 45.965L28.3401 27.6683L26.1926 13.0586L10.3151 36.0414C7.35787 40.2451 10.4559 45.965 15.6663 45.965Z" fill="url(#paint3_linear_4_1272)"/>
<path d="M26.1926 13.0586L29.2906 34.0429C30.3116 40.8998 36.2964 45.9994 43.4078 45.9994L40.3098 25.0152C39.2536 18.1238 33.2688 13.0586 26.1926 13.0586Z" fill="url(#paint4_linear_4_1272)"/>
<path d="M0 23.3262L1.58423 34.0078C2.60517 40.8647 8.59003 45.9644 15.7014 45.9644L14.1172 35.2827C13.0963 28.4258 7.07621 23.3262 0 23.3262Z" fill="url(#paint5_linear_4_1272)"/>
<defs>
<linearGradient id="paint0_linear_4_1272" x1="178.003" y1="8.31514" x2="178.431" y2="13.9234" gradientUnits="userSpaceOnUse">
<stop stop-color="#6DC1F3"/>
<stop offset="1" stop-color="#F51AA8"/>
</linearGradient>
<linearGradient id="paint1_linear_4_1272" x1="57.461" y1="0.761774" x2="64.1818" y2="46.8479" gradientUnits="userSpaceOnUse">
<stop stop-color="#6DC1F3"/>
<stop offset="1" stop-color="#F51AA8"/>
</linearGradient>
<linearGradient id="paint2_linear_4_1272" x1="54.0772" y1="6.31726" x2="40.5497" y2="40.5411" gradientUnits="userSpaceOnUse">
<stop stop-color="#4E36E4"/>
<stop offset="0.5075" stop-color="#374AA5"/>
<stop offset="1" stop-color="#4E36E4"/>
</linearGradient>
<linearGradient id="paint3_linear_4_1272" x1="26.7855" y1="17.5704" x2="14.8337" y2="41.3328" gradientUnits="userSpaceOnUse">
<stop stop-color="#4E36E4"/>
<stop offset="0.5075" stop-color="#374AA5"/>
<stop offset="1" stop-color="#4E36E4"/>
</linearGradient>
<linearGradient id="paint4_linear_4_1272" x1="32.1902" y1="12.8823" x2="37.1018" y2="45.7647" gradientUnits="userSpaceOnUse">
<stop stop-color="#6DC1F3"/>
<stop offset="1" stop-color="#F51AA8"/>
</linearGradient>
<linearGradient id="paint5_linear_4_1272" x1="5.77637" y1="23.0096" x2="9.65496" y2="45.8618" gradientUnits="userSpaceOnUse">
<stop stop-color="#6DC1F3"/>
<stop offset="1" stop-color="#F51AA8"/>
</linearGradient>
</defs>
</svg>
