<svg width="28" height="28" viewBox="0 0 28 28" fill="none" xmlns="http://www.w3.org/2000/svg">
<path fill-rule="evenodd" clip-rule="evenodd" d="M5 0C2.23858 0 0 2.23858 0 5V23C0 25.7614 2.23858 28 5 28H23C25.7614 28 28 25.7614 28 23V5C28 2.23858 25.7614 0 23 0H5ZM12.6251 14.275L17.5749 9.32524L18.6748 10.4252L13.7251 15.3749L12.6251 14.275ZM11.5252 17.5748L7.67538 13.725L6.57543 14.825L10.4252 18.6748L11.5252 17.5748ZM10.9752 13.725L13.7251 16.4749L20.3247 9.87521L21.4247 10.9752L13.7251 18.6748L9.87527 14.825L10.9752 13.725Z" fill="#0D182E"/>
</svg>
